<svg width="126" height="119" viewBox="0 0 126 119" xmlns="http://www.w3.org/2000/svg">
  <path d="M95.227 38.565c-3.05-.03-5.794-1.638-7.329-4.278-1.547-2.661-1.386-5.997.196-8.602 1.584-2.606 4.531-4.03 7.543-3.938 3.021.091 5.702 1.966 7.104 4.607 1.373 2.587 1.125 5.787-.381 8.264-1.5 2.469-4.272 3.918-7.133 3.947-1.985.02-1.987 3.102 0 3.081 3.488-.035 6.857-1.606 9.009-4.373 2.238-2.876 3.003-6.58 2.094-10.114-.85-3.303-3.333-6.155-6.45-7.51-3.348-1.454-7.153-1.26-10.343.513-4.546 2.526-6.689 8.012-5.411 12.982 1.286 4.998 6.01 8.451 11.101 8.503 1.989.02 1.987-3.062 0-3.082M53.883 55.226c-.035 6.371-3.464 12.235-8.988 15.409-5.587 3.211-12.624 2.964-18.081-.394-5.433-3.343-8.541-9.504-8.307-15.838.233-6.327 4.074-12.042 9.65-14.954 5.459-2.85 12.188-2.445 17.401.763 5.17 3.181 8.292 8.975 8.325 15.014.009 1.987 3.091 1.988 3.081 0-.036-6.933-3.504-13.341-9.205-17.255-5.755-3.951-13.367-4.537-19.749-1.838-6.181 2.614-10.805 8.291-12.166 14.856-1.415 6.825.755 13.987 5.649 18.929 4.918 4.967 12.121 6.988 18.931 5.65 6.557-1.288 12.261-6.033 14.855-12.166 1.099-2.596 1.67-5.354 1.685-8.176.01-1.987-3.072-1.986-3.081 0m5.101 20.218c5.956 3.793 9.83 10.288 10.267 17.344.086 1.399.039 2.814.039 4.214v12.416c0 2.123-.618 3.876-2.293 5.276-1.773 1.482-4.213 1.217-6.437 1.217H12.025c-2.234 0-4.41.229-6.346-1.007-1.828-1.168-2.596-3.213-2.596-5.318v-5.265c0-3.614-.076-7.236.01-10.849.168-7.055 3.925-13.737 9.754-17.677.118-.079.237-.157.357-.235 1.66-1.078.117-3.747-1.555-2.661C5.278 77.041 1.153 83.694.183 91.214c-.215 1.669-.181 3.348-.181 5.026v12.692c0 2.109.258 4.108 1.427 5.938 1.637 2.562 4.555 4.123 7.584 4.123h49.834c1.584 0 3.167.019 4.75-.003 3.717-.05 6.836-2.488 8.207-5.85.651-1.595.567-3.321.567-5.005V95.403c0-2.139-.107-4.251-.523-6.36-.707-3.591-2.295-7.04-4.491-9.962-1.88-2.5-4.178-4.618-6.817-6.298-1.682-1.071-3.226 1.597-1.556 2.661m59.675-47.649l-.885-4.955c-.052.395-.103.791-.155 1.187 1.563-2.065 3.127-4.13 4.69-6.195.444-.585.159-1.371-.241-1.866-2.301-2.862-4.601-5.723-6.902-8.584-.307-.382-1.044-.578-1.499-.397-2.507 1.004-5.015 2.007-7.522 3.01.396.051.792.103 1.188.155l-3.717-1.947c.236.307.473.614.708.92L102.2 1.956c-.195-.659-.79-1.131-1.485-1.131H89.741c-.695 0-1.29.472-1.485 1.131l-2.124 7.167c.236-.306.472-.613.708-.92l-3.717 1.947c.395-.052.792-.104 1.187-.155-2.507-1.003-5.014-2.006-7.522-3.01-.455-.181-1.192.015-1.499.397-2.301 2.861-4.601 5.722-6.901 8.584-.4.495-.685 1.281-.242 1.866 1.564 2.065 3.127 4.13 4.69 6.195l-.156-1.187c-.294 1.652-.589 3.303-.884 4.955.236-.306.471-.613.708-.921-2.301 1.151-4.602 2.301-6.903 3.452-.639.32-.842 1.093-.708 1.74.708 3.392 1.416 6.784 2.124 10.177.148.707.829 1.072 1.486 1.13 2.655.236 5.309.473 7.965.708-.444-.254-.887-.508-1.33-.762.854 1.179 1.71 2.359 2.565 3.539-.07-.26-.141-.519-.21-.778l-.885 7.345c-.058.488.327 1.122.763 1.33 3.156 1.505 6.312 3.009 9.469 4.514.62.295 1.362.29 1.867-.241 1.68-1.77 3.362-3.54 5.044-5.31-.364.15-.727.301-1.09.451h5.133c-.364-.15-.727-.301-1.09-.451 1.682 1.77 3.363 3.54 5.045 5.31.505.531 1.247.536 1.867.241 3.156-1.505 6.312-3.009 9.468-4.514.435-.208.821-.842.762-1.33-.294-2.449-.589-4.897-.884-7.345-.071.259-.14.518-.21.778.855-1.18 1.711-2.36 2.566-3.539-.443.254-.887.508-1.33.762 2.654-.235 5.31-.472 7.964-.708.657-.058 1.338-.423 1.486-1.131.707-3.392 1.415-6.784 2.123-10.176.135-.647-.068-1.42-.708-1.74-2.3-1.15-4.601-2.301-6.902-3.452-.751-.375-1.663-.206-2.108.553-.404.689-.199 1.733.552 2.108 2.301 1.151 4.602 2.301 6.904 3.452-.237-.58-.473-1.161-.708-1.741-.708 3.393-1.416 6.785-2.124 10.177l1.485-1.131c-1.757.156-3.515.312-5.272.469-.842.075-1.685.149-2.528.225-.639.057-1.103.238-1.498.782-.195.27-.391.54-.587.81l-1.851 2.553c-.446.614-.305 1.202-.222 1.887.245 2.041.491 4.082.737 6.122.011.095.023.19.034.285.254-.444.509-.887.763-1.33-3.156 1.504-6.311 3.009-9.468 4.513.622.08 1.245.161 1.868.241-1.247-1.311-2.492-2.622-3.737-3.933l-1.308-1.377c-.66-.695-2.144-.451-3.008-.451h-3.031c-.889 0-1.318.499-1.863 1.073-1.418 1.493-2.836 2.985-4.253 4.477-.066.07-.134.141-.2.211.622-.08 1.244-.16 1.867-.241-3.156-1.504-6.312-3.009-9.468-4.513.253.443.508.886.762 1.33.215-1.785.43-3.57.646-5.354.079-.662.159-1.325.239-1.987.099-.82-1.023-1.902-1.45-2.492-.314-.432-.627-.865-.942-1.298-.267-.369-.542-.853-.937-1.083-.589-.346-1.643-.288-2.306-.347-2.056-.182-4.113-.366-6.169-.548l-.267-.024c.495.377.991.754 1.486 1.131-.708-3.392-1.416-6.784-2.125-10.177-.235.58-.472 1.161-.708 1.741 1.599-.8 3.197-1.599 4.796-2.398.684-.343 1.37-.685 2.056-1.028.852-.426.859-1.505 1.003-2.317.191-1.064.381-2.127.571-3.191.092-.515.262-1.124-.085-1.581-.111-.146-.221-.292-.331-.438-1.272-1.679-2.542-3.357-3.814-5.037-.181-.239-.363-.48-.545-.72-.081.623-.161 1.245-.241 1.867 2.301-2.861 4.602-5.722 6.903-8.584-.5.133-1 .265-1.5.397 1.633.653 3.267 1.307 4.9 1.96.809.324 1.617.647 2.426.971.839.335 1.586-.184 2.308-.562.901-.472 1.801-.944 2.701-1.415.746-.391.876-1.23 1.093-1.96.583-1.969 1.166-3.937 1.749-5.905.028-.09.054-.18.08-.271l-1.485 1.131h10.973c-.495-.377-.991-.754-1.486-1.131l1.524 5.142c.199.67.397 1.341.596 2.011.29.977 1.558 1.379 2.376 1.807.483.253.965.506 1.448.758.427.225.885.527 1.383.527.645 0 1.353-.432 1.932-.664 1.917-.767 3.835-1.534 5.752-2.301.082-.033.164-.065.246-.099-.499-.131-.999-.264-1.499-.396 2.302 2.862 4.602 5.723 6.903 8.584-.081-.622-.161-1.245-.241-1.867l-4.359 5.757c-.39.514-.616.899-.485 1.63l.243 1.365c.214 1.195.426 2.39.64 3.586.148.827 1.143 1.282 1.896 1.075.865-.237 1.223-1.069 1.076-1.895" fill-rule="evenodd"/>
</svg>
