<svg width="95" height="105" viewBox="0 0 95 105" xmlns="http://www.w3.org/2000/svg">
  <path d="M60.644 72.273c7.708-4.641 12.863-13.09 12.863-22.743 0-14.652-11.878-26.529-26.529-26.529-14.653 0-26.531 11.877-26.531 26.529 0 9.653 5.155 18.102 12.864 22.743v11.826c0 .887.719 1.607 1.607 1.607.889 0 1.608-.72 1.608-1.607V70.376c-7.628-3.832-12.863-11.728-12.863-20.846 0-12.876 10.439-23.314 23.315-23.314 12.874 0 23.313 10.438 23.313 23.314 0 9.118-5.235 17.014-12.863 20.846v13.723c0 .887.719 1.607 1.608 1.607.888 0 1.608-.72 1.608-1.607V72.273zM41.35 101.785h11.254c.888 0 1.608.72 1.608 1.608 0 .887-.72 1.607-1.608 1.607H41.35c-.888 0-1.608-.72-1.608-1.607 0-.888.72-1.608 1.608-1.608zm-3.216-6.432H55.82c.888 0 1.608.72 1.608 1.608 0 .889-.72 1.608-1.608 1.608H38.134c-.888 0-1.608-.719-1.608-1.608 0-.888.72-1.608 1.608-1.608zm-3.216-6.431h24.118c.888 0 1.608.72 1.608 1.608 0 .888-.72 1.608-1.608 1.608H34.918c-.888 0-1.607-.72-1.607-1.608 0-.888.719-1.608 1.607-1.608zm48.645-28.053l9.179 2.46c.85.228 1.723-.277 1.95-1.126.228-.85-.276-1.723-1.126-1.95l-9.179-2.459c-.849-.228-1.722.276-1.949 1.125-.228.849.276 1.723 1.125 1.95m-.227-22.801l8.931-3.251c.826-.299 1.251-1.214.951-2.04-.301-.826-1.214-1.252-2.04-.951l-8.931 3.25c-.826.301-1.252 1.215-.951 2.04.301.826 1.215 1.253 2.04.952M70.072 19.52l5.451-7.784c.504-.72.329-1.714-.39-2.217-.721-.504-1.714-.33-2.218.391l-5.451 7.784c-.504.72-.328 1.713.391 2.217.72.505 1.713.33 2.217-.391M12.121 35.668c.826.301 1.252 1.215.951 2.041-.3.825-1.214 1.252-2.04.951l-8.93-3.251c-.826-.3-1.252-1.214-.952-2.04.301-.826 1.215-1.252 2.041-.951l8.93 3.25zm-1.762 22.734c.85-.227 1.723.277 1.951 1.125.227.85-.277 1.723-1.126 1.951l-9.18 2.459c-.849.228-1.722-.277-1.949-1.126-.228-.849.276-1.722 1.125-1.95l9.179-2.459zm38.21-46.466c0 .878-.713 1.591-1.593 1.591-.878 0-1.591-.713-1.591-1.591V2.432c0-.879.713-1.592 1.591-1.592.88 0 1.593.713 1.593 1.592v9.504zm-21.966 6.12c.504.719.33 1.712-.39 2.216-.72.505-1.713.33-2.218-.39l-5.45-7.784c-.505-.721-.329-1.714.39-2.218.72-.504 1.713-.329 2.217.39l5.451 7.786z" fill-rule="evenodd"/>
</svg>
