<svg width="172" height="194" viewBox="0 0 172 194" xmlns="http://www.w3.org/2000/svg">
  <path d="M132.174 121.455V99.998L85.719 125.46v21.457l46.455-25.462M39.263 73.186v21.457l46.455-25.462V47.724L39.263 73.186m92.911-12.073l-92.911 50.923v21.493l92.911-50.96V61.113m-113.21 74.611l66.755 36.642 66.755-36.642V58.917L85.719 22.275 18.964 58.917v76.807zM85.719 194L0 146.948V47.693L85.719.641l85.719 47.052v99.255L85.719 194zm78.215-32.258h-1.199v-4.726H161V156h4.669v1.016h-1.735v4.726zm7.959 0h-1.12v-4.798h-.016l-1.071 4.798h-1.176l-1.047-4.798h-.016v4.798h-1.119V156h1.751l1.039 4.526h.016l1.024-4.526h1.735v5.742z" fill="#4493B8" fill-rule="evenodd"/>
</svg>
