<svg width="80" height="80" viewBox="0 0 80 80" xmlns="http://www.w3.org/2000/svg">
  <path d="M23.591 80H0V56.409c0-.879.713-1.592 1.592-1.592.879 0 1.592.713 1.592 1.592l-.019 20.426 20.426-.019c.879 0 1.592.713 1.592 1.592 0 .879-.713 1.592-1.592 1.592m56.16-23.591V80H56.159c-.879 0-1.592-.713-1.592-1.592 0-.879.713-1.592 1.592-1.592l20.426.019-.019-20.426c0-.879.713-1.592 1.593-1.592.879 0 1.592.713 1.592 1.592M23.591.25H0v23.591c0 .879.713 1.592 1.592 1.592.879 0 1.592-.713 1.592-1.592L3.165 3.414l20.426.02c.879 0 1.592-.713 1.592-1.592 0-.879-.713-1.592-1.592-1.592M56.14 38.533c.879 0 1.592.713 1.592 1.592 0 .879-.713 1.592-1.592 1.592l-14.682-.01.009 14.682c0 .879-.713 1.592-1.592 1.592-.878 0-1.591-.713-1.591-1.592l.009-14.682-14.682.01c-.879 0-1.593-.713-1.593-1.592 0-.879.714-1.592 1.593-1.592l14.682.009-.009-14.682c0-.879.713-1.592 1.591-1.592.879 0 1.592.713 1.592 1.592l-.009 14.682 14.682-.009zm23.611-14.692c0 .879-.713 1.592-1.592 1.592-.88 0-1.593-.713-1.593-1.592l.019-20.427-20.426.02c-.879 0-1.592-.713-1.592-1.592 0-.879.713-1.592 1.592-1.592h23.592v23.591z" fill-rule="evenodd"/>
</svg>
