<svg width="86" height="153" viewBox="0 0 86 153" xmlns="http://www.w3.org/2000/svg">
  <path d="M73.904 40.028l6.009-1.836c.841-.257 1.314-1.147 1.057-1.988-.257-.841-1.147-1.315-1.988-1.058l-6.008 1.837c-.841.257-1.314 1.147-1.058 1.987.257.841 1.147 1.315 1.988 1.058m-12.336 3.769l6.009-1.836c.841-.257 1.314-1.147 1.057-1.988-.256-.84-1.147-1.314-1.988-1.057l-6.008 1.836c-.841.257-1.314 1.147-1.057 1.988.256.84 1.147 1.313 1.987 1.057m-49.882-3.769l-6.009-1.836c-.84-.257-1.314-1.147-1.057-1.988.257-.841 1.147-1.315 1.988-1.058l6.009 1.837c.841.257 1.314 1.147 1.057 1.987-.257.841-1.147 1.315-1.988 1.058m12.336 3.769l-6.009-1.836c-.84-.257-1.314-1.147-1.057-1.988.257-.84 1.147-1.314 1.988-1.057l6.009 1.836c.84.257 1.314 1.147 1.057 1.988-.257.84-1.147 1.313-1.988 1.057m-3.053-17.045l-4.357-4.527c-.61-.633-.591-1.641.042-2.251.634-.609 1.642-.59 2.251.043l4.358 4.526c.61.634.591 1.641-.042 2.251-.634.61-1.642.591-2.252-.042m8.947 9.292l-4.358-4.527c-.61-.632-.591-1.641.043-2.251.633-.609 1.641-.59 2.251.043l4.357 4.527c.61.632.591 1.641-.042 2.251-.634.609-1.642.59-2.251-.043m34.705-9.292l4.358-4.527c.609-.633.59-1.641-.043-2.251-.633-.609-1.642-.59-2.251.043l-4.358 4.526c-.61.634-.59 1.641.043 2.251.633.61 1.641.591 2.251-.042m-8.946 9.292l4.357-4.527c.61-.632.591-1.641-.042-2.251-.634-.609-1.642-.59-2.251.043l-4.358 4.527c-.61.632-.59 1.641.043 2.251.633.609 1.641.59 2.251-.043m-11.249 9.25V1.7c0-.879-.713-1.592-1.593-1.592-.878 0-1.591.713-1.591 1.592v43.594c0 .879.713 1.591 1.591 1.591.88 0 1.593-.712 1.593-1.591M82.55 82.651v44.058L44.394 148.74v-44.061L82.55 82.651zm-1.559-2.702l-38.157 22.03-38.156-22.03L42.834 57.92l38.157 22.029zm-39.716 24.73v44.061L3.119 126.709V82.651l38.156 22.028zm43.614-26.08L43.614 54.768a1.5657 1.5657 0 0 0-1.56 0L.779 78.599c-.48.278-.779.795-.779 1.35v47.66c0 .558.299 1.075.779 1.352l41.278 23.832c.237.136.506.207.777.207.275 0 .545-.072.78-.209l41.272-23.83c.482-.277.781-.795.781-1.353V79.951a1.5569 1.5569 0 0 0-.778-1.352z" fill="#4A8EB6" fill-rule="evenodd"/>
</svg>
