<svg width="176" height="119" viewBox="0 0 176 119" xmlns="http://www.w3.org/2000/svg">
  <path d="M46.4034 82.8478H15.3272c-1.1622 0-2.105.9427-2.105 2.105 0 1.1622.9428 2.105 2.105 2.105h31.0762c1.1622 0 2.105-.9428 2.105-2.105 0-1.1623-.9428-2.105-2.105-2.105m0-50.9056H15.3272c-1.1622 0-2.105.9428-2.105 2.105 0 1.1623.9428 2.105 2.105 2.105h31.0762c1.1622 0 2.105-.9427 2.105-2.105 0-1.1622-.9428-2.105-2.105-2.105M41.1145 57.395H2.105C.9427 57.395 0 58.3378 0 59.5s.9427 2.105 2.105 2.105h39.0095c1.1622 0 2.105-.9428 2.105-2.105s-.9428-2.105-2.105-2.105m51.8192-22.3059c-.821-.821-2.1539-.821-2.9763 0-.8211.8225-.8211 2.1553 0 2.9777l24.6198 24.6198c.821.821 2.1737.821 2.9948 0l29.754-29.754c.821-.8224.821-2.1552 0-2.9763-.8225-.8225-2.1553-.8225-2.9777 0l-28.2744 28.273-23.1402-23.1402m22.9842 79.701c-30.4878 0-55.29-24.801-55.29-55.2901 0-30.4878 24.8022-55.29 55.29-55.29 30.4891 0 55.29 24.8022 55.29 55.29 0 30.4891-24.8009 55.29-55.29 55.29zm0-114.7901c-32.807 0-59.5 26.693-59.5 59.5 0 32.8083 26.693 59.5 59.5 59.5 32.8083 0 59.5-26.693 59.5-59.5S148.7262 0 115.9179 0z" fill-rule="evenodd"/>
</svg>
