<svg xmlns="http://www.w3.org/2000/svg" style="display:none"><symbol id="shape-protolabs-logo" viewBox="0 0 871 194"><path d="M865.672 61.808h-.795v1.556h.795c.383 0 .841-.103.841-.799 0-.588-.374-.757-.841-.757zm2.019 4.396c.064.103.046.207-.062.207h-.841c-.126 0-.21-.039-.275-.169-.314-.649-.608-1.299-.943-1.972h-.693v1.934c0 .103-.046.207-.19.207h-.673c-.146 0-.192-.062-.192-.207v-5.11c0-.149.066-.187.234-.187h1.807c.864 0 1.724.458 1.724 1.635 0 .612-.233 1.262-.944 1.56l1.048 2.102zm-2.103-6.306c-2.101 0-3.783 1.681-3.783 3.738a3.763 3.763 0 0 0 3.783 3.764 3.755 3.755 0 0 0 3.746-3.764 3.75 3.75 0 0 0-3.746-3.738zm0 8.427c-2.626 0-4.727-2.06-4.727-4.689 0-2.607 2.101-4.663 4.727-4.663 2.672 0 4.709 2.056 4.709 4.663 0 2.629-2.102 4.689-4.709 4.689zm-384.864-2.146H459.49v71.684c0 1.47-.534 2.537-2.402 2.537h-10.017c-1.869 0-2.537-.801-2.537-2.537V66.179h-25.959l4.728-13.22h62.414l-4.993 13.22m-101.922-1.361c-15.006 0-19.744 11.713-19.744 31.999 0 19.745 3.947 31.734 19.744 31.734 16.074 0 20.683-11.327 20.683-31.734 0-21.069-4.609-31.999-20.683-31.999zm-.128 76.77c-32.258 0-35.156-25.679-35.156-46.095 0-15.927 3.689-43.583 35.284-43.583 31.347 0 35.827 22.514 35.827 43.583 0 20.416-3.293 46.095-35.955 46.095zm145.292-76.77c-15.016 0-19.754 11.713-19.754 31.999 0 19.745 3.947 31.734 19.754 31.734 16.063 0 20.673-11.327 20.673-31.734 0-21.069-4.61-31.999-20.673-31.999zm-.138 76.77c-32.258 0-35.156-25.679-35.156-46.095 0-15.927 3.681-43.583 35.294-43.583 31.337 0 35.809 22.514 35.809 43.583 0 20.416-3.286 46.095-35.947 46.095zm67.558-14.095h37.658c1.582 0 2.374.533 2.374 2.244v8.29c0 1.583-.663 2.374-2.503 2.374H579.14c-1.978 0-2.631-.791-2.631-2.374V52.959h12.374c1.712 0 2.503.791 2.503 2.64v71.894m123.776 10.53l-27.166-82.299c-.534-1.714-1.059-2.765-3.565-2.765h-14.287l-27.522 84.805c-.664 1.973-.13 2.636 1.455 2.636h10.285c1.843 0 2.903-.663 3.557-2.773l5.935-18.992h27.072l-8.004-12.395h-15.374l10.818-37.717h.526l20.052 69.104c.655 1.852 1.18 2.773 3.29 2.773h11.611c1.447 0 1.714-.921 1.317-2.377m44.865-10.551h-17.804V65.749h15.693c9.234 0 13.196 4.884 13.196 11.611 0 6.46-5.013 11.344-11.741 11.344h-14.965l4.979 12.661h10.642c9.5 0 13.591 6.193 13.591 13.187 0 6.985-2.903 12.92-13.591 12.92zM776.254 94.5l-.13-.258c8.571-4.091 10.543-13.058 10.543-18.071 0-13.979-8.967-23.212-26.503-23.212h-32.843v84.935c0 1.585.656 2.506 2.904 2.506h33.497c13.582 0 25.451-9.362 25.451-24.927 0-6.597-2.368-17.407-12.919-20.973zm-441.648 43.131l-17.252-34.889c11.455-4.351 15.669-14.748 15.669-24.104 0-18.172-13.304-25.68-26.865-25.68h-31.862v84.94c0 1.711.653 2.502 2.631 2.502h9.744c1.84 0 2.502-1.049 2.502-2.631V65.995h13.958c7.636 0 14.481 2.77 14.481 12.643 0 11.987-8.29 13.965-14.748 13.965h-11.508l4.874 12.504h6.376l15.402 33.057c.791 1.841 1.849 2.236 3.818 2.236h11.326c1.454 0 2.107-1.186 1.454-2.769m-99.577-84.673h-30.021v84.94c0 1.711.791 2.502 2.631 2.502h9.881c1.841 0 2.365-1.049 2.365-2.502V65.867h13.433c8.952 0 14.878 4.342 14.878 13.699 0 8.032-3.818 14.353-14.353 14.353h-11.78l4.954 12.504h8.012c22.523 0 28.311-15.144 28.311-27.253 0-17.517-12.375-26.212-28.311-26.212m568.163 84.734c-3.023-1.182-3.023-2.365-2.629-4.074l1.183-5.389c.526-2.234 1.314-2.234 3.549-1.97 6.835.788 17.217 1.84 23.263 1.84 11.171 0 16.822-4.076 16.822-11.567 0-9.461-3.81-11.828-15.64-13.931-15.508-3.023-29.308-6.702-29.308-24.708 0-16.56 11.303-25.628 29.834-25.628 4.994 0 16.559.394 24.182 3.548 2.892 1.183 2.892 2.367 2.629 4.075l-1.314 5.388c-.526 2.103-1.315 2.235-3.812 2.103-5.914-.788-13.274-1.708-21.028-1.708-11.171 0-15.114 4.337-15.114 11.697 0 8.279 4.206 9.462 15.64 11.565 15.115 3.023 29.045 6.309 29.045 26.286 0 19.844-15.114 26.285-31.936 26.285-6.571 0-18.531-1.052-25.366-3.812m-784.228-2.609l66.755 36.641 66.755-36.641V58.276L85.719 21.634 18.964 58.276v76.807zm66.755 58.276L0 146.306V47.052L85.719 0l85.719 47.052v99.254l-85.719 47.053zm46.455-132.887l-92.911 50.922v21.494l92.911-50.96V60.472M39.263 72.545v21.457L85.719 68.54V47.083L39.263 72.545m92.911 48.268V99.357l-46.455 25.462v21.456l46.455-25.462" fill="#FFF" fill-rule="evenodd"/></symbol></svg>