<?xml version="1.0" standalone="no"?>
<!DOCTYPE svg PUBLIC "-//W3C//DTD SVG 1.1//EN" "http://www.w3.org/Graphics/SVG/1.1/DTD/svg11.dtd" >
<svg>
<metadata>
Created by FontForge 20090914 at Tue Apr 17 22:08:56 2018
 By www-data
Copyright (c) 2005 Parachute&#194;&#168;, www.parachute.gr.  All rights reserved.
</metadata>
<defs>
<font id="PFSquareSansPro-Light" horiz-adv-x="1818" >
  <font-face 
    font-family="PF Square Sans Pro Light"
    font-weight="300"
    font-stretch="normal"
    units-per-em="1000"
    panose-1="2 0 5 6 0 0 0 2 0 4"
    ascent="750"
    descent="-250"
    x-height="486.999"
    cap-height="663"
    bbox="-352.994 -241.336 1760 913.002"
    underline-thickness="50"
    underline-position="-50"
    unicode-range="U+0020-U+FB05"
  />
<missing-glyph horiz-adv-x="436" 
d="M0 700h436v-700h-436v700zM368 40l-150 273l-150 -273h300zM368 660h-300l150 -273zM40 73l153 277l-153 277v-554zM396 72v557l-153 -279z" />
    <glyph glyph-name="fj" unicode="fj" horiz-adv-x="472" 
d="M413 -64c0 -17.333 -1.66699 -34.5 -5 -51.5s-10.5 -32.167 -21.5 -45.5s-27.5 -23.833 -49.5 -31.5s-51.333 -10.834 -88 -9.50098c-2 0 -4.83301 0.833008 -8.5 2.5s-5.83398 5.5 -6.50098 11.5l-1 16c-0.666992 5.33301 0.333008 8.83301 3 10.5
s5.66699 2.83398 9 3.50098c24 2.66699 43.333 6.5 58 11.5s26 11.333 34 19s13.333 17 16 28s4 24.167 4 39.5v502h-204v-430c0 -8 -3.33301 -12 -10 -12h-32c-8.66699 0 -13 4 -13 12v430h-52c-8 0 -12 3.66699 -12 11v22c0 8 4 12 12 12h52v64
c0 23.333 2.83301 44.5 8.5 63.5s15 35.333 28 49s29.5 24.167 49.5 31.5s44.667 11 74 11c18.667 0 40.667 -1.5 66 -4.5s48.333 -8.5 69 -16.5c6.66699 -2.66699 9.33398 -7.66699 8.00098 -15l-3 -17c-2 -6 -7.66699 -8.66699 -17 -8
c-19.333 2.66699 -40.166 5 -62.499 7s-42.5 3 -60.5 3c-34 0 -59.833 -7.83301 -77.5 -23.5s-26.834 -43.5 -27.501 -83.5v-61h248c8 0 12 -4 12 -12v-539z" />
    <glyph glyph-name="ffj" unicode="ffj" horiz-adv-x="729" 
d="M658 487c8 0 12.002 -3.99902 12.002 -11.999v-539c0 -17.333 -1.66699 -34.5 -5 -51.5s-10.5 -32.167 -21.5 -45.5s-27.5 -23.833 -49.5 -31.5s-51.333 -10.834 -88 -9.50098c-2 0 -4.83301 0.833008 -8.5 2.5s-5.83398 5.5 -6.50098 11.5l-1 16
c0 5.33301 1.16699 8.83301 3.5 10.5s5.16602 2.83398 8.49902 3.50098c24 2.66699 43.333 6.5 58 11.5s26 11.333 34 19s13.333 17 16 28s4 24.167 4 39.5v502h-202v-430c0 -8 -3.33301 -12 -10 -12h-32c-8.66699 0 -13 4 -13 12v430h-204v-430c0 -8 -3.33301 -12 -10 -12
h-32c-8.66699 0 -13 4 -13 12v430h-52c-8 0 -12 3.66699 -12 11v22c0 8 4 12 12 12h52v61c0 23.333 3 44.5 9 63.5s15.5 35.333 28.5 49s30 24.167 51 31.5s46.167 11 75.5 11c8 0 17.667 -0.333008 29 -1s23.166 -1.66699 35.499 -3s24.833 -3.33301 37.5 -6
s24.334 -6 35.001 -10c13.333 11.333 29.5 20.166 48.5 26.499s42.167 9.5 69.5 9.5c18.667 0 40.667 -1.5 66 -4.5s48.333 -8.5 69 -16.5c6 -2.66699 8.66699 -7.66699 8 -15l-3 -17c-2 -6 -7.66699 -8.66699 -17 -8c-19.333 2.66699 -40.166 5 -62.499 7s-42.5 3 -60.5 3
c-34 0 -59.833 -7.83301 -77.5 -23.5s-26.834 -43.167 -27.501 -82.5v-75h246zM357.002 565.001c0 29.333 4.99902 55.667 14.999 79c-20 2.66699 -39.333 4.66699 -58 6s-36 2 -52 2c-35.333 0 -62.166 -7.83301 -80.499 -23.5s-27.833 -43.5 -28.5 -83.5v-58h204v78z" />
    <glyph glyph-name="ff" unicode="ff" horiz-adv-x="592" 
d="M98 548c0 23.333 3 44.498 9 63.498s15.5 35.333 28.5 49s30 24.167 51 31.5s46.167 11 75.5 11c16.667 0 36.667 -1.33301 60 -4s45.666 -7.66699 66.999 -15c24.667 23.333 60.334 35 107.001 35c4.66699 0 11 -0.166992 19 -0.5s16.833 -1.16602 26.5 -2.49902
s20 -3.16602 31 -5.49902s21.5 -5.5 31.5 -9.5c8.66699 -4 12 -9.33301 10 -16l-3 -17c-2.66699 -7.33301 -9.33398 -10 -20.001 -8c-19.333 3.33301 -36.5 5.5 -51.5 6.5s-26.167 1.5 -33.5 1.5c-33.333 0 -58.166 -7.16699 -74.499 -21.5s-24.5 -38.5 -24.5 -72.5v-87h133
c8 0 12 -3.66699 12 -11v-23c0 -7.33301 -4 -11 -12 -11h-133v-430c0 -8 -3.33301 -12 -10 -12h-32c-8.66699 0 -13 4 -13 12v430h-199v-430c0 -8 -3.33301 -12 -10 -12h-32c-8.66699 0 -13 4 -13 12v430h-52c-8 0 -12 3.66699 -12 11v22c0 8 4 12 12 12h52v61zM353 575.998
c0 27.333 3.66602 49.668 10.999 67.001c-19.333 3.33301 -37.333 5.66602 -54 6.99902s-32.667 2 -48 2c-35.333 0 -62.166 -7.83301 -80.499 -23.5s-27.833 -43.5 -28.5 -83.5v-58h200v89z" />
    <glyph glyph-name="fi" unicode="fi" horiz-adv-x="472" 
d="M413 12c0 -8 -3.33398 -12 -10.001 -12h-32c-8.66699 0 -13 4 -13 12l-1 430h-204v-430c0 -8 -3.33301 -12 -10 -12h-32c-8.66699 0 -13 4 -13 12v430h-52c-8 0 -12 3.66699 -12 11v22c0 8 4 12 12 12h52v64c0 23.333 2.83301 44.5 8.5 63.5s15 35.333 28 49
s29.5 24.167 49.5 31.5s44.667 11 74 11c18.667 0 40.667 -1.5 66 -4.5s48.333 -8.5 69 -16.5c6.66699 -2.66699 9.33398 -7.66699 8.00098 -15l-3 -17c-2 -6 -7.66699 -8.66699 -17 -8c-19.333 2.66699 -40.166 5 -62.499 7s-42.5 3 -60.5 3
c-34 0 -59.833 -7.83301 -77.5 -23.5s-26.834 -43.5 -27.501 -83.5v-61h248c8 0 12 -4 12 -12v-463z" />
    <glyph glyph-name="fl" unicode="fl" horiz-adv-x="464" 
d="M408 12c0 -8 -3.66602 -12 -10.999 -12h-32c-8 0 -12 4 -12 12v636c-17.333 2 -34.666 3.83301 -51.999 5.5s-33.333 2.5 -48 2.5c-34 0 -59.833 -7.83301 -77.5 -23.5s-26.834 -43.5 -27.501 -83.5v-62h137c8.66699 0 13 -4 13 -12v-22c0 -7.33301 -4 -11 -12 -11h-138
v-430c0 -8 -3.33301 -12 -10 -12h-32c-8.66699 0 -13 4 -13 12v430h-53c-7.33301 0 -11 3.66699 -11 11v22c0 8 4 12 12 12h52v65c0 23.333 2.83301 44.5 8.5 63.5s15 35.333 28 49s29.5 24.167 49.5 31.5s44.667 11 74 11c15.333 0 33.166 -1 53.499 -3
s39.833 -5.66699 58.5 -11l30 8c8.66699 2 13 -1.66699 13 -11v-678z" />
    <glyph glyph-name="ffi" unicode="ffi" horiz-adv-x="729" 
d="M153 442v-429.999c0 -8 -3.33301 -12 -10 -12h-32c-8.66699 0 -13 4 -13 12v430h-52c-8 0 -12 3.66699 -12 11v22c0 8 4 12 12 12h52v61c0 23.333 3 44.5 9 63.5s15.5 35.333 28.5 49s30 24.167 51 31.5s46.167 11 75.5 11c8 0 17.667 -0.333008 29 -1
s23.166 -1.66699 35.499 -3s24.833 -3.33301 37.5 -6s24.334 -6 35.001 -10c13.333 11.333 29.5 20.166 48.5 26.499s42.167 9.5 69.5 9.5c18.667 0 40.667 -1.5 66 -4.5s48.333 -8.5 69 -16.5c6 -2.66699 8.66699 -7.66699 8 -15l-3 -17c-2 -6 -7.66699 -8.66699 -17 -8
c-19.333 2.66699 -40.166 5 -62.499 7s-42.5 3 -60.5 3c-34 0 -59.833 -7.83301 -77.5 -23.5s-26.834 -43.167 -27.501 -82.5v-75h246c7.33301 0 11 -4 11 -12v-463c0 -8 -3.33301 -12 -10 -12h-32c-8 0 -12 4 -12 12v430h-203v-430c0 -8 -3.33301 -12 -10 -12h-32
c-8.66699 0 -13 4 -13 12v430h-204zM357 565.001c0 29.333 4.99902 55.667 14.999 79c-20 2.66699 -39.333 4.66699 -58 6s-36 2 -52 2c-35.333 0 -62.166 -7.83301 -80.499 -23.5s-27.833 -43.5 -28.5 -83.5v-58h204v78z" />
    <glyph glyph-name="ffl" unicode="ffl" horiz-adv-x="731" 
d="M671 12c0 -8 -3.33301 -12 -10 -12h-32c-8 0 -12 4 -12 12v649c-17.333 2 -35.166 3.83301 -53.499 5.5s-34.833 2.5 -49.5 2.5c-34 0 -59.833 -7.83301 -77.5 -23.5s-26.834 -43.5 -27.501 -83.5v-75h138c8 0 12 -4 12 -12v-22c0 -7.33301 -4 -11 -12 -11h-138v-430
c0 -8 -3.33301 -12 -10 -12h-32c-8.66699 0 -13 4 -13 12v430h-201v-430c0 -8 -3.33301 -12 -10 -12h-32c-8.66699 0 -13 4 -13 12v430h-52c-8 0 -12 3.66699 -12 11v22c0 8 4 12 12 12h52v61c0 46.667 12.833 84.167 38.5 112.5s68.167 42.5 127.5 42.5
c8 0 17.333 -0.333008 28 -1s22 -1.66699 34 -3s24.167 -3.16602 36.5 -5.49902s23.833 -5.5 34.5 -9.5c13.333 11.333 29.5 20.166 48.5 26.499s41.833 9.5 68.5 9.5c15.333 0 33.5 -1 54.5 -3s40.833 -5.66699 59.5 -11l30 8c8.66699 2 13 -1.66699 13 -11v-691zM153 487
l201 0.000976562v78c0 30 5 56 15 78c-19.333 3.33301 -37.833 5.66602 -55.5 6.99902s-34.167 2 -49.5 2c-35.333 0 -62.5 -7.83301 -81.5 -23.5s-28.833 -43.5 -29.5 -83.5v-58z" />
    <glyph glyph-name="ft" unicode="ft" horiz-adv-x="556" 
d="M556 22c0.666992 -4 0.333008 -7 -1 -9s-3.33301 -3.66699 -6 -5c-4.66699 -2 -11 -4 -19 -6s-16.667 -3.83301 -26 -5.5s-19 -2.83398 -29 -3.50098s-19.333 -1 -28 -1c-18.667 0 -34 2.16699 -46 6.5s-21.5 10.666 -28.5 18.999s-12 18.666 -15 30.999
s-4.5 26.5 -4.5 42.5v351h-200v-430c0 -8 -3.33301 -12 -10 -12h-32c-8.66699 0 -13 4 -13 12v430h-52c-8 0 -12 3.66699 -12 11v22c0 8 4 12 12 12h53v82c0 46 11.5 81.333 34.5 106s59.167 37 108.5 37c4.66699 0 11 -0.166992 19 -0.5s16.833 -1.16602 26.5 -2.49902
s20 -3.16602 31 -5.49902s21.5 -5.5 31.5 -9.5c8.66699 -4 12 -9.66699 10 -17l-3 -16c-2.66699 -7.33301 -9.33398 -10 -20.001 -8c-19.333 3.33301 -36.5 5.5 -51.5 6.5s-26.167 1.5 -33.5 1.5c-33.333 0 -58.166 -7.16699 -74.499 -21.5s-24.5 -38.5 -24.5 -72.5v-80h200
v101c0 4 1 7 3 9s4.66699 3.66699 8 5l29 9c6 2 9.83301 2 11.5 0s2.5 -5.66699 2.5 -11v-113h110c5.33301 0 8.5 -0.833008 9.5 -2.5s1.5 -4.5 1.5 -8.5v-23c0 -4 -0.5 -6.83301 -1.5 -8.5s-4.16699 -2.5 -9.5 -2.5h-110v-334c0 -12 0.833008 -22.333 2.5 -31
s5 -15.5 10 -20.5s12 -8.66699 21 -11s20.833 -3.16602 35.5 -2.49902c3.33301 0 7.83301 0.166992 13.5 0.5l17.5 1c6 0.333008 11.667 0.666016 17 0.999023s10 0.833008 14 1.5c5.33301 0.666992 8.83301 0.333984 10.5 -0.999023s3.16699 -4 4.5 -8z" />
    <glyph glyph-name=".notdef" horiz-adv-x="436" 
d="M0 700h436v-700h-436v700zM368 40l-150 273l-150 -273h300zM368 660h-300l150 -273zM40 73l153 277l-153 277v-554zM396 72v557l-153 -279z" />
    <glyph glyph-name="space" unicode=" " horiz-adv-x="250" 
 />
    <glyph glyph-name="exclam" unicode="!" horiz-adv-x="208" 
d="M77 647c0 6.66699 1.16797 11 3.50098 13s6.16602 3 11.499 3h30c8.66699 0 13 -5.33301 13 -16l-13 -470c-0.666992 -6 -1.66699 -10 -3 -12s-4 -3 -8 -3h-12c-5.33301 0 -8.83301 1 -10.5 3s-2.5 6 -2.5 12zM142.001 29c0 -11.333 -2.33398 -21.166 -7.00098 -29.499
s-15.667 -12.5 -33 -12.5s-28.166 4.16699 -32.499 12.5s-6.5 18.166 -6.5 29.499c0 12 2.5 21.833 7.5 29.5s15.5 11.5 31.5 11.5c16.667 0 27.5 -3.66699 32.5 -11s7.5 -17.333 7.5 -30z" />
    <glyph glyph-name="quotedbl" unicode="&#x22;" horiz-adv-x="254" 
d="M77 488c-4.66699 0 -7.33301 2.99902 -8 8.99902l-9 155c-0.666992 7.33301 3 11 11 11h28c5.33301 0 8.33301 -1.16699 9 -3.5s1 -4.83301 1 -7.5l-10 -155c0 -3.33301 -0.5 -5.66602 -1.5 -6.99902s-3.83301 -2 -8.5 -2h-12zM162.001 487.999
c-5.33301 0 -8.33301 2.99902 -9 8.99902l-9 155c-0.666992 7.33301 3 11 11 11h28c5.33301 0 8.33301 -1.16699 9 -3.5s1 -4.83301 1 -7.5l-10 -155c0 -3.33301 -0.5 -5.66602 -1.5 -6.99902s-3.83301 -2 -8.5 -2h-11z" />
    <glyph glyph-name="numbersign" unicode="#" horiz-adv-x="540" 
d="M327 281l31 132h-130l-31 -132h130zM19 242c-6.66699 0 -9.33105 2.66699 -7.99805 8l6 20c1.33301 7.33301 6 11 14 11h122l31 132h-125c-7.33301 0 -10 2.66699 -8 8l6 20c1.33301 7.33301 6 11 14 11h122l48 201c1.33301 6.66699 5.66602 10 12.999 10h25
c5.33301 -1.33301 7.33301 -5.33301 6 -12l-48 -199h130l48 201c1.33301 6.66699 5.66602 10 12.999 10h25c5.33301 -1.33301 7.33301 -5.33301 6 -12l-48 -199h129c8.66699 0 11.667 -3.66699 9 -11l-5 -20c-2 -5.33301 -6.33301 -8 -13 -8h-129l-31 -132h129
c8.66699 0 11.667 -3.66699 9 -11l-5 -20c-2 -5.33301 -6.33301 -8 -13 -8h-129l-56 -234c-0.666992 -5.33301 -4 -8 -10 -8h-25c-4.66699 0 -7.5 1.5 -8.5 4.5s-0.833008 6.16699 0.5 9.5l54 228h-129l-56 -234c-0.666992 -5.33301 -4 -8 -10 -8h-25
c-4.66699 0 -7.5 1.5 -8.5 4.5s-0.833008 6.16699 0.5 9.5l54 228h-124z" />
    <glyph glyph-name="dollar" unicode="$" horiz-adv-x="540" 
d="M290 -87c0 -4.66699 -2.66699 -6.99805 -8 -6.99805h-27c-6 0 -9 2 -9 6v87c-32.667 0.666992 -65.167 3.16699 -97.5 7.5s-58.166 10.5 -77.499 18.5c-7.33301 2.66699 -10 8 -8 16l3 18c0.666992 5.33301 4 7.33301 10 6c15.333 -2 32.166 -3.83301 50.499 -5.5
s36.333 -3.16699 54 -4.5l47.5 -3.5c14 -1 24.333 -1.5 31 -1.5c52 0 92.167 10.167 120.5 30.5s42.5 50.166 42.5 89.499c0 24.667 -2.5 45.334 -7.5 62.001s-13.167 30.334 -24.5 41.001s-26.833 19.167 -46.5 25.5s-43.834 11.833 -72.501 16.5
c-31.333 5.33301 -59.666 11.166 -84.999 17.499s-47.333 15.5 -66 27.5s-33 27.667 -43 47s-15 44.666 -15 75.999c0 54 15.667 96.333 47 127s77 47.667 137 51v80c0 4 2.66699 6 8 6h27c6 0 9 -2.66699 9 -8v-78c10.667 0 23 -0.666992 37 -2s28 -3 42 -5
s27.667 -4.5 41 -7.5s25 -6.5 35 -10.5c3.33301 -1.33301 5.33301 -3.16602 6 -5.49902s0.666992 -5.16602 0 -8.49902l-4 -16c0 -2 -0.833008 -4.33301 -2.5 -7s-5.16699 -3.66699 -10.5 -3l-78.5 10c-27 3.33301 -56.167 5 -87.5 5c-28 0 -51.667 -3 -71 -9
s-34.833 -14.333 -46.5 -25s-20 -23.834 -25 -39.501s-7.5 -32.834 -7.5 -51.501c0 -22.667 3.16699 -40.834 9.5 -54.501s16 -24.5 29 -32.5s29.167 -14.167 48.5 -18.5s42 -8.83301 68 -13.5c30 -5.33301 57.5 -11.333 82.5 -18s46.5 -16.5 64.5 -29.5
s32.167 -30.333 42.5 -52s15.5 -49.834 15.5 -84.501c0 -31.333 -4.66699 -58.166 -14 -80.499s-22.5 -40.833 -39.5 -55.5s-37 -25.667 -60 -33s-47.833 -12 -74.5 -14v-87z" />
    <glyph glyph-name="percent" unicode="%" horiz-adv-x="342" 
d="M324 206c0 -20.667 -1.16504 -43.332 -3.49805 -67.999s-8.5 -47.5 -18.5 -68.5s-25.167 -38.667 -45.5 -53s-48.5 -21.5 -84.5 -21.5c-35.333 0 -63 6.66699 -83 20s-34.667 30.166 -44 50.499s-15 43 -17 68s-3 49.167 -3 72.5c0 16 1.16699 35.333 3.5 58
s8.16602 44.5 17.499 65.5s23.833 38.833 43.5 53.5s47.167 22 82.5 22c34.667 0 62.167 -5.83301 82.5 -17.5s35.666 -27 45.999 -46s16.833 -40.333 19.5 -64s4 -47.5 4 -71.5zM275.002 199.002c0 24.667 -0.998047 47.001 -2.99805 67.001s-6.5 37.333 -13.5 52
s-17.333 26 -31 34s-32.167 12 -55.5 12c-22 0 -39.5 -4.66699 -52.5 -14s-23 -21.666 -30 -36.999s-11.5 -32.833 -13.5 -52.5s-3 -40.167 -3 -61.5c0 -22.667 1 -43.834 3 -63.501s6.33301 -36.834 13 -51.501s16.667 -26.167 30 -34.5s31 -12.5 53 -12.5
c22.667 0 40.667 4.33301 54 13s23.666 20.5 30.999 35.5s12.166 32.167 14.499 51.5s3.5 40 3.5 62zM-53.9961 468.003c0 -20.667 -1.16504 -43.332 -3.49805 -67.999s-8.5 -47.5 -18.5 -68.5s-25.167 -38.667 -45.5 -53s-48.5 -21.5 -84.5 -21.5
c-35.333 0 -63 6.66699 -83 20s-34.667 30.166 -44 50.499s-15 43 -17 68s-3 49.167 -3 72.5c0 16 1.16699 35.333 3.5 58s8.16602 44.5 17.499 65.5s23.833 38.833 43.5 53.5s47.167 22 82.5 22c34.667 0 62.167 -5.83301 82.5 -17.5s35.666 -27 45.999 -46
s16.833 -40.333 19.5 -64s4 -47.5 4 -71.5zM-102.994 461.005c0 24.667 -0.998047 47.001 -2.99805 67.001s-6.5 37.333 -13.5 52s-17.333 26 -31 34s-32.167 12 -55.5 12c-22 0 -39.5 -4.66699 -52.5 -14s-23 -21.666 -30 -36.999s-11.5 -32.833 -13.5 -52.5
s-3 -40.167 -3 -61.5c0 -22.667 1 -43.834 3 -63.501s6.33301 -36.834 13 -51.501s16.667 -26.167 30 -34.5s31 -12.5 53 -12.5c22.667 0 40.667 4.33301 54 13s23.666 20.5 30.999 35.5s12.166 32.167 14.499 51.5s3.5 40 3.5 62zM-124.992 -13.9941
c-2 -6 -5.66504 -8.99902 -10.998 -8.99902h-26c-6.66699 0 -9 3.66699 -7 11l274 703c1.33301 3.33301 2.66602 5.66602 3.99902 6.99902s3.66602 2 6.99902 2h27c6 0 8 -3.33301 6 -10z" />
    <glyph glyph-name="ampersand" unicode="&#x26;" horiz-adv-x="675" 
d="M641 -42c-4 -6.66699 -10.0039 -8.32715 -18.0039 -4.99414c-10 4.66699 -21.5 11.167 -34.5 19.5s-26.5 17.5 -40.5 27.5s-28.167 20.833 -42.5 32.5s-27.5 23.167 -39.5 34.5c-35.333 -25.333 -72 -44.5 -110 -57.5s-75 -19.5 -111 -19.5
c-29.333 0 -56.666 3.66699 -81.999 11s-47.333 18.666 -66 33.999s-33.5 34.5 -44.5 57.5s-16.5 50.5 -16.5 82.5c0 45.333 14.333 85.833 43 121.5s70 68.834 124 99.501c-17.333 25.333 -30.833 50.166 -40.5 74.499s-14.5 45.166 -14.5 62.499
c0 20 3.16699 38.5 9.5 55.5s15.333 31.667 27 44s25.834 22.166 42.501 29.499s35.667 11 57 11c42 0 74.667 -11.833 98 -35.5s35 -52.834 35 -87.501c0 -36 -12 -67.333 -36 -94s-58 -52.667 -102 -78c26.667 -42.667 56.834 -85 90.501 -127s68.167 -80.667 103.5 -116
c32 32 59.333 69.167 82 111.5s37.334 89.833 44.001 142.5c1.33301 3.33301 2.66602 5.83301 3.99902 7.5s4 2.5 8 2.5l21 -1c4.66699 -0.666992 7.5 -2.33398 8.5 -5.00098s1.5 -5.66699 1.5 -9c-2 -28 -7.33301 -55.833 -16 -83.5s-19.334 -54 -32.001 -79
s-26.667 -48 -42 -69s-30.333 -38.5 -45 -52.5c22.667 -21.333 46.334 -41.333 71.001 -60s48.334 -34.334 71.001 -47.001c6 -4 7.33301 -8.66699 4 -14zM363.996 546.007c0 23.333 -7.66602 42.5 -22.999 57.5s-35 22.5 -59 22.5c-14.667 0 -27 -3 -37 -9
s-18 -13.5 -24 -22.5s-10.333 -18.5 -13 -28.5s-4 -19.333 -4 -28c0 -17.333 4.16699 -35.833 12.5 -55.5s20.166 -40.5 35.499 -62.5c16 8 30.833 16.5 44.5 25.5s25.5 18.5 35.5 28.5s17.833 21 23.5 33s8.5 25 8.5 39zM430.997 103.007
c-18 17.333 -36.501 36.6689 -55.501 58.002s-37.333 43.333 -55 66l-50 67c-15.667 22 -29.5 42.667 -41.5 62c-42 -23.333 -76.167 -49.333 -102.5 -78s-39.5 -62.334 -39.5 -101.001c0 -24.667 4 -45.834 12 -63.501s19 -32.167 33 -43.5s30.333 -19.833 49 -25.5
s38.334 -8.5 59.001 -8.5c30 0 61.167 5.33301 93.5 16s64.833 27.667 97.5 51z" />
    <glyph glyph-name="quotesingle" unicode="'" horiz-adv-x="175" 
d="M77 488c-4.66699 0 -7.33301 2.99902 -8 8.99902l-9 155c-0.666992 7.33301 3 11 11 11h28c5.33301 0 8.33301 -1.16699 9 -3.5s1 -4.83301 1 -7.5l-10 -155c0 -3.33301 -0.5 -5.66602 -1.5 -6.99902s-3.83301 -2 -8.5 -2h-12z" />
    <glyph glyph-name="parenleft" unicode="(" horiz-adv-x="273" 
d="M225 -90c2.66699 -2.66699 1.99707 -5.66504 -2.00293 -8.99805l-13 -7c-4.66699 -3.33301 -8.66699 -3 -12 1c-8.66699 11.333 -20.5 28.166 -35.5 50.499s-29.667 50.833 -44 85.5s-26.666 76 -36.999 124s-15.5 103 -15.5 165c0 52 5.33301 98.667 16 140
s23.167 77.833 37.5 109.5s29 58.167 44 79.5l34.5 49c4 4.66699 7.66699 5.66699 11 3l13 -7c4.66699 -2 5.33398 -5.33301 2.00098 -10c-8 -11.333 -17.667 -27 -29 -47s-22.333 -44.833 -33 -74.5s-19.834 -64.5 -27.501 -104.5s-11.5 -86 -11.5 -138
c0 -58.667 3.83301 -110.834 11.5 -156.501s16.834 -85.5 27.501 -119.5s21.834 -62 33.501 -84s21.5 -38.667 29.5 -50z" />
    <glyph glyph-name="parenright" unicode=")" horiz-adv-x="275" 
d="M222 320c0 -62 -5.16992 -117.001 -15.5029 -165.001s-22.833 -89.333 -37.5 -124s-29.5 -63.167 -44.5 -85.5s-26.833 -39.166 -35.5 -50.499c-2.66699 -4 -6.66699 -4.33301 -12 -1l-12 7c-4 3.33301 -4.66699 6.33301 -2 9c8 11.333 17.833 28 29.5 50
s22.667 50 33 84s19.333 73.833 27 119.5s11.5 97.834 11.5 156.501c0 52 -3.83301 98 -11.5 138s-16.667 74.833 -27 104.5s-21.166 54.5 -32.499 74.5s-21 35.667 -29 47c-3.33301 4.66699 -2.66602 8 2.00098 10l12 7c4 3.33301 7.66699 2.66602 11 -2.00098l34.5 -50
c15 -21.333 29.833 -47.833 44.5 -79.5s27.334 -68.167 38.001 -109.5s16 -88 16 -140z" />
    <glyph glyph-name="asterisk" unicode="*" horiz-adv-x="301" 
d="M195 532l75 -49.9971c2.66699 -1.33301 4.33398 -3 5.00098 -5s-0.333008 -5 -3 -9l-5 -9c-2.66699 -4.66699 -6.66699 -5.33398 -12 -2.00098l-78 41l-2 -87c0 -3.33301 -0.5 -5.83301 -1.5 -7.5s-3.83301 -2.5 -8.5 -2.5h-12c-6 0 -9 3 -9 9l-5 90l-81 -41
c-5.33301 -2.66699 -9.66602 -1.33398 -12.999 3.99902l-6 9c-2.66699 5.33301 -1.33398 9.33301 3.99902 12l76 49l-76 48c-5.33301 4 -6.33301 8.66699 -3 14l5 9c2.66699 5.33301 7 6.33301 13 3l81 -42l3 89c0.666992 3.33301 1.5 5.66602 2.5 6.99902s3.83301 2 8.5 2
h12c6 0 9 -3 9 -9l3 -89l78 40c5.33301 3.33301 9.66602 2 12.999 -4l5 -9c3.33301 -4.66699 2.33301 -8.66699 -3 -12z" />
    <glyph glyph-name="plus" unicode="+" horiz-adv-x="527" 
d="M239 501c0 8 3.33301 12 10 12h33c5.33301 0 8 -3.33301 8 -10v-150h150c4 0 7 -0.5 9 -1.5s3 -3.83301 3 -8.5v-33c0 -5.33301 -3.66699 -8 -11 -8h-151v-154c0 -7.33301 -2.66699 -11 -8 -11h-33c-6.66699 0 -10 4.33301 -10 13v152h-153c-6.66699 0 -10 2.66699 -10 8
v33c0 4.66699 1 7.5 3 8.5s5 1.5 9 1.5h151v148v0z" />
    <glyph glyph-name="comma" unicode="," horiz-adv-x="179" 
d="M138 16c0 -31.333 -7.16797 -59.333 -21.501 -84s-30.166 -42.667 -47.499 -54c-1.33301 -1.33301 -3.5 -2.5 -6.5 -3.5s-5.16699 -0.833008 -6.5 0.5l-12 13c-2.66699 2.66699 -1.66699 6.33398 3 11.001c10.667 9.33301 18.167 19.833 22.5 31.5s6.5 23.167 6.5 34.5
c0 10 -2 20.667 -6 32s-9.33301 21 -16 29c-1.33301 2 -2 4.66699 -2 8s2 6.66602 6 9.99902l34 28c7.33301 5.33301 14.666 5 21.999 -1c8.66699 -8 14.834 -17 18.501 -27s5.5 -19.333 5.5 -28z" />
    <glyph glyph-name="hyphen" unicode="-" horiz-adv-x="354" 
d="M45 299c-6.66699 0 -10 2.66699 -10 8v33c0 6.66699 4 10 12 10h261c8 0 12 -3.33301 12 -10v-33c0 -5.33301 -3.33301 -8 -10 -8h-265v0z" />
    <glyph glyph-name="period" unicode="." horiz-adv-x="183" 
d="M129 33c0 -11.333 -2.33398 -21.166 -7.00098 -29.499s-15.334 -12.5 -32.001 -12.5c-17.333 0 -28.166 4.16699 -32.499 12.5s-6.5 18.166 -6.5 29.499c0 12 2.5 21.833 7.5 29.5s15.5 11.5 31.5 11.5c16.667 0 27.334 -3.66699 32.001 -11s7 -17.333 7 -30z" />
    <glyph glyph-name="slash" unicode="/" horiz-adv-x="240" 
d="M51 -59c-0.666992 -5.33301 -3.99805 -7.99902 -9.99805 -7.99902h-23c-4.66699 0 -7.33398 1.5 -8.00098 4.5s-0.666992 6.16699 0 9.5l177 736c1.33301 4 2.66602 6.66699 3.99902 8s4.33301 1.66602 9 0.999023h23c5.33301 0 7 -4 5 -12l-177 -739v0z" />
    <glyph glyph-name="zero" unicode="0" horiz-adv-x="540" 
d="M500 341c0 -22.667 -0.666992 -47.1689 -2 -73.502s-4.5 -52.5 -9.5 -78.5s-12.5 -51 -22.5 -75s-23.667 -45 -41 -63s-39 -32.5 -65 -43.5s-57.333 -16.5 -94 -16.5c-36 0 -66.667 5 -92 15s-46.333 23.833 -63 41.5s-29.834 38 -39.501 61s-16.834 47.5 -21.501 73.5
s-7.5 52.5 -8.5 79.5s-1.5 53.5 -1.5 79.5c0 18 0.666992 38.5 2 61.5s4.33301 46.833 9 71.5s11.834 48.667 21.501 72s22.834 44.333 39.501 63s37.5 33.667 62.5 45s55.5 17 91.5 17c53.333 0 95.5 -9.66699 126.5 -29s54.5 -44.666 70.5 -75.999
s26.167 -66.666 30.5 -105.999s6.5 -79 6.5 -119zM443 330.998c0 42.667 -1.66895 82.001 -5.00195 118.001s-11.166 66.667 -23.499 92s-30.166 45.166 -53.499 59.499s-55 21.5 -95 21.5c-38 0 -68 -8.16699 -90 -24.5s-38.833 -38 -50.5 -65s-19.167 -58 -22.5 -93
s-5 -71.167 -5 -108.5c0 -40 1.5 -77.5 4.5 -112.5s10.333 -65.667 22 -92s28.667 -47 51 -62s52.5 -22.5 90.5 -22.5c38.667 0 69.5 7.83301 92.5 23.5s40.833 36.667 53.5 63s21 57 25 92s6 71.833 6 110.5z" />
    <glyph glyph-name="one" unicode="1" horiz-adv-x="540" 
d="M446 9c0 -6 -3.66602 -9.00098 -10.999 -9.00098h-332c-6.66699 0 -10 3 -10 9v34c0 6 3.33301 9 10 9h136v539h-120c-6.66699 0 -10 3 -10 9v16c0 6.66699 2.66699 10.667 8 12l104 30c10 3.33301 20 5 30 5h33c5.33301 0 8.66602 -1.16699 9.99902 -3.5
s2 -5.16602 2 -8.49902v-599h139c7.33301 0 11 -3 11 -9v-34z" />
    <glyph glyph-name="two" unicode="2" horiz-adv-x="540" 
d="M473 9c0 -5.33301 -3.33105 -7.99805 -9.99805 -7.99805h-405c-4.66699 0 -7.5 0.666992 -8.5 2s-1.5 3.66602 -1.5 6.99902v38c0 7.33301 0.666992 12.333 2 15s3.33301 5.33398 6 8.00098l132 127.5l136 136.5c22 23.333 40.667 46.833 56 70.5s23 51.167 23 82.5
c0 22 -1.83301 41.167 -5.5 57.5s-11.167 29.833 -22.5 40.5s-27.5 18.667 -48.5 24s-48.5 8 -82.5 8c-31.333 0 -60.5 -1.66699 -87.5 -5l-78.5 -10c-5.33301 -0.666992 -8.83301 0.166016 -10.5 2.49902s-2.83398 4.5 -3.50098 6.5l-3 17
c-0.666992 3.33301 -0.666992 6.33301 0 9s2.66699 4.66699 6 6c12 4.66699 26.167 8.66699 42.5 12s32.666 6 48.999 8s32 3.5 47 4.5s27.5 1.5 37.5 1.5c42.667 0 78 -3.83301 106 -11.5s50.167 -18.834 66.5 -33.501s27.833 -32.5 34.5 -53.5s10 -44.5 10 -70.5
c0 -22 -1.66699 -41.333 -5 -58s-8.5 -32.334 -15.5 -47.001s-16.333 -29.167 -28 -43.5s-25.5 -30.166 -41.5 -47.499l-57 -58l-54.5 -54l-63 -61.5l-83.5 -79.5h349c8 0 12 -3.66699 12 -11v-32v0z" />
    <glyph glyph-name="three" unicode="3" horiz-adv-x="540" 
d="M420 226c0 34.667 -10.1621 59.832 -30.4951 75.499s-47.833 26.167 -82.5 31.5l-118 20c-10 2 -15 7.33301 -15 16v26c0 5.33301 1 9.5 3 12.5s4 5.5 6 7.5l207 196h-323c-4 0 -7 0.5 -9 1.5s-3 3.83301 -3 8.5v34c0 5.33301 3.33301 8 10 8h371
c5.33301 0 9.16602 -0.833008 11.499 -2.5s3.5 -5.83398 3.5 -12.501v-32c0 -6 -0.166992 -10.667 -0.5 -14s-2.16602 -6.66602 -5.49902 -9.99902l-202 -192l88 -15c21.333 -4 41 -9.66699 59 -17s33.5 -17.166 46.5 -29.499s23.167 -27.166 30.5 -44.499s11 -38 11 -62
c0 -48 -5.83301 -87.5 -17.5 -118.5s-28.334 -55.5 -50.001 -73.5s-47.834 -30.5 -78.501 -37.5s-65.334 -10.5 -104.001 -10.5c-10 0 -22.333 0.5 -37 1.5s-30.334 2.5 -47.001 4.5s-32.834 4.66699 -48.501 8s-29.5 7.33301 -41.5 12
c-3.33301 1.33301 -5.33301 3.33301 -6 6s-0.666992 5.66699 0 9l3 17c0.666992 2 1.83398 4.16699 3.50098 6.5s5.16699 3.16602 10.5 2.49902l80.5 -10.5c28.333 -3.66699 58.166 -5.5 89.499 -5.5c23.333 0 46 2 68 6s41.667 12.5 59 25.5s31.333 31.5 42 55.5
s16 56 16 96z" />
    <glyph glyph-name="four" unicode="4" horiz-adv-x="540" 
d="M519 194c0 -5.33301 -3.33301 -8 -10 -8h-86v-174c0 -8 -3.66699 -12 -11 -12h-35c-5.33301 -0 -8 3.33301 -8 10v176h-341c-6.66699 0 -10 2.66699 -10 8v34c0 9.33301 3.33301 18.333 10 27l331 397c3.33301 4 6.33301 6.83301 9 8.5s6.66699 2.5 12 2.5h36
c4.66699 0 7 -2.66699 7 -8v-418h84c8 0 12 -3.66699 12 -11v-32zM369 585l-291 -348h291v348z" />
    <glyph glyph-name="five" unicode="5" horiz-adv-x="540" 
d="M121 417l207.997 -32.001c43.333 -7.33301 78.5 -22.666 105.5 -45.999s40.5 -59 40.5 -107c0 -47.333 -5.66699 -86.5 -17 -117.5s-27.5 -55.5 -48.5 -73.5s-46.667 -30.667 -77 -38s-64.5 -11 -102.5 -11c-10 0 -22.333 0.5 -37 1.5s-30 2.5 -46 4.5
s-31.833 4.66699 -47.5 8s-29.5 7.33301 -41.5 12c-3.33301 1.33301 -5.33301 3.33301 -6 6s-0.666992 5.66699 0 9l3 17c0.666992 2 1.83398 4.16699 3.50098 6.5s5.16699 3.16602 10.5 2.49902l79.5 -10.5c27.667 -3.66699 57.167 -5.5 88.5 -5.5
c23.333 0 45.833 2.33301 67.5 7s40.834 13.5 57.501 26.5s30 31.5 40 55.5s15 55.333 15 94c0 17.333 -3 32.166 -9 44.499s-14.167 22.833 -24.5 31.5s-22.333 15.334 -36 20.001s-28.167 8.33398 -43.5 11.001l-219 35c-7.33301 1.33301 -12.666 3.5 -15.999 6.5
s-4.33301 8.5 -3 16.5l39 261c0.666992 5.33301 2 8.5 4 9.5s5.66699 1.5 11 1.5h312c6.66699 0 10 -2.33301 10 -7v-35c0 -4.66699 -1 -7.5 -3 -8.5s-5 -1.5 -9 -1.5h-279z" />
    <glyph glyph-name="six" unicode="6" horiz-adv-x="540" 
d="M501 181c0 -34.667 -6.00098 -64 -18.001 -88s-28.333 -43.5 -49 -58.5s-45 -26 -73 -33s-58.333 -10.5 -91 -10.5c-56.667 0 -100.334 7.5 -131.001 22.5s-53 36.333 -67 64s-22.167 60.834 -24.5 99.501s-3.5 81.667 -3.5 129c0 44 2.33301 87.667 7 131
s15.5 82.333 32.5 117s42 62.667 75 84s77.5 32 133.5 32c10 0 21.833 -0.5 35.5 -1.5s28.167 -2.5 43.5 -4.5s30.5 -4.66699 45.5 -8s28.5 -7.33301 40.5 -12c3.33301 -1.33301 5.33301 -3.33301 6 -6s0.666992 -5.66699 0 -9l-3 -16
c-0.666992 -2.66699 -1.83398 -5.16699 -3.50098 -7.5s-5.16699 -3.16602 -10.5 -2.49902l-73.5 10c-23.667 3.33301 -51.167 5 -82.5 5c-38.667 0 -70 -6.83301 -94 -20.5s-42.667 -31.834 -56 -54.501s-22.666 -49.167 -27.999 -79.5s-8.33301 -61.833 -9 -94.5
c28.667 3.33301 53.334 6 74.001 8s39.334 3.66699 56.001 5s32.167 2.16602 46.5 2.49902s29.5 0.5 45.5 0.5c60 0 104.333 -16 133 -48s43 -84 43 -156zM442.999 179c0 24 -2 45.502 -6 64.502s-11 35.167 -21 48.5s-23.5 23.5 -40.5 30.5s-38.5 10.5 -64.5 10.5
c-19.333 0 -46.333 -1.33301 -81 -4s-77.334 -7 -128.001 -13v-23c0 -37.333 0.833008 -71.333 2.5 -102s7.83398 -57.334 18.501 -80.001s27.667 -40.167 51 -52.5s56.666 -18.5 99.999 -18.5c18 0 37 1.66699 57 5s38.333 10 55 20s30.334 24.167 41.001 42.5
s16 42.166 16 71.499z" />
    <glyph glyph-name="seven" unicode="7" horiz-adv-x="540" 
d="M484 622c0 -1.33301 -0.5 -4.33105 -1.5 -8.99805s-2.16699 -8.66699 -3.5 -12l-293 -600c-3.33301 -6.66699 -7 -8.33398 -11 -5.00098l-37 16c-6 3.33301 -7.33301 8.66602 -4 15.999l289 583h-375c-6.66699 0 -10 3 -10 9v32c0 7.33301 4 11 12 11h422
c8 0 12 -3.66699 12 -11v-30z" />
    <glyph glyph-name="eight" unicode="8" horiz-adv-x="540" 
d="M501 173c0 -55.333 -20.501 -99.4961 -61.501 -132.496s-99.167 -49.5 -174.5 -49.5c-76 0 -133.5 14.333 -172.5 43s-58.5 74.334 -58.5 137.001c0 94.667 43.333 154.667 130 180c-31.333 8 -57.166 24.5 -77.499 49.5s-30.5 54.5 -30.5 88.5
c0 61.333 18 107.166 54 137.499s88.667 45.5 158 45.5c66 0 117.333 -14.667 154 -44s55 -75 55 -137c0 -14.667 -2.5 -29.334 -7.5 -44.001s-12.333 -28.334 -22 -41.001s-21.5 -23.834 -35.5 -33.501s-30 -16.834 -48 -21.501c42 -10 75.333 -29.5 100 -58.5
s37 -68.833 37 -119.5zM417.999 495.004c0 24 -3.83496 44.167 -11.502 60.5s-18.167 29.5 -31.5 39.5s-29.166 17.333 -47.499 22s-38.166 7 -59.499 7c-56.667 0 -96.167 -10.667 -118.5 -32s-33.5 -53.666 -33.5 -96.999c0 -20 4.33301 -36.833 13 -50.5s20 -25 34 -34
s30 -16.333 48 -22s36.333 -10.834 55 -15.501c52.667 10 91.167 24 115.5 42s36.5 44.667 36.5 80zM440.997 171.004c0 26.667 -4.49805 48.6709 -13.498 66.0039s-21.667 31.666 -38 42.999s-35.5 20.666 -57.5 27.999s-46 14.666 -72 21.999
c-18.667 -4 -37.834 -8.83301 -57.501 -14.5s-37.5 -13.667 -53.5 -24s-29.167 -24.5 -39.5 -42.5s-15.5 -41.333 -15.5 -70c0 -28 5 -50.833 15 -68.5s23 -31.834 39 -42.501s34.167 -18 54.5 -22s41.166 -6 62.499 -6c20 0 40.5 2.33301 61.5 7s40 12.167 57 22.5
s30.833 23.833 41.5 40.5s16 37 16 61z" />
    <glyph glyph-name="nine" unicode="9" horiz-adv-x="540" 
d="M41 480c0 34 6 63.166 18 87.499s28.333 44 49 59s44.834 26 72.501 33s57.5 10.5 89.5 10.5c56.667 0 100.5 -7.66699 131.5 -23s53.667 -36.666 68 -63.999s22.666 -60.5 24.999 -99.5s3.5 -81.833 3.5 -128.5c0 -44 -2.5 -87.667 -7.5 -131s-16 -82.333 -33 -117
s-41.833 -62.667 -74.5 -84s-77 -32 -133 -32c-10 0 -22 0.5 -36 1.5s-28.5 2.5 -43.5 4.5s-30 4.66699 -45 8s-28.5 7.33301 -40.5 12c-3.33301 1.33301 -5.33301 3.33301 -6 6s-0.666992 5.66699 0 9l3 16c0.666992 2 1.83398 4.33301 3.50098 7s5.16699 3.66699 10.5 3
l73 -10c23.333 -3.33301 51 -5 83 -5c38.667 0 69.834 6.66699 93.501 20s42.334 31.5 56.001 54.5s23 49.5 28 79.5s8.16699 61.667 9.5 95c-28.667 -3.33301 -53.334 -6 -74.001 -8s-39.334 -3.66699 -56.001 -5s-32.334 -2.33301 -47.001 -3s-30 -1 -46 -1
c-59.333 0 -103.333 16.167 -132 48.5s-43 84.5 -43 156.5zM99 480.999c0 -24 1.83496 -45.333 5.50195 -64s10.5 -34.667 20.5 -48s23.5 -23.5 40.5 -30.5s38.5 -10.5 64.5 -10.5c20 0 47.167 1.33301 81.5 4s77.166 7 128.499 13v23c0 36.667 -0.833008 70.5 -2.5 101.5
s-7.83398 57.667 -18.501 80s-27.667 39.833 -51 52.5s-56.666 19 -99.999 19c-18 0 -37 -1.66699 -57 -5s-38.333 -10 -55 -20s-30.334 -24.167 -41.001 -42.5s-16 -42.5 -16 -72.5z" />
    <glyph glyph-name="colon" unicode=":" horiz-adv-x="179" 
d="M129 401c0 -11.333 -2.33398 -21.166 -7.00098 -29.499s-15.334 -12.5 -32.001 -12.5c-17.333 0 -28.166 4.16699 -32.499 12.5s-6.5 18.166 -6.5 29.499s2.5 21 7.5 29s15.5 12 31.5 12c16.667 0 27.334 -3.66699 32.001 -11s7 -17.333 7 -30zM128.999 33
c0 -11.333 -2.33398 -21.166 -7.00098 -29.499s-15.334 -12.5 -32.001 -12.5c-17.333 0 -28.166 4.16699 -32.499 12.5s-6.5 18.166 -6.5 29.499c0 12 2.5 21.833 7.5 29.5s15.5 11.5 31.5 11.5c16.667 0 27.334 -3.66699 32.001 -11s7 -17.333 7 -30z" />
    <glyph glyph-name="semicolon" unicode=";" horiz-adv-x="179" 
d="M129 401c0 -11.333 -2.33398 -21.166 -7.00098 -29.499s-15.334 -12.5 -32.001 -12.5c-17.333 0 -28.166 4.16699 -32.499 12.5s-6.5 18.166 -6.5 29.499s2.5 21 7.5 29s15.5 12 31.5 12c16.667 0 27.334 -3.66699 32.001 -11s7 -17.333 7 -30zM129.999 16
c0 -31.333 -7.16797 -59.332 -21.501 -83.999s-30.166 -42.667 -47.499 -54c-1.33301 -1.33301 -3.5 -2.5 -6.5 -3.5s-5.16699 -0.833008 -6.5 0.5l-12 13c-2.66699 2.66699 -1.66699 6.33398 3 11.001c10.667 9.33301 18.167 19.666 22.5 30.999s6.5 23 6.5 35
c0 10.667 -2 21.5 -6 32.5s-9.33301 20.5 -16 28.5c-1.33301 2 -2 4.66699 -2 8s2 6.66602 6 9.99902l34 28c7.33301 5.33301 14.666 5 21.999 -1c8.66699 -8 14.834 -17 18.501 -27s5.5 -19.333 5.5 -28z" />
    <glyph glyph-name="less" unicode="&#x3c;" horiz-adv-x="527" 
d="M452 530c0 -5.33301 -1 -9.16504 -3 -11.498s-4.66699 -4.5 -8 -6.5l-300 -182v-3l298 -196c4 -2 7.16699 -4 9.5 -6s3.5 -5.66699 3.5 -11v-29c0 -10.667 -4.33301 -13.667 -13 -9l-353 227c-3.33301 2 -5.83301 4 -7.5 6s-2.5 5.66699 -2.5 11v18c0 6 1 10.167 3 12.5
s4.66699 4.16602 8 5.49902l354 214c7.33301 3.33301 11 0.666016 11 -8.00098v-32z" />
    <glyph glyph-name="equal" unicode="=" horiz-adv-x="527" 
d="M439 443c4 0 7 -0.5 9 -1.5s3 -3.83301 3 -8.5v-33c0 -5.33301 -3.66699 -8 -11 -8h-355c-6.66699 0 -10 2.66699 -10 8v33c0 4.66699 1 7.5 3 8.5s5 1.5 9 1.5h352zM440 271c4 0 7 -0.5 9 -1.5s3 -3.83301 3 -8.5v-33c0 -5.33301 -3.66699 -8 -11 -8h-355
c-6.66699 0 -10 2.66699 -10 8v33c0 4.66699 1 7.5 3 8.5s5 1.5 9 1.5h352z" />
    <glyph glyph-name="greater" unicode="&#x3e;" horiz-adv-x="527" 
d="M76 562c0 8.66699 3.66699 11.333 11 8l354 -214c3.33301 -1.33301 6 -3.16602 8 -5.49902s3 -6.5 3 -12.5v-18c0 -5.33301 -0.833008 -9 -2.5 -11s-4.16699 -4 -7.5 -6l-353 -227c-8.66699 -4.66699 -13 -1.66699 -13 9v29c0 5.33301 1.16699 9 3.5 11s5.5 4 9.5 6
l298 196v3l-300 182c-3.33301 2 -6 4.16699 -8 6.5s-3 6.16602 -3 11.499v32z" />
    <glyph glyph-name="question" unicode="?" horiz-adv-x="348" 
d="M328 526c0 -16 -2.33203 -30.332 -6.99902 -42.999s-10.834 -23.834 -18.501 -33.501s-16.167 -18.5 -25.5 -26.5s-18.666 -15.333 -27.999 -22l-41.5 -33c-13 -10.667 -24.333 -22.5 -34 -35.5s-17.334 -27.333 -23.001 -43s-8.5 -33.5 -8.5 -53.5
c0 -3.33301 -0.166992 -7.66602 -0.5 -12.999s-0.5 -11.166 -0.5 -17.499s0.166992 -12.333 0.5 -18s0.5 -10.5 0.5 -14.5c0 -7.33301 -3.33301 -11 -10 -11h-24c-8 0 -12.333 3.33301 -13 10c-2 14.667 -3 28.5 -3 41.5v32.5c0 20.667 3.16699 39.5 9.5 56.5s15 33 26 48
s23.5 28.833 37.5 41.5s28.667 25 44 37l26 20.5c8 6.33301 15 13 21 20s10.667 14.667 14 23s5 18.166 5 29.499c0 37.333 -11 63.5 -33 78.5s-57 22.5 -105 22.5c-15.333 0 -30.833 -0.666992 -46.5 -2l-46.5 -4c-5.33301 0 -8.83301 1.16699 -10.5 3.5
s-2.5 4.83301 -2.5 7.5l-3 16c-1.33301 7.33301 1 12.333 7 15c15.333 5.33301 32.5 9.16602 51.5 11.499s38.167 3.5 57.5 3.5c61.333 0 107.333 -12.667 138 -38s46 -62 46 -110zM167.001 33.001c0 -11.333 -2.33398 -21.166 -7.00098 -29.499
s-15.334 -12.5 -32.001 -12.5c-17.333 0 -28.166 4.16699 -32.499 12.5s-6.5 18.166 -6.5 29.499c0 12 2.5 21.833 7.5 29.5s15.5 11.5 31.5 11.5c16.667 0 27.334 -3.66699 32.001 -11s7 -17.333 7 -30z" />
    <glyph glyph-name="at" unicode="@" horiz-adv-x="797" 
d="M759 350c0 -33.333 -4.50293 -62.667 -13.5029 -88s-20.833 -46.666 -35.5 -63.999s-31.5 -30.5 -50.5 -39.5s-38.167 -13.5 -57.5 -13.5c-34.667 0 -60.334 5.5 -77.001 16.5s-28.334 27.833 -35.001 50.5c-24.667 -14 -48.334 -25.5 -71.001 -34.5s-49 -13.5 -79 -13.5
c-32.667 0 -56.334 8.66699 -71.001 26s-22 41 -22 71c0 42 9.83301 72.833 29.5 92.5s52.5 29.5 98.5 29.5h46c12 0 24.167 -0.166992 36.5 -0.5s21.5 -0.166016 27.5 0.500977v30c0 13.333 -0.833008 24.833 -2.5 34.5s-5.5 17.667 -11.5 24s-14.667 11 -26 14
s-26.666 4.5 -45.999 4.5c-14 0 -30.5 -0.333008 -49.5 -1s-37.167 -2.33398 -54.5 -5.00098c-7.33301 -1.33301 -11.666 -0.166016 -12.999 3.50098s-2.66602 8.16699 -3.99902 13.5c-2 8 1 13.333 9 16c14.667 5.33301 33.334 9.16602 56.001 11.499s43 3.5 61 3.5
c28.667 0 51.334 -3.33301 68.001 -10s29.334 -15.834 38.001 -27.501s14.167 -25.167 16.5 -40.5s3.5 -32 3.5 -50v-159c0 -6.66699 0.666992 -13.834 2 -21.501s4.5 -14.667 9.5 -21s12 -11.5 21 -15.5s21.5 -6 37.5 -6c18 0 34.167 4.16699 48.5 12.5s26.833 20 37.5 35
s18.834 33 24.501 54s8.5 43.833 8.5 68.5c0 46 -6.83301 87.333 -20.5 124s-33.334 67.667 -59.001 93s-56.834 44.833 -93.501 58.5s-78 20.5 -124 20.5c-47.333 0 -91.333 -8 -132 -24s-76.167 -38 -106.5 -66s-54.166 -61 -71.499 -99s-26 -79.333 -26 -124
c0 -47.333 8.16699 -90.5 24.5 -129.5s39 -72.167 68 -99.5s63.667 -48.5 104 -63.5s84.5 -22.5 132.5 -22.5c2.66699 0 8 0.166992 16 0.5s17.333 0.833008 28 1.5s21.834 1.83398 33.501 3.50098s22.5 3.5 32.5 5.5c2.66699 0.666992 5 0.666992 7 0
s3.66699 -2.66699 5 -6l3 -10c2 -4.66699 0.666992 -8.33398 -4 -11.001c-15.333 -7.33301 -34.833 -12.5 -58.5 -15.5s-46.834 -4.5 -69.501 -4.5c-52 0 -100.167 8.33301 -144.5 25s-82.5 40.334 -114.5 71.001s-57.167 67.5 -75.5 110.5s-27.5 90.833 -27.5 143.5
c0 50.667 10 97.5 30 140.5s47 80 81 111s73.833 55.333 119.5 73s94.167 26.5 145.5 26.5c54 0 102 -8 144 -24s77.333 -38.667 106 -68s50.334 -64.5 65.001 -105.5s22 -86.5 22 -136.5zM484.997 344.999l-117 0.000976562c-25.333 0 -44.333 -5.33301 -57 -16
s-19 -32.334 -19 -65.001c0 -24 4.33301 -40.167 13 -48.5s25 -12.5 49 -12.5c10.667 0 22.334 1.66699 35.001 5s25.167 7.33301 37.5 12s23.666 9.5 33.999 14.5s18.5 9.16699 24.5 12.5v98z" />
    <glyph glyph-name="A" unicode="A" horiz-adv-x="532" 
d="M464 0c-7.33301 0 -11.999 3.33398 -13.999 10.001l-53 173h-267l-54 -169c-2 -6 -4.5 -9.83301 -7.5 -11.5s-7.16699 -2.5 -12.5 -2.5h-28c-7.33301 0 -9.66602 4 -6.99902 12l206 636c1.33301 5.33301 3 9.16602 5 11.499s5.66699 3.5 11 3.5h42
c5.33301 0 9.16602 -1.5 11.499 -4.5s4.16602 -6.5 5.49902 -10.5l208 -638c2.66699 -6.66699 1 -10 -5 -10h-41zM293.001 513.001l-13.5 44.5c-3 9.66699 -5.16699 17 -6.5 22l-3.5 13c-1 3.66699 -2.5 9.83398 -4.5 18.501h-2c-2 -8.66699 -3.5 -14.834 -4.5 -18.501
s-2.33301 -8 -4 -13l-7 -21.5l-13.5 -44l-88 -281h235z" />
    <glyph glyph-name="B" unicode="B" horiz-adv-x="546" 
d="M501 177c0 -27.333 -4.49902 -51.833 -13.499 -73.5s-21.333 -40.167 -37 -55.5s-34 -27.166 -55 -35.499s-43.167 -12.5 -66.5 -12.5h-236c-9.33301 0 -15.166 1.16699 -17.499 3.5s-3.5 6.16602 -3.5 11.499v632c0 4.66699 1 8.5 3 11.5s6.33301 4.5 13 4.5h207
c63.333 0 110.166 -15.333 140.499 -46s45.5 -70.334 45.5 -119.001c0 -12 -1.16699 -25 -3.5 -39s-6.83301 -28 -13.5 -42s-16 -27.167 -28 -39.5s-27.667 -22.5 -47 -30.5c22 -6 40.167 -15.333 54.5 -28s25.666 -27 33.999 -43s14.333 -32.667 18 -50
s5.5 -33.666 5.5 -48.999zM421.001 491c0 35.333 -11.167 64.167 -33.5 86.5s-56.833 33.5 -103.5 33.5h-155v-243h155c46.667 0 81.167 11.5 103.5 34.5s33.5 52.5 33.5 88.5zM441.001 184.001c0 17.333 -2.66797 34.1689 -8.00098 50.502s-13.666 30.833 -24.999 43.5
s-25.5 22.834 -42.5 30.501s-37.5 11.5 -61.5 11.5h-175v-270h175c26.667 0 48.834 3.66699 66.501 11s31.667 17.166 42 29.499s17.666 26.666 21.999 42.999s6.5 33.166 6.5 50.499z" />
    <glyph glyph-name="C" unicode="C" horiz-adv-x="512" 
d="M120 324c0 -34 2.16895 -67.8379 6.50195 -101.505s13.166 -63.667 26.499 -90s32.166 -47.666 56.499 -63.999s56.833 -24.5 97.5 -24.5c32 0 61.5 1.66699 88.5 5l78.5 10c5.33301 0.666992 8.66602 -0.166016 9.99902 -2.49902s2.33301 -4.5 3 -6.5l4 -17
c0.666992 -3.33301 0.666992 -6.33301 0 -9s-2.66699 -4.66699 -6 -6c-12 -4.66699 -26 -8.66699 -42 -12s-32.333 -6 -49 -8s-32.5 -3.5 -47.5 -4.5s-27.5 -1.5 -37.5 -1.5c-50.667 0 -92 9 -124 27s-57.167 42.167 -75.5 72.5s-30.833 65.5 -37.5 105.5
s-10 82.333 -10 127c0 45.333 3.16699 88.833 9.5 130.5s18.5 78.5 36.5 110.5s43 57.5 75 76.5s74 28.5 126 28.5c10 0 22.5 -0.5 37.5 -1.5s30.833 -2.5 47.5 -4.5s33 -4.66699 49 -8s30 -7.33301 42 -12c3.33301 -1.33301 5.33301 -3.33301 6 -6s0.666992 -5.66699 0 -9
l-4 -16c-0.666992 -2.66699 -1.66699 -5.16699 -3 -7.5s-4.66602 -3.16602 -9.99902 -2.49902l-78.5 10c-27 3.33301 -56.5 5 -88.5 5c-42.667 0 -76.5 -8.33301 -101.5 -25s-43.833 -38.667 -56.5 -66s-20.667 -58.666 -24 -93.999s-5 -71.666 -5 -108.999z" />
    <glyph glyph-name="D" unicode="D" horiz-adv-x="596" 
d="M534 333c0 -47.333 -3.66699 -91.332 -11 -131.999s-20.833 -75.834 -40.5 -105.501s-46.334 -53 -80.001 -70s-76.834 -25.5 -129.501 -25.5h-181c-8.66699 0 -14.167 1.16699 -16.5 3.5s-3.5 6.16602 -3.5 11.499v632c0 4.66699 1 8.5 3 11.5s6.33301 4.5 13 4.5h185
c52 0 94.833 -8.5 128.5 -25.5s60.334 -40.167 80.001 -69.5s33.334 -64.166 41.001 -104.499s11.5 -83.833 11.5 -130.5zM474 325.001c0 48 -3.50098 88.3311 -10.501 120.998s-16.167 59.5 -27.5 80.5s-24.166 37.333 -38.499 49s-29 20 -44 25s-29.5 8 -43.5 9
s-26.333 1.5 -37 1.5h-143v-559h135c9.33301 0 21 0.166992 35 0.5s28.667 2.83301 44 7.5s30.833 12.334 46.5 23.001s29.667 26.167 42 46.5s22.333 46.333 30 78s11.5 70.834 11.5 117.501z" />
    <glyph glyph-name="E" unicode="E" horiz-adv-x="476" 
d="M126 319v-267.002h300c6 0 10 -1.16699 12 -3.5s3 -6.16602 3 -11.499v-24c0 -5.33301 -1 -8.83301 -3 -10.5s-6 -2.5 -12 -2.5h-342c-6 0 -10 0.833008 -12 2.5s-3 5.16699 -3 10.5v636c0 4.66699 1 8.16699 3 10.5s6 3.5 12 3.5h335c6 0 10 -1 12 -3s3 -5.33301 3 -10
v-25c0 -5.33301 -1 -9 -3 -11s-6 -3 -12 -3h-293v-241h263c6 0 10 -0.833008 12 -2.5s3 -5.16699 3 -10.5v-23c0 -5.33301 -1 -9.16602 -3 -11.499s-6 -3.5 -12 -3.5h-263z" />
    <glyph glyph-name="F" unicode="F" horiz-adv-x="458" 
d="M382 370c6 0 10 -0.833984 12 -2.50098s3 -5.16699 3 -10.5v-23c0 -5.33301 -1 -9.16602 -3 -11.499s-6 -3.5 -12 -3.5h-253l-1 -304c0 -6 -0.833008 -10 -2.5 -12s-5.16699 -3 -10.5 -3h-27c-5.33301 0 -9.33301 1 -12 3s-4 6 -4 12v635c0 4.66699 1 8 3 10s6 3 12 3
h330c6 0 10 -1 12 -3s3 -5.33301 3 -10v-25c0 -5.33301 -1 -9 -3 -11s-6 -3 -12 -3h-288v-241h253v0z" />
    <glyph glyph-name="G" unicode="G" horiz-adv-x="578" 
d="M494 15c-50.667 -14.667 -104.003 -22.002 -160.003 -22.002c-48.667 0 -90 7 -124 21s-61.833 34.833 -83.5 62.5s-37.5 62.167 -47.5 103.5s-15 89.666 -15 144.999c0 45.333 3.33301 88.833 10 130.5s19.167 78.334 37.5 110.001s43.5 57 75.5 76
s73.667 28.5 125 28.5c10 0 22.5 -0.5 37.5 -1.5s30.833 -2.5 47.5 -4.5s33 -4.66699 49 -8s30 -7.33301 42 -12c3.33301 -1.33301 5.33301 -3.33301 6 -6s0.666992 -5.66699 0 -9l-4 -16c-0.666992 -2.66699 -1.66699 -5.16699 -3 -7.5
s-4.66602 -3.16602 -9.99902 -2.49902l-78.5 10c-27 3.33301 -56.5 5 -88.5 5c-41.333 0 -74.166 -8.33301 -98.499 -25s-43 -38.667 -56 -66s-21.5 -58.666 -25.5 -93.999s-6 -71.666 -6 -108.999s3 -73 9 -107s17.167 -64 33.5 -90s38.5 -46.667 66.5 -62s64 -23 108 -23
c18 0 38 2.33301 60 7s41 10 57 16v227h-94c-6 0 -10 1.16699 -12 3.5s-3 6.16602 -3 11.499v25c0 5.33301 1 8.83301 3 10.5s6 2.5 12 2.5h137c10.667 0 16 -5 16 -15l1 -284c0 -9.33301 -1.66699 -16 -5 -20s-9.66602 -7.66699 -18.999 -11z" />
    <glyph glyph-name="H" unicode="H" horiz-adv-x="580" 
d="M128 15c0 -6 -0.833008 -10 -2.5 -12s-5.16699 -3 -10.5 -3h-28c-5.33301 0 -9.16602 1 -11.499 3s-3.5 6 -3.5 12v632c0 6.66699 1.16699 11 3.5 13s6.16602 3 11.499 3h28c8.66699 0 13 -5.33301 13 -16v-268h326v268c0 6.66699 1 11 3 13s5.66699 3 11 3h28
c8.66699 0 13 -5.33301 13 -16v-632c0 -6 -0.833008 -10 -2.5 -12s-5.16699 -3 -10.5 -3h-28c-5.33301 0 -9 1 -11 3s-3 6 -3 12v310h-326v-310v0z" />
    <glyph glyph-name="I" unicode="I" horiz-adv-x="234" 
d="M89 647c0 6.66699 1.16699 11 3.5 13s6.16602 3 11.499 3h28c8.66699 0 13 -5.33301 13 -16v-632c0 -6 -0.833008 -10 -2.5 -12s-5.16699 -3 -10.5 -3h-28c-5.33301 0 -9.16602 1 -11.499 3s-3.5 6 -3.5 12v632v0z" />
    <glyph glyph-name="J" unicode="J" horiz-adv-x="412" 
d="M322 154c0 -26 -3.16992 -48.999 -9.50293 -68.999s-16.666 -37 -30.999 -51s-33 -24.667 -56 -32s-51.167 -11 -84.5 -11c-26.667 0 -49.167 1.66699 -67.5 5s-35.166 8 -50.499 14c-5.33301 2.66699 -8.5 5.66699 -9.5 9s-0.833008 6.33301 0.5 9l4 18
c2 5.33301 6 7.66602 12 6.99902c16.667 -2.66699 33.167 -4.66699 49.5 -6s34.5 -2 54.5 -2c26 0 47.333 2.5 64 7.5s29.834 12.5 39.501 22.5s16.5 22.167 20.5 36.5s6 30.833 6 49.5v485c0 11.333 5.33301 17 16 17h27c10 0 15 -5.66699 15 -17v-492v0z" />
    <glyph glyph-name="K" unicode="K" horiz-adv-x="527" 
d="M516 9c1.33301 -2 1.5 -4 0.5 -6s-3.5 -3 -7.5 -3h-38c-10 0 -16.667 3.66699 -20 11l-197 329l-126 -157v-168c0 -6 -0.833008 -10 -2.5 -12s-5.16699 -3 -10.5 -3h-28c-5.33301 0 -9.16602 1 -11.499 3s-3.5 6 -3.5 12v632c0 6.66699 1.16699 11 3.5 13
s6.16602 3 11.499 3h28c8.66699 0 13 -5.33301 13 -16v-390l84 109l232 287c2.66699 3.33301 5 5.83301 7 7.5s6.33301 2.5 13 2.5h40c3.33301 0 5.5 -0.833008 6.5 -2.5s0.166992 -4.16699 -2.5 -7.5l-218 -269l226 -375v0z" />
    <glyph glyph-name="L" unicode="L" horiz-adv-x="466" 
d="M452 13c0 -5.33301 -0.999023 -8.83398 -2.99902 -10.501s-6 -2.5 -12 -2.5h-350c-6 0 -10 0.833008 -12 2.5s-3 5.16699 -3 10.5v634c0 6.66699 1.16699 11 3.5 13s6.16602 3 11.499 3h29c8.66699 0 13 -5.33301 13 -16v-595h308c6 0 10 -1.16699 12 -3.5
s3 -6.16602 3 -11.499v-24v0z" />
    <glyph glyph-name="M" unicode="M" horiz-adv-x="723" 
d="M650 15c0 -6 -0.835938 -10.001 -2.50293 -12.001s-5.16699 -3 -10.5 -3h-27c-5.33301 0 -9.16602 1 -11.499 3s-3.5 6 -3.5 12v531l-3 1l-38 -88l-165 -344c-3.33301 -7.33301 -8.33301 -11 -15 -11h-25c-7.33301 0 -12.666 3.33301 -15.999 10l-170 353l-34 79h-3v-531
c0 -6 -0.833008 -10 -2.5 -12s-5.16699 -3 -10.5 -3h-25c-5.33301 0 -9.16602 1 -11.499 3s-3.5 6 -3.5 12v636c0 8 3.33301 12 10 12h33c6 0 10 -0.666992 12 -2s4 -4.66602 6 -9.99902l175 -372l52 -116h2l53 118l175 368c2.66699 5.33301 5.5 9 8.5 11s7.83301 3 14.5 3
h25c7.33301 0 11 -4 11 -12v-636v0z" />
    <glyph glyph-name="N" unicode="N" horiz-adv-x="613" 
d="M542 14c0 -9.33301 -4.00293 -13.999 -12.0029 -13.999h-25c-7.33301 0 -12.666 1 -15.999 3s-6.66602 5.66699 -9.99902 11l-289 451l-64 104h-3l1 -554c0 -6 -0.833008 -10 -2.5 -12s-5.16699 -3 -10.5 -3h-25c-5.33301 0 -9.16602 1 -11.499 3s-3.5 6 -3.5 12v636
c0 3.33301 1 6.16602 3 8.49902s5 3.5 9 3.5h29c6 0 10.667 -1.33301 14 -4s6.33301 -5.66699 9 -9l297 -465l55 -86h2l1 548c0 6.66699 1 11 3 13s5.66699 3 11 3h24c8.66699 0 13 -5.33301 13 -16l1 -633v0z" />
    <glyph glyph-name="O" unicode="O" horiz-adv-x="626" 
d="M562 341c0 -40.667 -2.32812 -81.665 -6.99512 -122.998s-15.667 -78.833 -33 -112.5s-42.833 -61.167 -76.5 -82.5s-79.167 -32 -136.5 -32c-56.667 0 -101.334 10.667 -134.001 32s-57.334 48.833 -74.001 82.5s-27.334 71.167 -32.001 112.5s-7 82.333 -7 123
c0 21.333 1 44.166 3 68.499s6 48.833 12 73.5s14.5 48.334 25.5 71.001s25.667 42.667 44 60s40.666 31.166 66.999 41.499s58.166 15.5 95.499 15.5c55.333 0 99.666 -9.5 132.999 -28.5s58.833 -44 76.5 -75s29.334 -66.333 35.001 -106s8.5 -79.834 8.5 -120.501z
M506.005 331.002c0 44.667 -2.99707 85 -8.99707 121s-16.333 66.667 -31 92s-34.834 45 -60.501 59s-57.834 21 -96.501 21c-36.667 0 -67.167 -7.33301 -91.5 -22s-43.666 -35 -57.999 -61s-24.5 -56.833 -30.5 -92.5s-9 -74.834 -9 -117.501
c0 -41.333 2.83301 -79.666 8.5 -114.999s15.667 -66 30 -92s33.666 -46.5 57.999 -61.5s55.166 -22.5 92.499 -22.5s68.5 7 93.5 21s45.167 33.667 60.5 59s26.333 56 33 92s10 75.667 10 119z" />
    <glyph glyph-name="P" unicode="P" horiz-adv-x="492" 
d="M472 475c0 -24 -3.66699 -47.667 -11 -71s-18.833 -44.333 -34.5 -63s-35.667 -33.834 -60 -45.501s-53.833 -17.5 -88.5 -17.5h-150v-263c0 -6 -1 -10 -3 -12s-5.66699 -3 -11 -3h-28c-5.33301 0 -9 1 -11 3s-3 6 -3 12v635c0 4.66699 1 8 3 10s6 3 12 3h188
c28 0 54 -4 78 -12s44.833 -19.833 62.5 -35.5s31.5 -35.167 41.5 -58.5s15 -50.666 15 -81.999zM413 473c0 48 -14 83.1689 -42 105.502s-64 33.166 -108 32.499h-135v-285h149c8 0 19.667 1.5 35 4.5s30.5 9.66699 45.5 20s28 25.166 39 44.499s16.5 45.333 16.5 78z" />
    <glyph glyph-name="Q" unicode="Q" horiz-adv-x="625" 
d="M309 -9c-56.667 0 -101.329 10.665 -133.996 31.998s-57.334 48.833 -74.001 82.5s-27.334 71.167 -32.001 112.5s-7 82.333 -7 123c0 21.333 1 44.166 3 68.499s6 48.833 12 73.5s14.5 48.334 25.5 71.001s25.667 42.667 44 60s40.666 31.166 66.999 41.499
s58.166 15.5 95.499 15.5c55.333 0 99.666 -9.5 132.999 -28.5s58.833 -44 76.5 -75s29.334 -66.333 35.001 -106s8.5 -79.834 8.5 -120.501c0 -31.333 -1.33301 -63.166 -4 -95.499s-8.5 -63 -17.5 -92s-21.833 -55.5 -38.5 -79.5s-39.334 -43 -68.001 -57l134 -35
c5.33301 -1.33301 8.33301 -3.66602 9 -6.99902s0.333984 -6.66602 -0.999023 -9.99902l-12 -29c-2.66699 -7.33301 -5.5 -11.666 -8.5 -12.999s-7.83301 -1 -14.5 1l-206 68c-4 -0.666992 -8.16699 -1 -12.5 -1h-13.5zM309.005 623.998
c-36.667 0 -67.1641 -7.33301 -91.4971 -22s-43.666 -35 -57.999 -61s-24.5 -56.833 -30.5 -92.5s-9 -74.834 -9 -117.501c0 -41.333 2.83301 -79.666 8.5 -114.999s15.667 -66 30 -92s33.666 -46.5 57.999 -61.5s55.166 -22.5 92.499 -22.5s68.5 7 93.5 21
s45.167 33.667 60.5 59s26.333 56 33 92s10 75.667 10 119c0 44.667 -3 85 -9 121s-16.333 66.667 -31 92s-34.834 45 -60.501 59s-57.834 21 -96.501 21z" />
    <glyph glyph-name="R" unicode="R" horiz-adv-x="513" 
d="M412 481c0 26.667 -4.33008 48.3311 -12.9971 64.998s-19.834 29.834 -33.501 39.501s-29.167 16.334 -46.5 20.001s-35 5.5 -53 5.5h-138v-273h137c15.333 0 31.666 1.5 48.999 4.5s33.166 9.5 47.499 19.5s26.333 24.5 36 43.5s14.5 44.167 14.5 75.5zM479.003 13.9971
c2 -3.33301 2.5 -6.49609 1.5 -9.49609s-3.83301 -4.5 -8.5 -4.5h-35c-5.33301 0 -9.5 0.333008 -12.5 1s-5.5 3.66699 -7.5 9l-128 278h-161v-272c0 -10.667 -4.66699 -16 -14 -16h-28c-5.33301 0 -9 1 -11 3s-3 6 -3 12v635c0 4.66699 1 8 3 10s6 3 12 3h199
c24.667 0 48.167 -3.5 70.5 -10.5s42 -17.833 59 -32.5s30.5 -33.5 40.5 -56.5s15 -50.833 15 -83.5c0 -18.667 -2.16699 -37.334 -6.5 -56.001s-11.5 -36.334 -21.5 -53.001s-23 -31.334 -39 -44.001s-35.333 -22.334 -58 -29.001l134 -284h-1z" />
    <glyph glyph-name="S" unicode="S" horiz-adv-x="506" 
d="M241 -9c-17.333 0 -34.832 0.668945 -52.499 2.00195s-34.667 3.16602 -51 5.49902s-31.833 5.16602 -46.5 8.49902s-27 7 -37 11c-8 3.33301 -10.667 8.66602 -8 15.999l3 19c0.666992 5.33301 4 7.33301 10 6c15.333 -2 32.166 -3.83301 50.499 -5.5
s36.333 -3.16699 54 -4.5l47.5 -3.5c14 -1 24.333 -1.5 31 -1.5c52 0 92.167 10.5 120.5 31.5s42.5 51.5 42.5 91.5c0 25.333 -2.5 46.333 -7.5 63s-13.167 30.5 -24.5 41.5s-26.833 19.667 -46.5 26s-43.834 12.166 -72.501 17.499
c-31.333 5.33301 -59.666 11.333 -84.999 18s-47.333 16.167 -66 28.5s-33 28.333 -43 48s-15 45.5 -15 77.5c0 58.667 17.667 103.667 53 135s87 47 155 47c10 0 22.333 -0.5 37 -1.5s30.334 -2.5 47.001 -4.5s33 -4.66699 49 -8s30 -7.33301 42 -12
c3.33301 -1.33301 5.33301 -3.33301 6 -6s0.666992 -5.66699 0 -9l-4 -16c0 -2.66699 -0.833008 -5.16699 -2.5 -7.5s-5.16699 -3.16602 -10.5 -2.49902l-78.5 10c-27 3.33301 -56.167 5 -87.5 5c-28 0 -51.667 -3 -71 -9s-34.833 -14.5 -46.5 -25.5s-20 -24.5 -25 -40.5
s-7.5 -33.667 -7.5 -53c0 -23.333 3.16699 -41.833 9.5 -55.5s16 -24.667 29 -33s29.167 -14.666 48.5 -18.999s42 -8.83301 68 -13.5c30 -5.33301 57.5 -11.5 82.5 -18.5s46.5 -17.167 64.5 -30.5s32.167 -31 42.5 -53s15.5 -51 15.5 -87c0 -35.333 -5.66699 -65 -17 -89
s-27 -43.333 -47 -58s-43.333 -25.167 -70 -31.5s-55.334 -9.5 -86.001 -9.5z" />
    <glyph glyph-name="T" unicode="T" horiz-adv-x="465" 
d="M32 611c-6 0 -10.001 1.16699 -12.001 3.5s-3 6.16602 -3 11.499v24c0 4.66699 1 8 3 10s6 3 12 3h403c6 0 10 -1 12 -3s3 -5.33301 3 -10v-24c0 -5.33301 -1 -9.16602 -3 -11.499s-6 -3.5 -12 -3.5h-173l-1 -596c0 -6 -0.833008 -10 -2.5 -12s-5.16699 -3 -10.5 -3h-28
c-5.33301 0 -9.16602 1 -11.499 3s-3.5 6 -3.5 12v596h-173v0z" />
    <glyph glyph-name="U" unicode="U" horiz-adv-x="595" 
d="M474 647c0 6.66699 1.16895 10.999 3.50195 12.999s6.16602 3 11.499 3h28c8.66699 0 13 -5.33301 13 -16l-1 -410c0 -21.333 -1 -41.666 -3 -60.999s-6.66699 -38 -14 -56c-18 -45.333 -46 -77.833 -84 -97.5s-82 -29.5 -132 -29.5c-52 0 -96.667 10 -134 30
s-64 52 -80 96c-6.66699 18 -11.167 36.833 -13.5 56.5s-3.5 40.167 -3.5 61.5v410c0 6.66699 1.16699 11 3.5 13s6.16602 3 11.499 3h28c8.66699 0 13 -5.33301 13 -16v-413c0 -60 14.167 -106.833 42.5 -140.5s72.5 -50.5 132.5 -50.5c58 0 102.167 15.667 132.5 47
s45.5 79.333 45.5 144v413v0z" />
    <glyph glyph-name="V" unicode="V" horiz-adv-x="542" 
d="M511 662c7.33301 0 9.66504 -3.66602 6.99805 -10.999l-211 -640c-1.33301 -3.33301 -3.16602 -6 -5.49902 -8s-6.5 -3 -12.5 -3h-35c-9.33301 0 -15 3.33301 -17 10l-211 640c-1.33301 3.33301 -1.5 6.16602 -0.5 8.49902s4.16699 3.5 9.5 3.5h30
c5.33301 0 9.33301 -1 12 -3s4.66699 -5 6 -9l142 -426c6.66699 -22.667 13.334 -44 20.001 -64l15.5 -50.5c5 -16.333 9.16699 -28.5 12.5 -36.5h3c2.66699 8 6.5 20.167 11.5 36.5l15.5 50.5l20 63l139 428c2 7.33301 7.66699 11 17 11h32z" />
    <glyph glyph-name="W" unicode="W" horiz-adv-x="799" 
d="M379 372l-103.002 -359.998c-1.33301 -4.66699 -2.83301 -7.83398 -4.5 -9.50098s-5.16699 -2.5 -10.5 -2.5h-40c-8 0 -13 3.66699 -15 11l-182 641c-2 7.33301 1 11 9 11h32c5.33301 0 9 -0.833008 11 -2.5s3.66699 -4.83398 5 -9.50098l137 -486l24 -93h3l24 92
l103 368l-34 119c-2 8 1 12 9 12h32c8.66699 0 14 -3.66699 16 -11l138 -486l24 -94h2l23 92l134 488c1.33301 4 3 6.83301 5 8.5s6 2.5 12 2.5h31c7.33301 0 10 -4.66699 8 -14l-181 -636c-1.33301 -5.33301 -3.16602 -8.83301 -5.49902 -10.5s-6.16602 -2.5 -11.499 -2.5
h-36c-9.33301 0 -15 3.66699 -17 11l-104 364l-17 64h-4z" />
    <glyph glyph-name="X" unicode="X" horiz-adv-x="506" 
d="M254 292l-164.004 -279.997c-3.33301 -4.66699 -6.16602 -7.83398 -8.49902 -9.50098s-7.16602 -2.5 -14.499 -2.5h-36c-8 0 -9.66699 3.66699 -5 11l198 329l-184 311c-2 3.33301 -2.66699 6.16602 -2 8.49902s2.66699 3.5 6 3.5h38c6.66699 0 11.167 -1 13.5 -3
s4.5 -4.66699 6.5 -8l152 -263l151 262c4.66699 8 12.334 12 23.001 12h31c5.33301 0 8.33301 -1.33301 9 -4s0.333984 -5.33398 -0.999023 -8.00098l-184 -311l199 -330c1.33301 -2.66699 1.5 -5 0.5 -7s-3.5 -3 -7.5 -3h-36c-9.33301 0 -16.333 3.66699 -21 11z" />
    <glyph glyph-name="Y" unicode="Y" horiz-adv-x="483" 
d="M16 653c-1.33301 2 -1.66602 4.16797 -0.999023 6.50098s2.66699 3.5 6 3.5h40c5.33301 0 9.16602 -0.833008 11.499 -2.5s4.16602 -4.16699 5.49902 -7.5l163 -300l168 301c1.33301 3.33301 3.16602 5.66602 5.49902 6.99902s6.5 2 12.5 2h31
c8.66699 0 11.334 -3.66699 8.00098 -11l-197 -354v-283c0 -6 -0.833008 -10 -2.5 -12s-5.16699 -3 -10.5 -3h-28c-5.33301 0 -9.16602 1 -11.499 3s-3.5 6 -3.5 12v283l-197 355v0z" />
    <glyph glyph-name="Z" unicode="Z" horiz-adv-x="466" 
d="M436 15c0 -5.33301 -0.998047 -9.16699 -2.99805 -11.5s-6 -3.5 -12 -3.5h-377c-6 0 -9.83301 1 -11.5 3s-2.5 5.66699 -2.5 11v18c0 4.66699 0.5 9.33398 1.5 14.001s3.5 10 7.5 16l331 549h-307c-6.66699 0 -10.834 1.16699 -12.501 3.5s-2.5 6.16602 -2.5 11.499v24
c0 4.66699 1 8 3 10s6 3 12 3h358c3.33301 0 6.16602 -0.833008 8.49902 -2.5s3.5 -4.16699 3.5 -7.5v-26c0 -7.33301 -2.66699 -15.333 -8 -24l-328 -551h324c6 0 10 -0.833008 12 -2.5s3 -5.16699 3 -10.5v-24v0z" />
    <glyph glyph-name="bracketleft" unicode="[" horiz-adv-x="237" 
d="M182 -90c0 -6.66699 -4 -10 -12 -10h-116c-10.667 0 -16 4.33301 -16 13v770c0 8 5 12 15 12h119c6.66699 0 10 -2.66699 10 -8v-27c0 -7.33301 -4 -11 -12 -11h-79v-703l81 -1c6.66699 0 10 -2.33301 10 -7v-28v0z" />
    <glyph glyph-name="backslash" unicode="\" horiz-adv-x="240" 
d="M226 -53c1.33301 -3.33301 1.66895 -6.50098 1.00195 -9.50098s-3.33398 -4.5 -8.00098 -4.5h-23c-5.33301 0 -9 2.66699 -11 8l-176 739c-2 8 -0.333008 12 5 12h23c4.66699 0.666992 7.66699 0.333984 9 -0.999023s2.66602 -4 3.99902 -8l176 -736v0z" />
    <glyph glyph-name="bracketright" unicode="]" horiz-adv-x="235" 
d="M198 -89c0 -7.33301 -5.33301 -11 -16 -11h-118c-8 0 -12 3.33301 -12 10v28c0 4.66699 3.33301 7 10 7l83 1v703h-81c-8 0 -12 3.66699 -12 11v27c0 5.33301 3.33301 8 10 8h121c10 0 15 -4 15 -12v-772v0z" />
    <glyph glyph-name="asciicircum" unicode="^" horiz-adv-x="501" 
d="M458 376c-7.33301 -6 -12.6689 -6.33203 -16.002 -0.999023l-186 243l-188 -240c-3.33301 -4 -6.5 -5.83301 -9.5 -5.5s-6.16699 1.83301 -9.5 4.5l-14 10c-3.33301 2.66699 -4.83301 4.66699 -4.5 6s1.5 3.66602 3.5 6.99902l180 251
c3.33301 4.66699 6.83301 7.66699 10.5 9s8.83398 2 15.501 2h31c9.33301 0 15.833 -0.833008 19.5 -2.5s6.83398 -4.16699 9.50098 -7.5l172 -250c4.66699 -8 5 -13 1 -15z" />
    <glyph glyph-name="underscore" unicode="_" horiz-adv-x="500" 
d="M0 -126c-7.33301 0 -11 2.66699 -11 8v17c0 4.66699 1 7.5 3 8.5s5 1.5 9 1.5h498c4 0 7 -0.5 9 -1.5s3 -3.83301 3 -8.5v-17c0 -5.33301 -3.33301 -8 -10 -8h-501v0z" />
    <glyph glyph-name="grave" unicode="`" horiz-adv-x="485" 
d="M266 543c-4 -1.33301 -6.66602 -2.16797 -7.99902 -2.50098s-3 0.833984 -5 3.50098l-86 125c-1.33301 2 -2.33301 4.33301 -3 7s1.33301 5 6 7l33 15c7.33301 4 12.333 3.33301 15 -2l70 -135c3.33301 -6 2.66602 -10 -2.00098 -12z" />
    <glyph glyph-name="a" unicode="a" horiz-adv-x="505" 
d="M377 57c-14.667 -8.66699 -29.3311 -16.834 -43.998 -24.501s-30.334 -14.5 -47.001 -20.5s-34.334 -10.833 -53.001 -14.5s-39 -5.5 -61 -5.5c-45.333 0 -78 11.167 -98 33.5s-30 55.5 -30 99.5c0 56.667 14.167 98.334 42.5 125.001s73.833 40 136.5 40h155v45
c0 20 -1.83301 37 -5.5 51s-10.334 25.5 -20.001 34.5s-22.834 15.667 -39.501 20s-37.667 6.5 -63 6.5c-21.333 0 -45 -1 -71 -3s-50.667 -4.33301 -74 -7c-9.33301 -0.666992 -14.333 1.66602 -15 6.99902l-4 18c0 6.66699 3.66699 11.667 11 15
c10.667 4 23 7.33301 37 10s28.333 4.83398 43 6.50098s28.834 2.83398 42.501 3.50098s25.834 1 36.501 1c37.333 0 67.5 -3.5 90.5 -10.5s41 -17.667 54 -32s21.833 -32.333 26.5 -54s7 -46.834 7 -75.501v-246c0 -9.33301 0.666992 -16.5 2 -21.5s3.5 -8.83301 6.5 -11.5
s7.16699 -4.5 12.5 -5.5s12.333 -1.83301 21 -2.5c7.33301 0 11 -3 11 -9v-20c0 -3.33301 -1 -6 -3 -8s-6 -3.66699 -12 -5c-32.667 -3.33301 -56 -1 -70 7s-22 25.667 -24 53h-1zM378.003 242l-162 0.000976562c-17.333 0 -33 -1.66699 -47 -5s-26 -9.33301 -36 -18
s-17.667 -20.334 -23 -35.001s-8 -33.334 -8 -56.001c0 -33.333 6.5 -56 19.5 -68s36.5 -18 70.5 -18c14.667 0 31 2.33301 49 7s35.667 10.334 53 17.001s33.333 13.5 48 20.5s26.667 13.167 36 18.5v137z" />
    <glyph glyph-name="b" unicode="b" horiz-adv-x="489" 
d="M445 246c0 -43.333 -2.99707 -80.8311 -8.99707 -112.498s-16.333 -58.167 -31 -79.5s-34.334 -37.166 -59.001 -47.499s-55.334 -15.5 -92.001 -15.5c-42.667 0 -77.5 2.16699 -104.5 6.5s-51.167 9.16602 -72.5 14.499c-12.667 3.33301 -20.167 8.16602 -22.5 14.499
s-3.5 13.166 -3.5 20.499v638c0 6 0.833008 10 2.5 12s5.16699 3 10.5 3h28c5.33301 0 9.16602 -1 11.499 -3s3.5 -6 3.5 -12v-219l2 -2c34.667 14 63.167 23 85.5 27s43.5 6 63.5 6c37.333 0 68 -5.66699 92 -17s43 -27.833 57 -49.5s23.833 -48 29.5 -79
s8.5 -66.167 8.5 -105.5zM386.003 236.002c0 38.667 -1.83594 71.5 -5.50293 98.5s-10 48.833 -19 65.5s-21.5 28.667 -37.5 36s-36.333 11 -61 11c-23.333 0 -47.666 -2.16699 -72.999 -6.5s-52.666 -10.833 -81.999 -19.5v-365c16.667 -3.33301 37.334 -6 62.001 -8
s51.667 -3 81 -3c22 0 41.333 2 58 6s30.667 12.667 42 26s20 32.5 26 57.5s9 58.833 9 101.5z" />
    <glyph glyph-name="c" unicode="c" horiz-adv-x="409" 
d="M235 497c8.66699 0 19.332 -0.333984 31.999 -1.00098s25.667 -1.83398 39 -3.50098s26.333 -3.83398 39 -6.50098s24 -6 34 -10c5.33301 -2 8.16602 -4.66699 8.49902 -8s0.5 -6.33301 0.5 -9l-4 -17c-0.666992 -3.33301 -2.66699 -5.33301 -6 -6
s-7.33301 -0.666992 -12 0c-8.66699 0.666992 -18.5 1.66699 -29.5 3s-22.5 2.5 -34.5 3.5s-23.833 1.83301 -35.5 2.5s-22.5 1 -32.5 1c-26 0 -47.5 -3.16699 -64.5 -9.5s-30.333 -17.166 -40 -32.499s-16.334 -35.666 -20.001 -60.999s-5.5 -57 -5.5 -95
c0 -39.333 2 -72.166 6 -98.499s10.833 -47.333 20.5 -63s22.834 -26.834 39.501 -33.501s38 -10 64 -10c6.66699 0 15.667 0.333008 27 1s23.5 1.5 36.5 2.5l39 3c13 1 24.833 2.16699 35.5 3.5c8 0 12.333 -3 13 -9l3 -13c0.666992 -3.33301 0.333984 -6.5 -0.999023 -9.5
s-4.66602 -5.83301 -9.99902 -8.5c-16 -6.66699 -37.333 -11.667 -64 -15s-52.667 -5 -78 -5c-41.333 0 -74.5 6.33301 -99.5 19s-44.167 30.334 -57.5 53.001s-22.166 49.5 -26.499 80.5s-6.5 64.833 -6.5 101.5c0 32.667 2.16699 64.167 6.5 94.5s13.166 57 26.499 80
s32.5 41.333 57.5 55s58.167 20.5 99.5 20.5z" />
    <glyph glyph-name="d" unicode="d" horiz-adv-x="489" 
d="M379 421c-30 9.33301 -57.499 15.999 -82.499 19.999s-49.167 6 -72.5 6c-24.667 0 -45 -3.66699 -61 -11s-28.5 -19.333 -37.5 -36s-15.333 -38.667 -19 -66s-5.5 -61 -5.5 -101c0 -39.333 1.66699 -71.333 5 -96s8.83301 -44.167 16.5 -58.5s18 -24.166 31 -29.499
s29.167 -8 48.5 -8c13.333 0 28.666 2.5 45.999 7.5s34.5 10.833 51.5 17.5s32.667 13.667 47 21l32.5 17v317zM380.001 683.999c0 6.66699 1.16895 10.998 3.50195 12.998s6.16602 3 11.499 3h26c8.66699 0 13 -5.33301 13 -16v-669c0 -6 -0.833008 -10 -2.5 -12
s-5.16699 -3 -10.5 -3h-26c-5.33301 0 -9.16602 1 -11.499 3s-3.5 6 -3.5 12v46l-29.5 -18c-13 -8 -27.833 -15.667 -44.5 -23s-34.667 -13.833 -54 -19.5s-38.333 -8.5 -57 -8.5c-29.333 0 -53.833 5 -73.5 15s-35.334 25.167 -47.001 45.5s-19.834 45.833 -24.501 76.5
s-7 66.334 -7 107.001c0 42.667 2.66699 80.167 8 112.5s15 59.5 29 81.5s33 38.667 57 50s54.667 17 92 17c20 0 42.333 -2.16699 67 -6.5s52 -13.166 82 -26.499l2 1v219z" />
    <glyph glyph-name="e" unicode="e" horiz-adv-x="482" 
d="M243 497c42 0 75.8291 -6.33496 101.496 -19.002s45.834 -29.167 60.501 -49.5s24.5 -43.666 29.5 -69.999s7.5 -53.166 7.5 -80.499c0 -15.333 -2.83301 -27.333 -8.5 -36s-16.5 -13 -32.5 -13h-297c1.33301 -33.333 3.83301 -61.833 7.5 -85.5
s10.334 -42.834 20.001 -57.501s23.334 -25.334 41.001 -32.001s41.167 -10 70.5 -10c10 0 22 0.5 36 1.5s28.333 2.33301 43 4s28.834 3.16699 42.501 4.5s24.834 2.33301 33.501 3c6.66699 0.666992 11 -2 13 -8l3 -16c2 -7.33301 -1.66699 -13 -11 -17
c-8 -2.66699 -18.667 -5.5 -32 -8.5s-27.666 -5.66699 -42.999 -8s-30.833 -4.16602 -46.5 -5.49902s-29.834 -2 -42.501 -2c-44.667 0 -79.834 7 -105.501 21s-45 32.667 -58 56s-21.167 50.5 -24.5 81.5s-5 63.167 -5 96.5c0 28.667 1.66699 57.834 5 87.501
s11.5 56.5 24.5 80.5s32.667 43.667 59 59s62.5 23 108.5 23zM242.996 446.998c-30.667 0 -54.8301 -3.83398 -72.4971 -11.501s-31.334 -18.834 -41.001 -33.501s-16 -32.667 -19 -54s-5.16699 -45.666 -6.5 -72.999h280c-0.666992 20.667 -2.33398 41.334 -5.00098 62.001
s-8.83398 39.167 -18.501 55.5s-23.667 29.5 -42 39.5s-43.5 15 -75.5 15z" />
    <glyph glyph-name="f" unicode="f" horiz-adv-x="338" 
d="M99 487v77c0 46 11.5 81.333 34.5 106s59.167 37 108.5 37c9.33301 0 24.5 -1.16699 45.5 -3.5s41.833 -7.5 62.5 -15.5c8.66699 -2.66699 12 -8 10 -16l-3 -16c-2.66699 -7.33301 -9.33398 -10 -20.001 -8c-19.333 3.33301 -36.5 5.5 -51.5 6.5s-26.167 1.5 -33.5 1.5
c-33.333 0 -58.166 -7.16699 -74.499 -21.5s-24.5 -38.5 -24.5 -72.5v-75h133c8 0 12 -3.66699 12 -11v-23c0 -7.33301 -4 -11 -12 -11h-133v-430c0 -8 -3.33301 -12 -10 -12h-32c-8.66699 0 -13 4 -13 12v430h-52c-8 0 -12 3.66699 -12 11v22c0 8 4 12 12 12h53z" />
    <glyph glyph-name="g" unicode="g" horiz-adv-x="489" 
d="M440 -11c0 -24 -1.66602 -46.6709 -4.99902 -68.0039s-10.833 -39.833 -22.5 -55.5s-28.834 -28 -51.501 -37s-53.667 -13.5 -93 -13.5c-12.667 0 -26.334 0.333008 -41.001 1s-29.334 1.83398 -44.001 3.50098s-28.667 3.83398 -42 6.50098s-25 6 -35 10
c-7.33301 2.66699 -11.166 5.66699 -11.499 9s0.166992 6.33301 1.5 9l3 14c0.666992 6 6 8 16 6c23.333 -3.33301 48.5 -5.5 75.5 -6.5s50.5 -1.5 70.5 -1.5c27.333 0 49.333 2.16699 66 6.5s29.334 11 38.001 20s14.167 20.5 16.5 34.5s3.5 30.333 3.5 49l-1 46l-2 2
c-34.667 -14 -63 -23 -85 -27s-43 -6 -63 -6c-37.333 0 -68 5.66699 -92 17s-43 27.666 -57 48.999s-23.833 47.666 -29.5 78.999s-8.5 66.666 -8.5 105.999c0 42 3.16699 78.833 9.5 110.5s17 58.334 32 80.001s34.667 37.834 59 48.501s54.5 16 90.5 16
c42.667 0 77.5 -2.16699 104.5 -6.5s51.167 -9.16602 72.5 -14.499c12.667 -3.33301 20.167 -8.16602 22.5 -14.499s3.5 -13.166 3.5 -20.499zM384.001 431.996c-16.667 3.33301 -37.334 6.33496 -62.001 9.00195s-51.667 4 -81 4c-19.333 0 -37.333 -2.16699 -54 -6.5
s-31 -13.166 -43 -26.499s-21.333 -32.833 -28 -58.5s-10 -59.834 -10 -102.501c0 -38.667 1.83301 -71.334 5.5 -98.001s10.334 -48.334 20.001 -65.001s22.5 -28.834 38.5 -36.501s36.333 -11.5 61 -11.5c19.333 0 42.333 2.33301 69 7s54.667 11.334 84 20.001v365z" />
    <glyph glyph-name="h" unicode="h" horiz-adv-x="482" 
d="M378 307c0 28 -1.16602 50.999 -3.49902 68.999s-6.66602 32.333 -12.999 43s-15.5 18.167 -27.5 22.5s-27.667 6.5 -47 6.5c-14 0 -29.833 -2.5 -47.5 -7.5s-35 -11 -52 -18s-32.833 -14 -47.5 -21s-25.667 -12.5 -33 -16.5v-370c0 -10 -4.66699 -15 -14 -15h-26
c-5.33301 0 -8.83301 1 -10.5 3s-2.5 6 -2.5 12v669c0 10.667 4.33301 16 13 16h26c5.33301 0 9.16602 -1 11.499 -3s3.5 -6.33301 3.5 -13v-256c6.66699 4.66699 16.5 10.834 29.5 18.501s27.833 15.167 44.5 22.5s34.667 13.833 54 19.5s38.666 8.5 57.999 8.5
c30.667 0 55 -4.16699 73 -12.5s31.833 -20.333 41.5 -36s16 -34.5 19 -56.5s4.5 -46.667 4.5 -74v-303c0 -10 -5 -15 -15 -15h-26c-5.33301 0 -8.83301 1 -10.5 3s-2.5 6 -2.5 12v292v0z" />
    <glyph glyph-name="i" unicode="i" horiz-adv-x="208" 
d="M77 472c0 6 1.16699 10 3.5 12s6.16602 3 11.499 3h25c5.33301 0 8.83301 -1 10.5 -3s2.5 -6 2.5 -12v-457c0 -6 -0.833008 -10 -2.5 -12s-5.16699 -3 -10.5 -3h-25c-5.33301 0 -9.16602 1 -11.499 3s-3.5 6 -3.5 12v457zM138 607c0 -10 -2 -18.667 -6 -26
s-13.333 -11 -28 -11c-15.333 0 -24.833 3.66699 -28.5 11s-5.5 16 -5.5 26s2.16699 18.333 6.5 25s13.5 10 27.5 10s23.167 -3.16699 27.5 -9.5s6.5 -14.833 6.5 -25.5z" />
    <glyph glyph-name="j" unicode="j" horiz-adv-x="232" 
d="M146 -64c0 -17.333 -1.66699 -34.5 -5 -51.5s-10.666 -32.167 -21.999 -45.5s-27.833 -23.833 -49.5 -31.5s-51.167 -10.834 -88.5 -9.50098c-1.33301 0 -4 0.833008 -8 2.5s-6 5.5 -6 11.5l-1 16c-0.666992 5.33301 0.166016 8.83301 2.49902 10.5
s5.5 2.83398 9.5 3.50098c24 2.66699 43.333 6.5 58 11.5s26 11.333 34 19s13.333 17 16 28s4 24.167 4 39.5v536c0 7.33301 4 11 12 11h32c8 0 12 -3.66699 12 -11v-540zM152 617c0 -10 -2 -18.499 -6 -25.499s-13.333 -10.5 -28 -10.5c-15.333 0 -24.833 3.66699 -28.5 11
s-5.5 15.666 -5.5 24.999c0 10 2.16699 18.333 6.5 25s13.5 10 27.5 10s23.167 -3.16699 27.5 -9.5s6.5 -14.833 6.5 -25.5z" />
    <glyph glyph-name="k" unicode="k" horiz-adv-x="418" 
d="M225 304l186.001 -292.002c2 -3.33301 2.5 -6.16602 1.5 -8.49902s-3.83301 -3.5 -8.5 -3.5h-38c-8 0 -14.333 3.66699 -19 11l-160 254l-81 -81v-173c0 -7.33301 -3.66699 -11 -11 -11h-32c-8 0 -12 3.66699 -12 11v681c0 7.33301 4 11 12 11h32
c7.33301 0 11 -3.66699 11 -11l-1 -438h1l77 78l147 146l7.5 7.5c1.66699 1.66699 5.16699 2.5 10.5 2.5h40c5.33301 0 8.16602 -1.66699 8.49902 -5s-1.16699 -6.66602 -4.5 -9.99902z" />
    <glyph glyph-name="l" unicode="l" horiz-adv-x="222" 
d="M195 16c0.666992 -6.66699 -2.33203 -11.333 -8.99902 -14c-8 -3.33301 -16 -5.5 -24 -6.5s-15.667 -1.5 -23 -1.5c-24 0 -40.667 5.66699 -50 17s-14 28 -14 50v630c0 8 4 12 12 12h32c4 0 6.83301 -0.666992 8.5 -2s2.5 -4.66602 2.5 -9.99902v-609
c0 -8.66699 0.666992 -15.334 2 -20.001s3.66602 -8.16699 6.99902 -10.5s8.16602 -3.83301 14.499 -4.5s14.5 -1 24.5 -1c8.66699 0 13.334 -2.33301 14.001 -7z" />
    <glyph glyph-name="m" unicode="m" horiz-adv-x="775" 
d="M670 316c0 24 -0.999023 44.3301 -2.99902 60.9971s-6.16699 30.334 -12.5 41.001s-15.166 18.334 -26.499 23.001s-26.333 7 -45 7c-12.667 0 -26.834 -2.33301 -42.501 -7s-31.334 -10.167 -47.001 -16.5s-30.834 -13.166 -45.501 -20.499s-27 -14 -37 -20
c1.33301 -7.33301 2.33301 -16.166 3 -26.499s1 -20.5 1 -30.5v-312c0 -10 -5 -15 -15 -15h-29c-5.33301 0 -8.33301 1 -9 3s-1 6 -1 12v312c0 16 -0.833008 31.333 -2.5 46s-5.5 27.5 -11.5 38.5s-14.667 19.833 -26 26.5s-26.666 10 -45.999 10
c-12 0 -24.833 -1.83301 -38.5 -5.5s-28 -8.33398 -43 -14.001s-30 -12.334 -45 -20.001l-44.5 -23.5v-370c0 -10 -4.66699 -15 -14 -15h-26c-5.33301 0 -8.83301 1 -10.5 3s-2.5 6 -2.5 12v457c0 10 4.33301 15 13 15h25c5.33301 0 9.16602 -1 11.499 -3s3.5 -6 3.5 -12
v-42c10 6.66699 21.333 13.834 34 21.501s26.5 14.834 41.5 21.501s30.833 12.334 47.5 17.001s33.667 7 51 7c36 0 63.833 -6.33301 83.5 -19s33.5 -31.334 41.5 -56.001c26.667 20 55.667 37.5 87 52.5s64 22.5 98 22.5c28.667 0 51.834 -3.83301 69.501 -11.5
s31.5 -18.834 41.5 -33.501s16.833 -32.5 20.5 -53.5s5.5 -44.833 5.5 -71.5v-312c0 -10 -5 -15 -15 -15h-27c-5.33301 0 -8.83301 1 -10.5 3s-2.5 6 -2.5 12v301v0z" />
    <glyph glyph-name="n" unicode="n" horiz-adv-x="479" 
d="M374 307c0 28 -1.16895 51 -3.50195 69s-6.66602 32.333 -12.999 43s-15.5 18.167 -27.5 22.5s-27.667 6.5 -47 6.5c-13.333 0 -28.833 -2.5 -46.5 -7.5s-35.167 -11 -52.5 -18s-33.166 -14 -47.499 -21s-25.166 -12.5 -32.499 -16.5v-370c0 -10 -4.66699 -15 -14 -15
h-26c-5.33301 0 -8.83301 1 -10.5 3s-2.5 6 -2.5 12v457c0 6 0.833008 10 2.5 12s5.16699 3 10.5 3h26c5.33301 0 9 -0.833008 11 -2.5s3 -5.83398 3 -12.501v-44c6.66699 4.66699 16.5 10.834 29.5 18.501s28 15.167 45 22.5s35.167 13.833 54.5 19.5
s38.666 8.5 57.999 8.5c30.667 0 55 -4.16699 73 -12.5s31.833 -20.333 41.5 -36s16 -34.5 19 -56.5s4.5 -46.667 4.5 -74v-303c0 -10 -5 -15 -15 -15h-27c-5.33301 0 -8.83301 1 -10.5 3s-2.5 6 -2.5 12v292v0z" />
    <glyph glyph-name="o" unicode="o" horiz-adv-x="487" 
d="M240 -8c-46 0 -82.0039 7.66699 -108.004 23s-45.5 35.5 -58.5 60.5s-21 52.833 -24 83.5s-4.5 61.667 -4.5 93c0 25.333 1.83301 52.333 5.5 81s12.334 55.167 26.001 79.5s33.334 44.5 59.001 60.5s60.5 24 104.5 24c44.667 0 80.334 -6.83301 107.001 -20.5
s47 -32 61 -55s23.167 -49.167 27.5 -78.5s6.5 -59.666 6.5 -90.999c0 -30.667 -1.66699 -61.5 -5 -92.5s-11.666 -58.833 -24.999 -83.5s-33.5 -44.834 -60.5 -60.501s-64.167 -23.5 -111.5 -23.5zM239.996 448c-29.333 0 -52.999 -4.5 -70.999 -13.5s-32 -22.333 -42 -40
s-16.833 -39 -20.5 -64s-5.5 -53.5 -5.5 -85.5s1.83301 -60.5 5.5 -85.5s10.5 -46.333 20.5 -64s24 -31 42 -40s41.667 -13.5 71 -13.5c30 0 54.5 4.33301 73.5 13s33.833 21.667 44.5 39s18 38.5 22 63.5s6 54.167 6 87.5c0 32.667 -1.83301 61.5 -5.5 86.5
s-10.834 46.167 -21.501 63.5s-25.5 30.5 -44.5 39.5s-43.833 13.5 -74.5 13.5z" />
    <glyph glyph-name="p" unicode="p" horiz-adv-x="498" 
d="M116 68c30 -9.33301 57.499 -15.9971 82.499 -19.9971s49.5 -6 73.5 -6c24.667 0 44.834 3.66699 60.501 11s28.167 19.166 37.5 35.499s15.833 38.166 19.5 65.499s5.5 61 5.5 101c0 39.333 -1.66699 71.5 -5 96.5s-8.83301 44.667 -16.5 59s-18 24.166 -31 29.499
s-29.167 8 -48.5 8c-14 0 -29.5 -2.5 -46.5 -7.5s-33.833 -10.833 -50.5 -17.5s-32.167 -13.5 -46.5 -20.5s-25.833 -12.833 -34.5 -17.5v-317zM115.999 -159.997c0 -6.66699 -1.16895 -10.998 -3.50195 -12.998s-6.16602 -3 -11.499 -3h-27c-8.66699 0 -13 5.33301 -13 16
v632c0 10 4.33301 15 13 15h27c5.33301 0 9.16602 -1 11.499 -3s3.5 -6 3.5 -12v-44c6.66699 4.66699 16.5 10.834 29.5 18.501s27.833 15.167 44.5 22.5s34.5 13.833 53.5 19.5s38.167 8.5 57.5 8.5c29.333 0 53.833 -5 73.5 -15s35.334 -25.167 47.001 -45.5
s19.834 -45.833 24.501 -76.5s7 -66.334 7 -107.001c0 -42.667 -2.83301 -80.334 -8.5 -113.001s-15.5 -60 -29.5 -82s-33.167 -38.5 -57.5 -49.5s-54.833 -16.5 -91.5 -16.5c-19.333 0 -41.5 2.16699 -66.5 6.5s-52.5 13.166 -82.5 26.499l-1 -2v-183z" />
    <glyph glyph-name="q" unicode="q" horiz-adv-x="489" 
d="M45 242c0 42 3.16602 78.8311 9.49902 110.498s17 58.334 32 80.001s34.667 37.834 59 48.501s54.5 16 90.5 16c42.667 0 77.5 -2.16699 104.5 -6.5s51.167 -9.16602 72.5 -14.499c12.667 -3.33301 20.167 -8.16602 22.5 -14.499s3.5 -13.166 3.5 -20.499v-601
c0 -10.667 -4.33301 -16 -13 -16h-28c-5.33301 0 -9.16602 1 -11.499 3s-3.5 6.33301 -3.5 13v182l-2 2c-34.667 -14 -63.167 -23 -85.5 -27s-43.5 -6 -63.5 -6c-37.333 0 -68 5.66699 -92 17s-43 27.666 -57 48.999s-23.833 47.666 -29.5 78.999s-8.5 66.666 -8.5 105.999z
M103.999 250.998c0 -38.667 1.83301 -71.332 5.5 -97.999s10.334 -48.334 20.001 -65.001s22.5 -28.834 38.5 -36.501s36.333 -11.5 61 -11.5c19.333 0 42.333 2.33301 69 7s54.667 11.334 84 20.001v365c-16.667 3.33301 -37.334 6.33301 -62.001 9s-51.667 4 -81 4
c-19.333 0 -37.333 -2.16699 -54 -6.5s-31 -13.166 -43 -26.499s-21.333 -32.833 -28 -58.5s-10 -59.834 -10 -102.501z" />
    <glyph glyph-name="r" unicode="r" horiz-adv-x="278" 
d="M257 437c-13.333 -2.66699 -26.499 -6.33398 -39.499 -11.001s-25.5 -9.5 -37.5 -14.5s-22.833 -9.83301 -32.5 -14.5l-22.5 -11v-371c0 -10 -5 -15 -15 -15h-27c-5.33301 0 -8.83301 1 -10.5 3s-2.5 6 -2.5 12v457c0 10 4.33301 15 13 15h26
c5.33301 0 9.16602 -1 11.499 -3s3.5 -6 3.5 -12v-44c4.66699 3.33301 11.667 8 21 14s19.833 12 31.5 18s24 12 37 18s26.167 10.667 39.5 14c3.33301 1.33301 5.5 1.33301 6.5 0s1.83301 -3.66602 2.5 -6.99902l4 -34c0.666992 -7.33301 -2.33301 -12 -9 -14z" />
    <glyph glyph-name="s" unicode="s" horiz-adv-x="414" 
d="M373 136c0 -26.667 -4.49902 -49.167 -13.499 -67.5s-21.5 -33 -37.5 -44s-34.667 -19 -56 -24s-44 -7.5 -68 -7.5c-26 0 -52.833 1.66699 -80.5 5s-49.5 8.33301 -65.5 15c-5.33301 2.66699 -8.5 5.5 -9.5 8.5s-1.16699 6.16699 -0.5 9.5l3 13
c0.666992 6 4.66699 9 12 9c10.667 -1.33301 22.834 -2.66602 36.501 -3.99902s27.167 -2.5 40.5 -3.5s25.833 -2 37.5 -3s20.834 -1.5 27.501 -1.5c39.333 0 68.5 6.33301 87.5 19s28.5 35 28.5 67c0 17.333 -1.5 31.666 -4.5 42.999s-8.5 20.5 -16.5 27.5
s-19 12.667 -33 17s-32 8.16602 -54 11.499c-24 4 -46 8.5 -66 13.5s-37.333 12.333 -52 22s-26.167 22.334 -34.5 38.001s-12.5 35.5 -12.5 59.5c0 44.667 14.167 78.834 42.5 102.501s69.166 35.5 122.499 35.5c8 0 18 -0.333008 30 -1s24.667 -1.83398 38 -3.50098
s26.333 -3.66699 39 -6s23.667 -5.5 33 -9.5c5.33301 -2 8.16602 -4.66699 8.49902 -8s0.5 -6.33301 0.5 -9l-4 -18c-0.666992 -3.33301 -2.66699 -5.33301 -6 -6s-7.33301 -0.666992 -12 0c-17.333 1.33301 -37 3.33301 -59 6s-45 4 -69 4c-42 0 -70.5 -6.66699 -85.5 -20
s-22.5 -35 -22.5 -65c0 -16 2.16699 -28.667 6.5 -38s11 -16.833 20 -22.5s20.667 -10 35 -13s31.5 -6.16699 51.5 -9.5c22.667 -4 44 -8.5 64 -13.5s37.167 -12.5 51.5 -22.5s25.666 -23.5 33.999 -40.5s12.5 -38.833 12.5 -65.5z" />
    <glyph glyph-name="t" unicode="t" horiz-adv-x="309" 
d="M303 22c0.666992 -4 0.333008 -6.99805 -1 -8.99805s-3.33301 -3.66699 -6 -5c-4.66699 -2 -11 -4 -19 -6s-16.667 -3.83301 -26 -5.5s-19 -2.83398 -29 -3.50098s-19.333 -1 -28 -1c-37.333 0 -62.5 8.5 -75.5 25.5s-19.5 41.5 -19.5 73.5v351h-58
c-8 0 -12 3.66699 -12 11v22c0 8 4 12 12 12h59v111c0 7.33301 3.66699 12 11 14l29 9c6 2 9.83301 2 11.5 0s2.5 -5.66699 2.5 -11v-123h110c5.33301 0 8.5 -0.833008 9.5 -2.5s1.5 -4.5 1.5 -8.5v-23c0 -4 -0.5 -6.83301 -1.5 -8.5s-4.16699 -2.5 -9.5 -2.5h-110v-334
c0 -11.333 0.666992 -21 2 -29s4.33301 -14.667 9 -20s11.5 -9.33301 20.5 -12s20.833 -4 35.5 -4c3.33301 0 7.83301 0.166992 13.5 0.5s11.667 0.666016 18 0.999023s12.333 0.666016 18 0.999023s10.5 0.833008 14.5 1.5
c5.33301 0.666992 8.83301 0.333984 10.5 -0.999023s3.16699 -4 4.5 -8z" />
    <glyph glyph-name="u" unicode="u" horiz-adv-x="491" 
d="M110 180c0 -28 1.16895 -50.9951 3.50195 -68.9951s7 -32.333 14 -43s16.667 -18.167 29 -22.5s28.166 -6.5 47.499 -6.5c13.333 0 28.833 2.5 46.5 7.5s35.167 11 52.5 18s33.166 14 47.499 21s25.166 12.5 32.499 16.5v370c0 10 4.66699 15 14 15h26
c5.33301 0 8.83301 -1 10.5 -3s2.5 -6 2.5 -12v-457c0 -6 -0.833008 -10 -2.5 -12s-5.16699 -3 -10.5 -3h-26c-5.33301 0 -9.16602 1 -11.499 3s-3.5 6 -3.5 12v45c-6.66699 -4.66699 -16.334 -10.834 -29.001 -18.501s-27.5 -15.334 -44.5 -23.001
s-35.167 -14.167 -54.5 -19.5s-38.666 -8 -57.999 -8c-30.667 0 -55.167 4.16699 -73.5 12.5s-32.5 20.166 -42.5 35.499s-16.667 34.166 -20 56.499s-5 47.166 -5 74.499v302c0 10 5 15 15 15h27c5.33301 0 8.83301 -1 10.5 -3s2.5 -6 2.5 -12v-292v0z" />
    <glyph glyph-name="v" unicode="v" horiz-adv-x="447" 
d="M256 9c-2.66699 -6 -6.66699 -8.99707 -12 -8.99707h-36c-4 0 -6.83301 0.666992 -8.5 2s-3.16699 3.66602 -4.5 6.99902l-172 465c-1.33301 3.33301 -1.66602 6.16602 -0.999023 8.49902s3 3.5 7 3.5h37c5.33301 0 9 -3.66699 11 -11l119 -326
c4.66699 -12.667 9 -25 13 -37l9.5 -29.5c3 -9.66699 5.16699 -16.834 6.5 -21.501c1.33301 4.66699 3.66602 11.834 6.99902 21.501l10 30.5l13 39l117 326c1.33301 3.33301 2.5 5.66602 3.5 6.99902s3.16699 2 6.5 2h39c4 0 6.16699 -1 6.5 -3s-0.166992 -4.66699 -1.5 -8
z" />
    <glyph glyph-name="w" unicode="w" horiz-adv-x="672" 
d="M500 9c-2.66699 -6 -7.00098 -8.99707 -13.001 -8.99707h-35c-6.66699 0 -11 3 -13 9l-77 234l-26 83l-28 -89l-73 -228c-2.66699 -6 -6.66699 -9 -12 -9h-35c-6.66699 0 -11 3 -13 9l-153 465c-1.33301 3.33301 -1.66602 6.16602 -0.999023 8.49902s3 3.5 7 3.5h37
c5.33301 0 9 -3.66699 11 -11l96 -302l15 -50l11 -38l7 -25l7.5 25.5l11.5 38.5l15 51l70 227l-23 72c-1.33301 3.33301 -1.66602 6.16602 -0.999023 8.49902s3 3.5 7 3.5h37c5.33301 0 9 -3.66699 11 -11l93 -293c5.33301 -19.333 10.666 -37.333 15.999 -54l12 -41l8 -27
c1.33301 4.66699 4 13.5 8 26.5s8 26.833 12 41.5l16 55l92 295c1.33301 3.33301 2.5 5.66602 3.5 6.99902s3.16699 2 6.5 2h39c4 0 6.16699 -1 6.5 -3s-0.166992 -4.66699 -1.5 -8z" />
    <glyph glyph-name="x" unicode="x" horiz-adv-x="402" 
d="M385 12c1.33301 -2.66699 1.5 -5.33398 0.5 -8.00098s-3.5 -4 -7.5 -4h-40c-3.33301 0 -5.66602 1 -6.99902 3s-3 4.33301 -5 7l-128 193l-127 -193c-2 -2.66699 -3.66699 -5 -5 -7s-3.66602 -3 -6.99902 -3h-41c-4 0 -6.5 1.33301 -7.5 4s-0.5 5.33398 1.5 8.00098
l156 237l-149 226c-2 3.33301 -2.5 6.16602 -1.5 8.49902s3.5 3.5 7.5 3.5h40c3.33301 0 5.66602 -0.833008 6.99902 -2.5s3 -4.16699 5 -7.5l121 -183l122 183c1.33301 3.33301 2.66602 5.83301 3.99902 7.5s4 2.5 8 2.5h40c4 0 6.5 -1.16699 7.5 -3.5
s0.5 -5.16602 -1.5 -8.49902l-150 -226l157 -237v0z" />
    <glyph glyph-name="y" unicode="y" horiz-adv-x="438" 
d="M196 -164c-1.33301 -4 -3.33398 -6.99805 -6.00098 -8.99805s-6.66699 -3 -12 -3h-29c-7.33301 0 -10 4 -8 12l54 156l-176 482c-1.33301 3.33301 -1.66602 6.16602 -0.999023 8.49902s3 3.5 7 3.5h36c5.33301 0 9 -3.66699 11 -11l133 -365l18 -55l17 58l122 365
c1.33301 3.33301 2.5 5.66602 3.5 6.99902s3.16699 2 6.5 2h39c4 0 6.16699 -1 6.5 -3s-0.166992 -4.66699 -1.5 -8z" />
    <glyph glyph-name="z" unicode="z" horiz-adv-x="417" 
d="M382 454c0 -7.33301 -1.16602 -12.6689 -3.49902 -16.002s-4.5 -6.66602 -6.5 -9.99902l-275 -379h269c10.667 0 16 -4.33301 16 -13v-21c0 -5.33301 -1 -9.16602 -3 -11.499s-6.33301 -3.5 -13 -3.5h-324c-7.33301 -0 -11 3.33301 -11 10v18
c0 6.66699 0.666992 11.834 2 15.501s3.66602 7.5 6.99902 11.5l281 385h-259c-6 0 -10 1.16699 -12 3.5s-3 6.16602 -3 11.499v19c0 5.33301 1 8.83301 3 10.5s6 2.5 12 2.5h304c5.33301 0 9.33301 -0.5 12 -1.5s4 -4.16699 4 -9.5v-22v0z" />
    <glyph glyph-name="braceleft" unicode="{" horiz-adv-x="242" 
d="M82 172c0 12 -0.332031 23.8359 -0.999023 35.5029s-2.83398 22.334 -6.50098 32.001s-9 18.167 -16 25.5s-16.833 12.666 -29.5 15.999c-6.66699 2 -10 5.66699 -10 11v14c0 5.33301 3.33301 9 10 11c12.667 4 22.5 9.66699 29.5 17s12.333 16 16 26
s5.83398 20.667 6.50098 32s1 23 1 35l1 193c0 9.33301 0.666992 19 2 29s4.33301 19 9 27s11.667 14.5 21 19.5s21.666 7.5 36.999 7.5c10 0 18.833 -0.666992 26.5 -2l17.5 -3c6.66699 -0.666992 10 -5 10 -13v-15c0 -4.66699 -1 -7.5 -3 -8.5s-4.66699 -1.5 -8 -1.5
l-28 -2c-14 -1.33301 -23 -4.83301 -27 -10.5s-6 -14.5 -6 -26.5v-198c0 -12 -0.666992 -24.5 -2 -37.5s-3.83301 -25 -7.5 -36s-8.83398 -21 -15.501 -30s-15.667 -15.5 -27 -19.5v-2c12 -7.33301 21.333 -15.166 28 -23.499s11.667 -17.333 15 -27
s5.5 -20.334 6.5 -32.001s1.5 -24.834 1.5 -39.501v-209c0 -11.333 2.16699 -19.833 6.5 -25.5s13.5 -9.16699 27.5 -10.5l28 -2c3.33301 -0.666992 6 -1.33398 8 -2.00098s3 -3.33398 3 -8.00098v-16c0 -8 -3.33301 -12.333 -10 -13l-17.5 -3
c-7.66699 -1.33301 -16.5 -2 -26.5 -2c-15.333 0 -27.666 2.83301 -36.999 8.5s-16.333 13 -21 22s-7.66699 18.833 -9 29.5s-2 20.667 -2 30l-1 197v0z" />
    <glyph glyph-name="bar" unicode="|" horiz-adv-x="221" 
d="M134 -101c0 -6 -0.833008 -10 -2.5 -12s-5.16699 -3 -10.5 -3h-20c-5.33301 0 -9.16602 1 -11.499 3s-3.5 6 -3.5 12v782c0 6 1.16699 10 3.5 12s6.16602 3 11.499 3h20c5.33301 0 8.83301 -1 10.5 -3s2.5 -6 2.5 -12v-782v0z" />
    <glyph glyph-name="braceright" unicode="}" horiz-adv-x="242" 
d="M144 -25c0 -9.33301 -0.666016 -19.335 -1.99902 -30.002s-4.33301 -20.5 -9 -29.5s-11.667 -16.333 -21 -22s-21.666 -8.5 -36.999 -8.5c-10 0 -18.833 0.666992 -26.5 2l-17.5 3c-6.66699 0.666992 -10 5 -10 13v16c0 4.66699 1 7.33398 3 8.00098
s4.66699 1.33398 8 2.00098l28 2c14 1.33301 23.167 4.83301 27.5 10.5s6.5 14.167 6.5 25.5v209c0 14.667 0.5 27.834 1.5 39.501s3.16699 22.334 6.5 32.001s8.33301 18.667 15 27s16 16.166 28 23.499v2c-11.333 4 -20.333 10.5 -27 19.5s-11.834 19 -15.501 30
s-6.16699 23 -7.5 36s-2 25.5 -2 37.5v198c0 12 -2 20.833 -6 26.5s-13 9.16699 -27 10.5l-28 2c-3.33301 0 -6 0.5 -8 1.5s-3 3.83301 -3 8.5v15c0 8 3.33301 12.333 10 13l17.5 3c7.66699 1.33301 16.5 2 26.5 2c15.333 0 27.666 -2.5 36.999 -7.5s16.333 -11.5 21 -19.5
s7.66699 -17 9 -27s2 -19.667 2 -29l1 -193c0 -12 0.333008 -23.667 1 -35s2.83398 -22 6.50098 -32s9 -18.667 16 -26s17.167 -13 30.5 -17c6 -2 9 -5.66699 9 -11v-14c0 -4.66699 -3 -8.33398 -9 -11.001c-13.333 -3.33301 -23.5 -8.66602 -30.5 -15.999
s-12.333 -15.833 -16 -25.5s-5.83398 -20.334 -6.50098 -32.001s-1 -23.5 -1 -35.5z" />
    <glyph glyph-name="asciitilde" unicode="~" horiz-adv-x="540" 
d="M363 244c-15.333 0 -31.166 3.33203 -47.499 9.99902s-32.833 14 -49.5 22s-32.667 15.333 -48 22s-29.666 10 -42.999 10c-15.333 0 -28 -3.83301 -38 -11.5s-21.333 -19.167 -34 -34.5c-3.33301 -4 -5.83301 -6.66699 -7.5 -8s-5.16699 -0.666016 -10.5 2.00098l-15 9
c-5.33301 3.33301 -7.5 6.5 -6.5 9.5s2.16699 5.83301 3.5 8.5c14.667 27.333 31.667 46.333 51 57s39 16 59 16c16 0 32.5 -3.33301 49.5 -10s33.833 -13.834 50.5 -21.501l48 -21.5c15.333 -6.66699 29.333 -10 42 -10c16.667 0 29.834 4 39.501 12s19.167 18.333 28.5 31
l7.5 9c2.33301 2.66699 6.16602 2.33398 11.499 -0.999023l15 -9c5.33301 -3.33301 7.66602 -6.33301 6.99902 -9s-1.33398 -4.66699 -2.00098 -6c-14 -25.333 -30 -44.333 -48 -57s-39 -19 -63 -19z" />
    <glyph glyph-name="exclamdown" unicode="&#xa1;" horiz-adv-x="208" 
d="M86 297c0 6 0.832031 10 2.49902 12s5.16699 3 10.5 3h12c4 0 6.66699 -1 8 -3s2.33301 -6 3 -12l13 -470c0 -10.667 -4.33301 -16 -13 -16h-30c-5.33301 0 -9.16602 1 -11.499 3s-3.5 6.33301 -3.5 13zM141.999 445c0 -12.667 -2.49902 -22.667 -7.49902 -30
s-15.833 -11 -32.5 -11c-16 0 -26.5 3.83301 -31.5 11.5s-7.5 17.5 -7.5 29.5c0 11.333 2.16699 21.166 6.5 29.499s15.166 12.5 32.499 12.5s28.333 -4.16699 33 -12.5s7 -18.166 7 -29.499z" />
    <glyph glyph-name="cent" unicode="&#xa2;" horiz-adv-x="543" 
d="M446 28c0.666992 -6.66699 -2.00195 -11.668 -8.00195 -15.001c-15.333 -6 -34 -10.5 -56 -13.5s-43 -5.16699 -63 -6.5v-115c0 -7.33301 -3 -11 -9 -11h-22c-7.33301 0 -11 3.66699 -11 11v114c-40 0.666992 -71.667 7.66699 -95 21s-41.333 31.333 -54 54
s-20.834 49.334 -24.501 80.001s-5.5 64 -5.5 100c0 32 1.83301 62.833 5.5 92.5s11.834 55.834 24.501 78.501s30.667 41.167 54 55.5s55 22.166 95 23.499v116c0 7.33301 3.33301 11 10 11h22c6.66699 0 10 -3.66699 10 -11v-117c19.333 -1.33301 39.833 -3.5 61.5 -6.5
s40.834 -7.83301 57.501 -14.5c6.66699 -2 9.33398 -6.66699 8.00098 -14l-3 -17c-1.33301 -5.33301 -7 -8 -17 -8l-67.5 7c-25.667 2.66699 -48.167 4 -67.5 4c-25.333 0 -46.5 -3.5 -63.5 -10.5s-30.833 -18.333 -41.5 -34s-18.167 -36.167 -22.5 -61.5
s-6.5 -56.333 -6.5 -93c0 -38.667 2.33301 -71.167 7 -97.5s12.334 -47.5 23.001 -63.5s24.5 -27.5 41.5 -34.5s37.833 -10.5 62.5 -10.5c8.66699 0 19 0.333008 31 1s24.167 1.5 36.5 2.5l37 3c12.333 1 23.166 2.16699 32.499 3.5c4.66699 0.666992 8 0.5 10 -0.5
s3.66699 -3.83301 5 -8.5l3 -15v0z" />
    <glyph glyph-name="sterling" unicode="&#xa3;" horiz-adv-x="540" 
d="M77 52c14.667 6.66699 26 16.4971 34 29.4971s13.667 27.5 17 43.5s5.33301 32.5 6 49.5s1 33.5 1 49.5v78h-47c-6 0 -10 1.16699 -12 3.5s-3 6.16602 -3 11.499v17c0 5.33301 1 8.83301 3 10.5s6 2.5 12 2.5h47v155c0 25.333 4.66699 48.333 14 69
s21.833 38.334 37.5 53.001s34.167 26 55.5 34s44 12 68 12c10 0 21.667 -0.5 35 -1.5s27 -2.5 41 -4.5s28.167 -4.66699 42.5 -8s27.5 -7.33301 39.5 -12c3.33301 -1.33301 5.33301 -3.33301 6 -6s0.666992 -5.66699 0 -9l-4 -16
c-0.666992 -2.66699 -1.66699 -5.16699 -3 -7.5s-4.66602 -3.16602 -9.99902 -2.49902c-12.667 1.33301 -24.5 2.83301 -35.5 4.5l-33.5 5c-11.333 1.66699 -23.166 3 -35.499 4s-26.5 1.5 -42.5 1.5c-36.667 0 -65.834 -10.333 -87.501 -31s-32.5 -50.334 -32.5 -89.001
l1 -151h194c6 0 10 -0.833008 12 -2.5s3 -5.16699 3 -10.5v-17c0 -5.33301 -1 -9.16602 -3 -11.499s-6 -3.5 -12 -3.5h-194v-78c0 -16.667 -0.5 -34 -1.5 -52s-3 -35 -6 -51s-7.33301 -30.167 -13 -42.5s-12.834 -21.166 -21.501 -26.499h312c6 0 10 -1.16699 12 -3.5
s3 -6.16602 3 -11.499v-27c0 -5.33301 -1 -8.33301 -3 -9s-6 -1 -12 -1h-387c-7.33301 -0 -11 3.33301 -11 10v22c0 9.33301 4.66699 16 14 20z" />
    <glyph glyph-name="currency" unicode="&#xa4;" horiz-adv-x="503" 
d="M58 281c0 11.333 2.66699 28.002 8 50.002s15 44.333 29 67l-63 62c-4.66699 4 -4.66699 8.33301 0 13l30 30c3.33301 3.33301 6.66602 3.33301 9.99902 0l63 -62c14.667 9.33301 31.334 17 50.001 23s40 9.66699 64 11c24.667 0 46.834 -3.16699 66.501 -9.5
s37.5 -15.166 53.5 -26.499l69 68c2 1.33301 4 2.16602 6 2.49902s4.66699 -1.16699 8 -4.5l29 -28c2.66699 -3.33301 3.66699 -5.83301 3 -7.5s-1.66699 -3.5 -3 -5.5l-69 -69c10.667 -16 18.834 -34.833 24.501 -56.5s8.5 -39.834 8.5 -54.501
c0 -16.667 -2.83301 -36.334 -8.5 -59.001s-15.834 -45 -30.501 -67l71 -70c7.33301 -6 8.66602 -11.333 3.99902 -16l-29 -30c-4 -4 -8.66699 -3.33301 -14 2l-73 72c-15.333 -9.33301 -32.5 -17.166 -51.5 -23.499s-40.5 -9.16602 -64.5 -8.49902
c-21.333 0 -40.833 2.5 -58.5 7.5s-33.5 11.167 -47.5 18.5l-35.5 -36.5c-13 -13.667 -25.167 -25.834 -36.5 -36.501c-1.33301 -2 -3.16602 -3.5 -5.49902 -4.5s-4.83301 -0.166992 -7.5 2.5l-31 28c-3.33301 3.33301 -4.83301 5.83301 -4.5 7.5s1.83301 3.5 4.5 5.5l73 72
c-16.667 22.667 -27.834 46.167 -33.501 70.5s-8.5 45.166 -8.5 62.499zM115 281.002c0 -46 11.333 -82.001 34 -108.001s55.334 -39 98.001 -39c44 0 78.333 13.833 103 41.5s37 62.834 37 105.501c0 44 -12.333 79 -37 105s-59 39 -103 39
c-42.667 0 -75.334 -13 -98.001 -39s-34 -61 -34 -105z" />
    <glyph glyph-name="yen" unicode="&#xa5;" horiz-adv-x="543" 
d="M75 269c-4.66699 0 -7 2.33203 -7 6.99902v28c0 4.66699 2.66699 7 8 7h157l-188 342c-2.66699 6 -0.666992 9 6 9h43c4 0 6.83301 -0.666992 8.5 -2s3.16699 -3.66602 4.5 -6.99902l154 -291l12 -17l82 154.5l82 153.5c3.33301 6 8 9 14 9h40
c7.33301 0 9.33301 -3.33301 6 -10l-189 -341h163c5.33301 0 8 -2.66699 8 -8v-28c0 -4 -2.33301 -6 -7 -6h-397zM471 212.999c5.33301 0 8 -3 8 -9v-27c0 -4 -2.33301 -6 -7 -6h-173v-159c0 -8 -3.66699 -12 -11 -12h-34c-8 0 -12 4 -12 12v159h-167
c-4.66699 0 -7 2.33301 -7 7v28c0 4.66699 2.66699 7 8 7h395z" />
    <glyph glyph-name="brokenbar" unicode="&#xa6;" horiz-adv-x="221" 
d="M134 -101c0 -6 -0.833008 -10 -2.5 -12s-5.16699 -3 -10.5 -3h-20c-5.33301 0 -9.16602 1 -11.499 3s-3.5 6 -3.5 12v358c0 6 1.16699 10 3.5 12s6.16602 3 11.499 3h20c5.33301 0 8.83301 -1 10.5 -3s2.5 -6 2.5 -12v-358zM134 320c0 -6 -0.833008 -10 -2.5 -12
s-5.16699 -3 -10.5 -3h-20c-5.33301 0 -9.16602 1 -11.499 3s-3.5 6 -3.5 12v358c0 6 1.16699 10 3.5 12s6.16602 3 11.499 3h20c5.33301 0 8.83301 -1 10.5 -3s2.5 -6 2.5 -12v-358z" />
    <glyph glyph-name="section" unicode="&#xa7;" horiz-adv-x="410" 
d="M376 260c0 -25.333 -4.49609 -49.333 -13.4961 -72s-25.167 -45.334 -48.5 -68.001c22 -17.333 37 -34.666 45 -51.999s12 -36 12 -56c0 -33.333 -6.66699 -60.5 -20 -81.5s-30 -37.333 -50 -49s-41.333 -19.5 -64 -23.5s-43 -6 -61 -6c-22 0 -44.833 3.16699 -68.5 9.5
s-44.167 14.5 -61.5 24.5c-5.33301 4 -6.66602 9 -3.99902 15l7 15c1.33301 2 2.83301 3.5 4.5 4.5s4.5 0.833008 8.5 -0.5c23.333 -7.33301 43.833 -12.833 61.5 -16.5s35.5 -5.5 53.5 -5.5c17.333 0 34.5 1.83301 51.5 5.5s32.167 9.66699 45.5 18
s24.166 19.666 32.499 33.999s12.5 32.5 12.5 54.5c0 8.66699 -1.83301 17.334 -5.5 26.001s-8.16699 16.667 -13.5 24s-11.5 13.833 -18.5 19.5s-13.833 10.5 -20.5 14.5c-20.667 12 -41.834 22.333 -63.501 31s-43.167 18.334 -64.5 29.001
c-8.66699 4.66699 -18.334 10.5 -29.001 17.5s-20.834 15.5 -30.501 25.5s-17.667 21.333 -24 34s-9.5 27.334 -9.5 44.001c0 22 5 46.333 15 73s25.667 49 47 67c-24 16 -39.667 33 -47 51s-11 37.667 -11 59c0 24 5.5 45 16.5 63s25.333 33 43 45s37.5 21 59.5 27
s44.333 9 67 9c21.333 0 44.333 -2.33301 69 -7s45.667 -12.334 63 -23.001c5.33301 -2.66699 6.66602 -7.66699 3.99902 -15l-7 -15c-1.33301 -4.66699 -5.33301 -6 -12 -4c-14.667 4 -32.334 7.5 -53.001 10.5s-42 4.16699 -64 3.5c-16.667 0 -32.667 -1.66699 -48 -5
s-29.166 -8.5 -41.499 -15.5s-22.5 -16.333 -30.5 -28s-12.333 -26.167 -13 -43.5c-1.33301 -19.333 4 -36 16 -50s24.667 -25 38 -33c21.333 -12.667 42.833 -23.5 64.5 -32.5l65.5 -28.5c26 -12.667 48.333 -28.834 67 -48.501s28 -44.5 28 -74.5zM324.004 243
c0 13.333 -2.16504 25.166 -6.49805 35.499s-10 19.5 -17 27.5s-15 15 -24 21s-18.167 11.333 -27.5 16c-18 9.33301 -36.333 17.666 -55 24.999s-37.334 16 -56.001 26c-14 -13.333 -25.5 -28.666 -34.5 -45.999s-13.5 -35.333 -13.5 -54c0 -25.333 7.5 -45.5 22.5 -60.5
s33.167 -28.167 54.5 -39.5c17.333 -9.33301 36 -17.666 56 -24.999s38.667 -15.333 56 -24c13.333 16 24.166 31.5 32.499 46.5s12.5 32.167 12.5 51.5z" />
    <glyph glyph-name="dieresis" unicode="&#xa8;" horiz-adv-x="485" 
d="M199 605c0 -9.33301 -1.83301 -17.499 -5.5 -24.499s-12.5 -10.5 -26.5 -10.5s-22.833 3.5 -26.5 10.5s-5.5 15.167 -5.5 24.5s2 17.166 6 23.499s12.667 9.5 26 9.5s22 -3 26 -9s6 -14 6 -24zM374 605.001c0 -9.33301 -2 -17.499 -6 -24.499s-12.667 -10.5 -26 -10.5
c-14.667 0 -23.667 3.5 -27 10.5s-5 15.167 -5 24.5s2 17.166 6 23.499s12.667 9.5 26 9.5s22 -3 26 -9s6 -14 6 -24z" />
    <glyph glyph-name="copyright" unicode="&#xa9;" horiz-adv-x="789" 
d="M749 335c0 -48.667 -9.33301 -94.334 -28 -137.001s-44 -79.667 -76 -111s-69.5 -56.166 -112.5 -74.499s-88.833 -27.5 -137.5 -27.5s-94.5 9.16699 -137.5 27.5s-80.5 43.166 -112.5 74.499s-57.167 68.333 -75.5 111s-27.5 88.334 -27.5 137.001
s9.16699 94.334 27.5 137.001s43.5 79.667 75.5 111s69.5 56.166 112.5 74.499s88.833 27.5 137.5 27.5c50 0 96.667 -9.16699 140 -27.5s80.833 -43.166 112.5 -74.499s56.5 -68.333 74.5 -111s27 -88.334 27 -137.001zM710 335c0 43.333 -8.33301 84.166 -25 122.499
s-39.167 71.666 -67.5 99.999s-61.666 50.833 -99.999 67.5s-79.166 25 -122.499 25s-84.166 -8.33301 -122.499 -25s-71.666 -39.167 -99.999 -67.5s-50.666 -61.666 -66.999 -99.999s-24.5 -79.166 -24.5 -122.499s8.16699 -84.166 24.5 -122.499
s38.666 -71.833 66.999 -100.5s61.666 -51.167 99.999 -67.5s79.166 -24.5 122.499 -24.5s84.166 8.16699 122.499 24.5s71.666 38.833 99.999 67.5s50.833 62.167 67.5 100.5s25 79.166 25 122.499zM501 150c0 -2 -0.332031 -4.00195 -0.999023 -6.00195
s-2.33398 -3.66699 -5.00098 -5c-6.66699 -2.66699 -14.834 -4.66699 -24.501 -6s-19.334 -2.5 -29.001 -3.5s-18.667 -1.66699 -27 -2s-14.833 -0.5 -19.5 -0.5c-28.667 0 -52.334 5.33301 -71.001 16s-33.5 24.834 -44.5 42.501s-18.667 38.167 -23 61.5s-6.5 48 -6.5 74
s2 51 6 75s11.333 45.333 22 64s25.667 33.5 45 44.5s44 16.5 74 16.5c6 0 13.167 -0.166992 21.5 -0.5s17 -1 26 -2s18 -2.33301 27 -4s16.833 -3.5 23.5 -5.5c4.66699 -2.66699 6.66699 -6.33398 6 -11.001l-2 -14c0 -1.33301 -0.666992 -3 -2 -5
s-3.66602 -2.66699 -6.99902 -2c-14 1.33301 -29 2.66602 -45 3.99902s-32 2 -48 2c-24 0 -43 -4.83301 -57 -14.5s-24.833 -22.167 -32.5 -37.5s-12.5 -32.666 -14.5 -51.999s-3 -38.666 -3 -57.999s1.33301 -38.166 4 -56.499s7.83398 -35 15.501 -50s18.5 -27 32.5 -36
s32 -13.5 54 -13.5c15.333 0 30.833 0.5 46.5 1.5s30.834 2.16699 45.501 3.5c4.66699 0 7.5 -0.666992 8.5 -2s2.16699 -4 3.5 -8c0 -1.33301 0.166992 -3 0.5 -5s0.5 -3.66699 0.5 -5z" />
    <glyph glyph-name="ordfeminine" unicode="&#xaa;" horiz-adv-x="344" 
d="M253 417h-105c-21.333 0 -38.833 -4.33301 -52.5 -13s-20.5 -26.667 -20.5 -54c0 -19.333 4 -32.833 12 -40.5s22.667 -11.5 44 -11.5c10 0 20.667 1.33301 32 4s22.5 6 33.5 10s21.333 8.16699 31 12.5l25.5 11.5v81zM253 302
c-16.667 -11.333 -35.667 -21.834 -57 -31.501s-47.333 -14.5 -78 -14.5c-32 0 -55.167 7.66699 -69.5 23s-21.5 38 -21.5 68c0 38 10 66 30 84s52 27 96 27h100v24c0 24.667 -5.83301 42.334 -17.5 53.001s-34.834 16 -69.501 16c-15.333 0 -30.666 -0.5 -45.999 -1.5
s-31 -2.83301 -47 -5.5c-8.66699 -2.66699 -13.667 -0.333984 -15 6.99902l-3 13c-2 6.66699 2.66699 11.667 14 15c6.66699 2 14.5 3.83301 23.5 5.5s18.333 3 28 4s19.334 1.83301 29.001 2.5s18.167 1 25.5 1c26 0 47.333 -2.5 64 -7.5s29.5 -12.333 38.5 -22
s15.167 -21.667 18.5 -36s5 -31.166 5 -50.499v-153c0 -13.333 1.66699 -21 5 -23s11 -3.66699 23 -5c6 0 9 -2.33301 9 -7v-16c0 -6 -4.33301 -9.33301 -13 -10c-4.66699 -0.666992 -8.83398 -1 -12.501 -1h-10.5c-17.333 0 -29.333 3.16699 -36 9.5
s-10.667 16.833 -12 31.5h-1z" />
    <glyph glyph-name="guillemotleft" unicode="&#xab;" horiz-adv-x="385" 
d="M349 38c2 -2.66699 2.49805 -4.66602 1.49805 -5.99902s-2.16699 -2 -3.5 -2h-40c-5.33301 0 -9.16602 0.666992 -11.499 2s-4.83301 3.66602 -7.5 6.99902l-100 123c-2 2.66699 -3.33301 5.33398 -4 8.00098s1 6.66699 5 12l96 121
c2.66699 3.33301 5.33398 6.16602 8.00098 8.49902s7 3.5 13 3.5h34c3.33301 0 5.5 -1 6.5 -3s0.5 -4.33301 -1.5 -7l-106 -133zM208.998 38.001c2 -2.66699 2.49805 -4.66602 1.49805 -5.99902s-2.16699 -2 -3.5 -2h-40c-5.33301 0 -9.16602 0.666992 -11.499 2
s-4.83301 3.66602 -7.5 6.99902l-100 123c-2 2.66699 -3.33301 5.33398 -4 8.00098s1 6.66699 5 12l96 121c2.66699 3.33301 5.33398 6.16602 8.00098 8.49902s7 3.5 13 3.5h34c3.33301 0 5.5 -1 6.5 -3s0.5 -4.33301 -1.5 -7l-106 -133z" />
    <glyph glyph-name="logicalnot" unicode="&#xac;" horiz-adv-x="527" 
d="M87 302c-7.33301 0 -11 2.66699 -11 8v32c0 7.33301 4 11 12 11h353c7.33301 0 11 -3.66699 11 -11v-193c0 -8 -3.66699 -12 -11 -12h-26c-5.33301 0 -8 3.66699 -8 11v154h-320v0z" />
    <glyph glyph-name="sfthyphen" unicode="&#xad;" horiz-adv-x="354" 
d="M45 299c-6.66699 0 -10 2.66699 -10 8v33c0 6.66699 4 10 12 10h261c8 0 12 -3.33301 12 -10v-33c0 -5.33301 -3.33301 -8 -10 -8h-265v0z" />
    <glyph glyph-name="registered" unicode="&#xae;" horiz-adv-x="519" 
d="M259 286c-30.667 0 -59.333 5.66699 -86 17s-50 27 -70 47s-35.833 43.333 -47.5 70s-17.5 55.334 -17.5 86.001s5.83301 59.334 17.5 86.001s27.5 49.834 47.5 69.501s43.333 35.167 70 46.5s55.334 17 86.001 17c31.333 0 60.5 -5.66699 87.5 -17
s50.333 -26.833 70 -46.5s35.167 -42.834 46.5 -69.501s17 -55.334 17 -86.001s-5.83301 -59.334 -17.5 -86.001s-27.5 -50 -47.5 -70s-43.333 -35.667 -70 -47s-55.334 -17 -86.001 -17zM259.001 695c-26 0 -50.5 -5 -73.5 -15s-43 -23.5 -60 -40.5s-30.5 -37 -40.5 -60
s-15 -47.5 -15 -73.5s5 -50.667 15 -74s23.5 -43.5 40.5 -60.5s37 -30.5 60 -40.5s47.5 -15 73.5 -15s50.5 5 73.5 15s43 23.5 60 40.5s30.5 37.167 40.5 60.5s15 48 15 74s-5 50.5 -15 73.5s-23.5 43 -40.5 60s-37 30.5 -60 40.5s-47.5 15 -73.5 15zM332.001 369
c-4.66699 0 -8.66602 2.33203 -11.999 6.99902l-48 101h-55v-96c0 -3.33301 -0.5 -6.16602 -1.5 -8.49902s-3.5 -3.5 -7.5 -3.5h-14c-4 0 -6.5 1 -7.5 3s-1.5 4.66699 -1.5 8v248c0 3.33301 1.16699 5.5 3.5 6.5s4.83301 1.5 7.5 1.5h78c20 0 37.833 -6 53.5 -18
s23.5 -32 23.5 -60c0 -15.333 -3.5 -30 -10.5 -44s-19.167 -24.333 -36.5 -31l51 -104c1.33301 -2 1.66602 -4.16699 0.999023 -6.5s-2.66699 -3.5 -6 -3.5h-18zM217.002 605.999v-100h48c6 0 12.167 0.5 18.5 1.5s12 3.33301 17 7s9.16699 9 12.5 16s5 16.5 5 28.5
c0 19.333 -5.33301 32 -16 38s-22.667 9 -36 9h-49z" />
    <glyph glyph-name="macron" unicode="&#xaf;" horiz-adv-x="487" 
d="M391 592c0 -5.33301 -3.33301 -8 -10 -8h-238c-6.66699 0 -10 2.66699 -10 8v31c0 6 3.33301 9 10 9h238c6.66699 0 10 -3 10 -9v-31v0z" />
    <glyph glyph-name="degree" unicode="&#xb0;" horiz-adv-x="337" 
d="M177 664c17.333 0 33.502 -3.33203 48.502 -9.99902s28 -15.834 39 -27.501s19.667 -25 26 -40s9.5 -30.833 9.5 -47.5c0 -17.333 -3.16699 -33.5 -9.5 -48.5s-15 -28 -26 -39s-24 -19.667 -39 -26s-31.167 -9.5 -48.5 -9.5c-40 0 -71 11.833 -93 35.5
s-33 52.834 -33 87.501c0 16.667 3.33301 32.667 10 48s15.667 28.666 27 39.999s24.666 20.333 39.999 27s31.666 10 48.999 10zM256.002 537.001c0 11.333 -2.16797 22.166 -6.50098 32.499s-10.166 19.333 -17.499 27s-16 13.667 -26 18s-20.333 6.5 -31 6.5
c-22.667 0 -41.834 -8.16699 -57.501 -24.5s-23.5 -36.166 -23.5 -59.499c0 -22 7.83301 -40.833 23.5 -56.5s34.834 -23.5 57.501 -23.5c22 0 41 7.83301 57 23.5s24 34.5 24 56.5z" />
    <glyph glyph-name="plusminus" unicode="&#xb1;" horiz-adv-x="543" 
d="M460 313c0 -5.33301 -3.66699 -8 -11 -8h-153v-161c0 -6.66699 -3 -10 -9 -10h-31c-6.66699 0 -10 3.33301 -10 10v161h-153c-6.66699 0 -10 2.66699 -10 8v29c0 6 3.33301 9 10 9h153v155c0 6.66699 3.33301 10 10 10h32c5.33301 0 8 -3.33301 8 -10v-155h153
c3.33301 0 6 -0.5 8 -1.5s3 -3.5 3 -7.5v-29zM459 49c0 -5.33301 -3.33301 -8 -10 -8h-355c-6.66699 0 -10 3 -10 9v26c0 6.66699 3.33301 10 10 10h355c6.66699 0 10 -3.33301 10 -10v-27z" />
    <glyph glyph-name="twosuperior" unicode="&#xb2;" horiz-adv-x="342" 
d="M295 651c0 -25.333 -4.66504 -46.832 -13.998 -64.499s-23.666 -35.834 -42.999 -54.501l-144 -138h197c4 0 7 -0.666992 9 -2s3 -4.66602 3 -9.99902v-18c0 -8 -4 -12 -12 -12h-251c-4 0 -7.16699 0.666992 -9.5 2s-3.5 4.66602 -3.5 9.99902v16
c0 9.33301 3.66699 17 11 23l163 157c12 11.333 22.667 24.166 32 38.499s14 29.833 14 46.5c0 21.333 -6.5 38 -19.5 50s-37.833 18 -74.5 18c-14.667 0 -31.334 -0.5 -50.001 -1.5s-35.667 -2.83301 -51 -5.5c-8 -2 -13 0.666992 -15 8l-3 12c-2 8 1.33301 13.333 10 16
c15.333 4.66699 34.166 8.33398 56.499 11.001s40.166 4 53.499 4c52 0 88.5 -9.66699 109.5 -29s31.5 -45 31.5 -77z" />
    <glyph glyph-name="threesuperior" unicode="&#xb3;" horiz-adv-x="342" 
d="M218 589c28 -4.66699 49.833 -14.335 65.5 -29.002s23.5 -37 23.5 -67s-3.83301 -54.333 -11.5 -73s-18.5 -33.5 -32.5 -44.5s-30.833 -18.5 -50.5 -22.5s-41.167 -6 -64.5 -6c-6.66699 0 -15 0.333008 -25 1s-20.333 1.83398 -31 3.50098s-21.167 3.5 -31.5 5.5
s-19.5 4.33301 -27.5 7c-6.66699 2.66699 -9 7.66699 -7 15l3 12c2 6.66699 7 9.66699 15 9c16 -2.66699 33.667 -4.83398 53 -6.50098s36.666 -2.5 51.999 -2.5c14 0 27.5 1 40.5 3s24.5 6.5 34.5 13.5s18.167 17 24.5 30s9.5 30.5 9.5 52.5c0 18 -6 31.333 -18 40
s-27.667 14.667 -47 18l-74 11c-8.66699 0.666992 -13 5.66699 -13 15v16c0 6 2.66699 11.333 8 16l114 104h-183c-8.66699 0 -13 3.66699 -13 11v19c0 8.66699 4 13 12 13h235c9.33301 0 14 -4.33301 14 -13v-18c0 -5.33301 -1.16699 -9.66602 -3.5 -12.999
s-5.16602 -6.66602 -8.49902 -9.99902l-113 -103z" />
    <glyph glyph-name="acute" unicode="&#xb4;" horiz-adv-x="485" 
d="M266 551c-3.33301 -3.33301 -7 -4 -11 -2l-21 8c-4 2 -5 5.66699 -3 11l69 136c2.66699 4.66699 7 5.66699 13 3l37 -16c5.33301 -2.66699 6 -6.66699 2 -12z" />
    <glyph glyph-name="mu" unicode="&#xb5;" horiz-adv-x="491" 
d="M110 -160c0 -6.66699 -1.16895 -10.998 -3.50195 -12.998s-6.16602 -3 -11.499 -3h-27c-8.66699 0 -13 5.33301 -13 16v632c0 10 5 15 15 15h27c5.33301 0 8.83301 -1 10.5 -3s2.5 -6 2.5 -12v-330c0 -40 7.16699 -67.167 21.5 -81.5s38.5 -21.5 72.5 -21.5
c13.333 0 28.833 2.5 46.5 7.5s35.167 11 52.5 18s33.166 14 47.499 21s25.166 12.5 32.499 16.5v370c0 10 4.66699 15 14 15h26c5.33301 0 8.83301 -1 10.5 -3s2.5 -6 2.5 -12v-457c0 -6 -0.833008 -10 -2.5 -12s-5.16699 -3 -10.5 -3h-26c-5.33301 0 -9.16602 1 -11.499 3
s-3.5 6 -3.5 12v45c-6.66699 -4.66699 -16.334 -10.834 -29.001 -18.501s-27.5 -15.334 -44.5 -23.001s-35.167 -14.167 -54.5 -19.5s-38.666 -8 -57.999 -8s-36.166 2 -50.499 6s-26.166 11 -35.499 21v-178z" />
    <glyph glyph-name="mu" unicode="&#x3bc;" horiz-adv-x="491" 
d="M110 -160c0 -6.66699 -1.16895 -10.998 -3.50195 -12.998s-6.16602 -3 -11.499 -3h-27c-8.66699 0 -13 5.33301 -13 16v632c0 10 5 15 15 15h27c5.33301 0 8.83301 -1 10.5 -3s2.5 -6 2.5 -12v-330c0 -40 7.16699 -67.167 21.5 -81.5s38.5 -21.5 72.5 -21.5
c13.333 0 28.833 2.5 46.5 7.5s35.167 11 52.5 18s33.166 14 47.499 21s25.166 12.5 32.499 16.5v370c0 10 4.66699 15 14 15h26c5.33301 0 8.83301 -1 10.5 -3s2.5 -6 2.5 -12v-457c0 -6 -0.833008 -10 -2.5 -12s-5.16699 -3 -10.5 -3h-26c-5.33301 0 -9.16602 1 -11.499 3
s-3.5 6 -3.5 12v45c-6.66699 -4.66699 -16.334 -10.834 -29.001 -18.501s-27.5 -15.334 -44.5 -23.001s-35.167 -14.167 -54.5 -19.5s-38.666 -8 -57.999 -8s-36.166 2 -50.499 6s-26.166 11 -35.499 21v-178z" />
    <glyph glyph-name="paragraph" unicode="&#xb6;" horiz-adv-x="467" 
d="M410 660c8.66699 0 13.002 -4.33203 13.002 -12.999v-26c0 -9.33301 -4.33301 -14 -13 -14h-31v-684c0 -8.66699 -4.66699 -13 -14 -13h-25c-9.33301 0 -14 4.33301 -14 13v685h-104v-685c0 -8.66699 -4.33301 -13 -13 -13h-25c-10 0 -15 4.33301 -15 13v389
c-25.333 0 -47 5 -65 15s-33 22.833 -45 38.5s-20.833 33.167 -26.5 52.5s-8.5 38.666 -8.5 57.999c0 28.667 4.66699 54.5 14 77.5s22.166 42.333 38.499 58s35.666 27.667 57.999 36s46.5 12.5 72.5 12.5h203z" />
    <glyph glyph-name="periodcentered" unicode="&#xb7;" horiz-adv-x="182" 
d="M130 253c0 -11.333 -2.33301 -20.832 -7 -28.499s-15 -11.5 -31 -11.5c-17.333 0 -28 4 -32 12s-6 17.333 -6 28c0 11.333 2.33301 20.666 7 27.999s15 11 31 11c15.333 0 25.5 -3.5 30.5 -10.5s7.5 -16.5 7.5 -28.5z" />
    <glyph glyph-name="cedilla" unicode="&#xb8;" horiz-adv-x="409" 
d="M254 10l-22 -58c34 -1.33301 56.833 -8.16602 68.5 -20.499s17.5 -27.166 17.5 -44.499c0 -25.333 -9 -44.166 -27 -56.499s-41.667 -18.5 -71 -18.5c-8 0 -18.5 1 -31.5 3s-24.833 4.66699 -35.5 8c-6 1.33301 -8 4.66602 -6 9.99902l3 12
c1.33301 5.33301 5 7.33301 11 6c10 -1.33301 20.167 -2.5 30.5 -3.5s19.166 -1.5 26.499 -1.5c14.667 0 27.334 2.66699 38.001 8s16 15.666 16 30.999c0 13.333 -4.33301 23.166 -13 29.499s-25.667 9.5 -51 9.5c-10.667 0 -14 5.66699 -10 17l29 75z" />
    <glyph glyph-name="onesuperior" unicode="&#xb9;" horiz-adv-x="291" 
d="M253 363c0 -7.33301 -4 -11 -12 -11h-189c-8 0 -12 3.66699 -12 11v19c0 5.33301 1 8.66602 3 9.99902s5 2 9 2h68v302h-67c-8.66699 0 -13 3.66699 -13 11v10c0 3.33301 0.5 6 1.5 8s3.5 3.66699 7.5 5c10.667 3.33301 21.334 6.5 32.001 9.5l33 9.5
c2.66699 0 6 0.666992 10 2s7.66699 2 11 2h19c7.33301 0 11.666 -1.33301 12.999 -4s2 -5.66699 2 -9v-346h72c4 0 7 -0.666992 9 -2s3 -4.66602 3 -9.99902v-19v0z" />
    <glyph glyph-name="ordmasculine" unicode="&#xba;" horiz-adv-x="338" 
d="M309 430c0 -20 -1.16602 -40.334 -3.49902 -61.001s-8.16602 -39.334 -17.499 -56.001s-23.5 -30.334 -42.5 -41.001s-45.167 -16 -78.5 -16c-32.667 0 -58.334 5.33301 -77.001 16s-32.5 24.334 -41.5 41.001s-14.5 35.334 -16.5 56.001s-3 41 -3 61
c0 16 1.33301 33.333 4 52s8.66699 36.167 18 52.5s23.166 29.833 41.499 40.5s43.166 16 74.499 16c30.667 0 55.334 -4.66699 74.001 -14s33 -21.666 43 -36.999s16.667 -32.5 20 -51.5s5 -38.5 5 -58.5zM261.001 423.999c0 20 -1.16602 37.665 -3.49902 52.998
s-7 28.166 -14 38.499s-16.5 18.333 -28.5 24s-28 8.5 -48 8.5c-18.667 0 -33.834 -2.83301 -45.501 -8.5s-20.834 -14 -27.501 -25s-11.167 -24.167 -13.5 -39.5s-3.5 -32.333 -3.5 -51c0 -19.333 1.16699 -36.666 3.5 -51.999s6.83301 -28.5 13.5 -39.5
s15.834 -19.333 27.501 -25s26.834 -8.5 45.501 -8.5c19.333 0 35.166 2.83301 47.499 8.5s22 13.834 29 24.501s11.667 23.834 14 39.501s3.5 33.167 3.5 52.5z" />
    <glyph glyph-name="guillemotright" unicode="&#xbb;" horiz-adv-x="385" 
d="M241 39c-2.66699 -3.33301 -5.16895 -5.66699 -7.50195 -7s-6.16602 -2 -11.499 -2h-40c-1.33301 0 -2.5 0.666992 -3.5 2s-0.5 3.33301 1.5 6l110 134l-106 133c-2 2.66699 -2.5 5 -1.5 7s3.16699 3 6.5 3h34c6 0 10.333 -1.16699 13 -3.5
s5.33398 -5.16602 8.00098 -8.49902l96 -121c4 -5.33301 5.66699 -9.33301 5 -12s-2 -5.33398 -4 -8.00098zM100.998 38.999c-2.66699 -3.33301 -5.16895 -5.66699 -7.50195 -7s-6.16602 -2 -11.499 -2h-40c-1.33301 0 -2.5 0.666992 -3.5 2s-0.5 3.33301 1.5 6l110 134
l-106 133c-2 2.66699 -2.5 5 -1.5 7s3.16699 3 6.5 3h34c6 0 10.333 -1.16699 13 -3.5s5.33398 -5.16602 8.00098 -8.49902l96 -121c4 -5.33301 5.66699 -9.33301 5 -12s-2 -5.33398 -4 -8.00098z" />
    <glyph glyph-name="onequarter" unicode="&#xbc;" horiz-adv-x="780" 
d="M302 273c0 -7.33301 -4 -11 -12 -11h-189c-8 0 -12 3.66699 -12 11v19c0 5.33301 1 8.66602 3 9.99902s5 2 9 2h68v302h-67c-8.66699 0 -13 3.66699 -13 11v10c0 3.33301 0.5 6 1.5 8s3.5 3.66699 7.5 5c10.667 3.33301 21.334 6.5 32.001 9.5l33 9.5
c2.66699 0 6 0.666992 10 2s7.66699 2 11 2h19c7.33301 0 11.666 -1.33301 12.999 -4s2 -5.66699 2 -9v-346h72c4 0 7 -0.666992 9 -2s3 -4.66602 3 -9.99902v-19zM277 -14c-2 -6 -5.66504 -8.99902 -10.998 -8.99902h-26c-6.66699 0 -9 3.66699 -7 11l274 703
c1.33301 3.33301 2.66602 5.66602 3.99902 6.99902s3.66602 2 6.99902 2h27c6 0 8 -3.33301 6 -10zM691.002 120.001c0 -7.33301 -4 -10.998 -12 -10.998h-47v-95c0 -8.66699 -4 -13 -12 -13h-23c-8 0 -12 4 -12 12v96h-205c-8.66699 0 -13 3.66699 -13 11v18
c0 7.33301 2.66699 13.666 8 18.999l208 235c3.33301 3.33301 6 5.66602 8 6.99902s5.66699 2 11 2h18c8 0 12 -3.66699 12 -11v-238h47c8 0 12 -4 12 -12v-20zM585.002 331.003l-156 -179h156v179z" />
    <glyph glyph-name="onehalf" unicode="&#xbd;" horiz-adv-x="780" 
d="M707 299c0 -25.333 -4.66504 -46.832 -13.998 -64.499s-23.666 -35.834 -42.999 -54.501l-144 -138h197c4 0 7 -0.666992 9 -2s3 -4.66602 3 -9.99902v-18c0 -8 -4 -12 -12 -12h-251c-4 0 -7.16699 0.666992 -9.5 2s-3.5 4.66602 -3.5 9.99902v16
c0 9.33301 3.66699 17 11 23l163 157c12 11.333 22.667 24.166 32 38.499s14 29.833 14 46.5c0 21.333 -6.5 38 -19.5 50s-37.833 18 -74.5 18c-14.667 0 -31.334 -0.5 -50.001 -1.5s-35.667 -2.83301 -51 -5.5c-8 -2 -13 0.666992 -15 8l-3 12c-2 8 1.33301 13.333 10 16
c15.333 4.66699 34.166 8.33398 56.499 11.001s40.166 4 53.499 4c52 0 88.5 -9.66699 109.5 -29s31.5 -45 31.5 -77zM257.002 -13.999c-2 -6 -5.66504 -8.99902 -10.998 -8.99902h-26c-6.66699 0 -9 3.66699 -7 11l274 703
c1.33301 3.33301 2.66602 5.66602 3.99902 6.99902s3.66602 2 6.99902 2h27c6 0 8 -3.33301 6 -10zM277.004 273.002c0 -7.33301 -4 -11 -12 -11h-189c-8 0 -12 3.66699 -12 11v19c0 5.33301 1 8.66602 3 9.99902s5 2 9 2h68v302h-67c-8.66699 0 -13 3.66699 -13 11v10
c0 3.33301 0.5 6 1.5 8s3.5 3.66699 7.5 5c10.667 3.33301 21.334 6.5 32.001 9.5l33 9.5c2.66699 0 6 0.666992 10 2s7.66699 2 11 2h19c7.33301 0 11.666 -1.33301 12.999 -4s2 -5.66699 2 -9v-346h72c4 0 7 -0.666992 9 -2s3 -4.66602 3 -9.99902v-19z" />
    <glyph glyph-name="threequarters" unicode="&#xbe;" horiz-adv-x="780" 
d="M248 499c28 -4.66699 49.833 -14.335 65.5 -29.002s23.5 -37 23.5 -67s-3.83301 -54.333 -11.5 -73s-18.5 -33.5 -32.5 -44.5s-30.833 -18.5 -50.5 -22.5s-41.167 -6 -64.5 -6c-6.66699 0 -15 0.333008 -25 1s-20.333 1.83398 -31 3.50098s-21.167 3.5 -31.5 5.5
s-19.5 4.33301 -27.5 7c-6.66699 2.66699 -9 7.66699 -7 15l3 12c2 6.66699 7 9.66699 15 9c16 -2.66699 33.667 -4.83398 53 -6.50098s36.666 -2.5 51.999 -2.5c14 0 27.5 1 40.5 3s24.5 6.5 34.5 13.5s18.167 17 24.5 30s9.5 30.5 9.5 52.5c0 18 -6 31.333 -18 40
s-27.667 14.667 -47 18l-74 11c-8.66699 0.666992 -13 5.66699 -13 15v16c0 6 2.66699 11.333 8 16l114 104h-183c-8.66699 0 -13 3.66699 -13 11v19c0 8.66699 4 13 12 13h235c9.33301 0 14 -4.33301 14 -13v-18c0 -5.33301 -1.16699 -9.66602 -3.5 -12.999
s-5.16602 -6.66602 -8.49902 -9.99902l-113 -103zM296 -14.001c-2 -6 -5.66504 -8.99902 -10.998 -8.99902h-26c-6.66699 0 -9 3.66699 -7 11l274 703c1.33301 3.33301 2.66602 5.66602 3.99902 6.99902s3.66602 2 6.99902 2h27c6 0 8 -3.33301 6 -10zM725.002 120
c0 -7.33301 -4 -10.998 -12 -10.998h-47v-95c0 -8.66699 -4 -13 -12 -13h-23c-8 0 -12 4 -12 12v96h-205c-8.66699 0 -13 3.66699 -13 11v18c0 7.33301 2.66699 13.666 8 18.999l208 235c3.33301 3.33301 6 5.66602 8 6.99902s5.66699 2 11 2h18c8 0 12 -3.66699 12 -11
v-238h47c8 0 12 -4 12 -12v-20zM619.002 331.002l-156 -179h156v179z" />
    <glyph glyph-name="questiondown" unicode="&#xbf;" horiz-adv-x="348" 
d="M30 -49c0 16 2.33203 30.3281 6.99902 42.9951s10.667 23.834 18 33.501s15.833 18.334 25.5 26.001l28.5 22.5c14.667 10.667 28.5 21.5 41.5 32.5s24.333 23 34 36s17.334 27.333 23.001 43s8.5 33.5 8.5 53.5c0 2.66699 0.166992 6.83398 0.5 12.501
s0.5 11.667 0.5 18s-0.166992 12.333 -0.5 18s-0.5 10.5 -0.5 14.5c0 7.33301 3.33301 11 10 11h24c8 0 12.333 -3.33301 13 -10c2 -14.667 3 -28.5 3 -41.5v-32.5c0 -20.667 -3.16699 -39.5 -9.5 -56.5s-15 -33 -26 -48s-23.5 -28.833 -37.5 -41.5s-28.667 -25 -44 -37
l-26 -20.5c-8 -6.33301 -15 -13 -21 -20s-10.667 -14.667 -14 -23s-5 -18.166 -5 -29.499c0 -37.333 11 -63.5 33 -78.5s57 -22.5 105 -22.5c15.333 0 30.833 0.666992 46.5 2l46.5 4c5.33301 0 8.83301 -1.16699 10.5 -3.5s2.5 -4.83301 2.5 -7.5l3 -16
c1.33301 -7.33301 -1 -12.333 -7 -15c-15.333 -5.33301 -32.5 -9.16602 -51.5 -11.499s-38.167 -3.5 -57.5 -3.5c-61.333 0 -107.333 12.667 -138 38s-46 62 -46 110zM190.999 443.995c0 11.333 2.33398 21.166 7.00098 29.499s15.334 12.5 32.001 12.5
c17.333 0 28.166 -4.16699 32.499 -12.5s6.5 -18.166 6.5 -29.499c0 -12 -2.5 -21.833 -7.5 -29.5s-15.5 -11.5 -31.5 -11.5c-16.667 0 -27.334 3.66699 -32.001 11s-7 17.333 -7 30z" />
    <glyph glyph-name="Agrave" unicode="&#xc0;" horiz-adv-x="532" 
d="M464 0c-7.33301 0 -11.999 3.33398 -13.999 10.001l-53 173h-267l-54 -169c-2 -6 -4.5 -9.83301 -7.5 -11.5s-7.16699 -2.5 -12.5 -2.5h-28c-7.33301 0 -9.66602 4 -6.99902 12l206 636c1.33301 5.33301 3 9.16602 5 11.499s5.66699 3.5 11 3.5h42
c5.33301 0 9.16602 -1.5 11.499 -4.5s4.16602 -6.5 5.49902 -10.5l208 -638c2.66699 -6.66699 1 -10 -5 -10h-41zM293.001 513.001l-13.5 44.5c-3 9.66699 -5.16699 17 -6.5 22l-3.5 13c-1 3.66699 -2.5 9.83398 -4.5 18.501h-2c-2 -8.66699 -3.5 -14.834 -4.5 -18.501
s-2.33301 -8 -4 -13l-7 -21.5l-13.5 -44l-88 -281h235zM145.001 823.001c2.66699 3.33301 4.49805 5.16699 5.49805 5.5s3.16699 -0.166992 6.5 -1.5l124 -89c4.66699 -3.33301 5.33398 -7 2.00098 -11l-15 -17c-3.33301 -3.33301 -6.66602 -4 -9.99902 -2l-136 72
c-2 1.33301 -3.5 3 -4.5 5s-0.5 4.33301 1.5 7z" />
    <glyph glyph-name="Aacute" unicode="&#xc1;" horiz-adv-x="532" 
d="M464 0c-7.33301 0 -11.999 3.33398 -13.999 10.001l-53 173h-267l-54 -169c-2 -6 -4.5 -9.83301 -7.5 -11.5s-7.16699 -2.5 -12.5 -2.5h-28c-7.33301 0 -9.66602 4 -6.99902 12l206 636c1.33301 5.33301 3 9.16602 5 11.499s5.66699 3.5 11 3.5h42
c5.33301 0 9.16602 -1.5 11.499 -4.5s4.16602 -6.5 5.49902 -10.5l208 -638c2.66699 -6.66699 1 -10 -5 -10h-41zM293.001 513.001l-13.5 44.5c-3 9.66699 -5.16699 17 -6.5 22l-3.5 13c-1 3.66699 -2.5 9.83398 -4.5 18.501h-2c-2 -8.66699 -3.5 -14.834 -4.5 -18.501
s-2.33301 -8 -4 -13l-7 -21.5l-13.5 -44l-88 -281h235zM407.001 791.001c3.33301 -5.33301 2.33398 -9.33301 -2.99902 -12l-136 -72c-4 -2 -7.66699 -1.33301 -11 2l-15 18c-3.33301 3.33301 -2.33301 6.66602 3 9.99902l124 89c3.33301 2 5.66602 2.83301 6.99902 2.5
s3.33301 -2.16602 6 -5.49902z" />
    <glyph glyph-name="Acircumflex" unicode="&#xc2;" horiz-adv-x="532" 
d="M464 0c-7.33301 0 -11.999 3.33398 -13.999 10.001l-53 173h-267l-54 -169c-2 -6 -4.5 -9.83301 -7.5 -11.5s-7.16699 -2.5 -12.5 -2.5h-28c-7.33301 0 -9.66602 4 -6.99902 12l206 636c1.33301 5.33301 3 9.16602 5 11.499s5.66699 3.5 11 3.5h42
c5.33301 0 9.16602 -1.5 11.499 -4.5s4.16602 -6.5 5.49902 -10.5l208 -638c2.66699 -6.66699 1 -10 -5 -10h-41zM293.001 513.001l-13.5 44.5c-3 9.66699 -5.16699 17 -6.5 22l-3.5 13c-1 3.66699 -2.5 9.83398 -4.5 18.501h-2c-2 -8.66699 -3.5 -14.834 -4.5 -18.501
s-2.33301 -8 -4 -13l-7 -21.5l-13.5 -44l-88 -281h235zM392.001 706.001c-4.66699 -2.66699 -8.66895 -2.66602 -12.002 0.000976562l-115 79l-113 -79c-3.33301 -2 -5.66602 -3.16699 -6.99902 -3.5s-3.66602 0.5 -6.99902 2.5l-15 15
c-2.66699 3.33301 -2.66699 6.66602 0 9.99902l99 90c4 3.33301 7.5 5.66602 10.5 6.99902s6.5 2 10.5 2h45c5.33301 0 9.5 -0.666992 12.5 -2s6.16699 -3.66602 9.5 -6.99902l96 -88c4.66699 -4 5 -8 1 -12z" />
    <glyph glyph-name="Atilde" unicode="&#xc3;" horiz-adv-x="532" 
d="M464 0c-7.33301 0 -11.999 3.33398 -13.999 10.001l-53 173h-267l-54 -169c-2 -6 -4.5 -9.83301 -7.5 -11.5s-7.16699 -2.5 -12.5 -2.5h-28c-7.33301 0 -9.66602 4 -6.99902 12l206 636c1.33301 5.33301 3 9.16602 5 11.499s5.66699 3.5 11 3.5h42
c5.33301 0 9.16602 -1.5 11.499 -4.5s4.16602 -6.5 5.49902 -10.5l208 -638c2.66699 -6.66699 1 -10 -5 -10h-41zM293.001 513.001l-13.5 44.5c-3 9.66699 -5.16699 17 -6.5 22l-3.5 13c-1 3.66699 -2.5 9.83398 -4.5 18.501h-2c-2 -8.66699 -3.5 -14.834 -4.5 -18.501
s-2.33301 -8 -4 -13l-7 -21.5l-13.5 -44l-88 -281h235zM341.001 703.001c-12 0 -24.499 2.83496 -37.499 8.50195s-25.833 11.667 -38.5 18l-37 18c-12 5.66699 -23 8.5 -33 8.5c-7.33301 0 -15.5 -2.83301 -24.5 -8.5s-18.167 -15.5 -27.5 -29.5
c-2.66699 -4 -5 -6.5 -7 -7.5s-5.33301 -0.5 -10 1.5l-14 6c-4 1.33301 -5.83301 3.66602 -5.5 6.99902s1.16602 6.66602 2.49902 9.99902c11.333 25.333 24.833 43.166 40.5 53.499s31.5 15.5 47.5 15.5c12 0 24.5 -2.83301 37.5 -8.5s25.833 -11.667 38.5 -18l36.5 -18
c11.667 -5.66699 22.167 -8.5 31.5 -8.5c12 0 21.667 3.5 29 10.5s14.333 16.167 21 27.5c2 3.33301 3.83301 5.66602 5.5 6.99902s4.83398 1 9.50098 -1l16 -6c4 -1.33301 5.66699 -3.66602 5 -6.99902s-1.33398 -5.66602 -2.00098 -6.99902
c-17.333 -48 -45.333 -72 -84 -72z" />
    <glyph glyph-name="Adieresis" unicode="&#xc4;" horiz-adv-x="532" 
d="M464 0c-7.33301 0 -11.999 3.33398 -13.999 10.001l-53 173h-267l-54 -169c-2 -6 -4.5 -9.83301 -7.5 -11.5s-7.16699 -2.5 -12.5 -2.5h-28c-7.33301 0 -9.66602 4 -6.99902 12l206 636c1.33301 5.33301 3 9.16602 5 11.499s5.66699 3.5 11 3.5h42
c5.33301 0 9.16602 -1.5 11.499 -4.5s4.16602 -6.5 5.49902 -10.5l208 -638c2.66699 -6.66699 1 -10 -5 -10h-41zM293.001 513.001l-13.5 44.5c-3 9.66699 -5.16699 17 -6.5 22l-3.5 13c-1 3.66699 -2.5 9.83398 -4.5 18.501h-2c-2 -8.66699 -3.5 -14.834 -4.5 -18.501
s-2.33301 -8 -4 -13l-7 -21.5l-13.5 -44l-88 -281h235zM375.001 756.001c0 -10 -1.99805 -18.332 -5.99805 -24.999s-12.667 -10 -26 -10c-14.667 0 -23.834 3.5 -27.501 10.5s-5.5 15.167 -5.5 24.5s2.16699 17.166 6.5 23.499s13.166 9.5 26.499 9.5s22 -3 26 -9
s6 -14 6 -24zM208.003 756.002c0 -10 -1.83301 -18.332 -5.5 -24.999s-12.5 -10 -26.5 -10c-14.667 0 -23.667 3.5 -27 10.5s-5 15.167 -5 24.5s2 17.166 6 23.499s12.667 9.5 26 9.5c14 0 22.833 -3 26.5 -9s5.5 -14 5.5 -24z" />
    <glyph glyph-name="Aring" unicode="&#xc5;" horiz-adv-x="532" 
d="M464 0c-7.33301 0 -11.999 3.33398 -13.999 10.001l-53 173h-267l-54 -169c-2 -6 -4.5 -9.83301 -7.5 -11.5s-7.16699 -2.5 -12.5 -2.5h-28c-7.33301 0 -9.66602 4 -6.99902 12l206 636c1.33301 5.33301 3 9.16602 5 11.499s5.66699 3.5 11 3.5h42
c5.33301 0 9.16602 -1.5 11.499 -4.5s4.16602 -6.5 5.49902 -10.5l208 -638c2.66699 -6.66699 1 -10 -5 -10h-41zM293.001 513.001l-13.5 44.5c-3 9.66699 -5.16699 17 -6.5 22l-3.5 13c-1 3.66699 -2.5 9.83398 -4.5 18.501h-2c-2 -8.66699 -3.5 -14.834 -4.5 -18.501
s-2.33301 -8 -4 -13l-7 -21.5l-13.5 -44l-88 -281h235zM266.001 870.001c13.333 0 25.666 -2.49902 36.999 -7.49902s21.333 -11.833 30 -20.5s15.334 -18.667 20.001 -30s7 -23.333 7 -36s-2.33301 -24.667 -7 -36s-11.334 -21.166 -20.001 -29.499s-18.667 -15 -30 -20
s-23.666 -7.5 -36.999 -7.5c-12.667 0 -24.667 2.33301 -36 7s-21.5 11.167 -30.5 19.5s-16.167 18.166 -21.5 29.499s-8 23.666 -8 36.999s2.66699 25.833 8 37.5s12.5 21.667 21.5 30s19.167 14.833 30.5 19.5s23.333 7 36 7zM321.001 776.002
c0 15.333 -5.33301 28.833 -16 40.5s-23.667 17.5 -39 17.5s-28.333 -5.83301 -39 -17.5s-16 -25.167 -16 -40.5c0 -16 5 -29.5 15 -40.5s23.333 -16.5 40 -16.5c15.333 0 28.333 5.5 39 16.5s16 24.5 16 40.5z" />
    <glyph glyph-name="AE" unicode="&#xc6;" horiz-adv-x="812" 
d="M406 0c-7.33301 0 -11 3.33301 -11 10v172h-232l-87 -171c-2.66699 -5.33301 -5 -8.5 -7 -9.5s-4.66699 -1.5 -8 -1.5h-37c-5.33301 0 -8 1.66699 -8 5l2 6l320 641c2.66699 7.33301 7.66699 11 15 11h397c7.33301 0 11 -3.66699 11 -11v-31
c0 -7.33301 -3.66699 -11 -11 -11h-299v-240h269c7.33301 0 11 -3.33301 11 -10v-30c0 -7.33301 -3.66699 -11 -11 -11h-269v-267h306c7.33301 0 11 -3.66699 11 -11v-31c0 -6.66699 -4 -10 -12 -10h-350zM371 610l-37 -76.5l-42 -86.5l-103 -213h206v376h-24z" />
    <glyph glyph-name="Ccedilla" unicode="&#xc7;" horiz-adv-x="512" 
d="M120 324c0 -34 2.16895 -67.8379 6.50195 -101.505s13.166 -63.667 26.499 -90s32.166 -47.666 56.499 -63.999s56.833 -24.5 97.5 -24.5c32 0 61.5 1.66699 88.5 5l78.5 10c5.33301 0.666992 8.66602 -0.166016 9.99902 -2.49902s2.33301 -4.5 3 -6.5l4 -17
c0.666992 -3.33301 0.666992 -6.33301 0 -9s-2.66699 -4.66699 -6 -6c-12 -4.66699 -26 -8.66699 -42 -12s-32.333 -6 -49 -8s-32.5 -3.5 -47.5 -4.5s-27.5 -1.5 -37.5 -1.5h-3l-15 -40c34 -1.33301 56.833 -8.16602 68.5 -20.499s17.5 -27.166 17.5 -44.499
c0 -25.333 -9 -44.166 -27 -56.499s-41.667 -18.5 -71 -18.5c-8 0 -18.5 1 -31.5 3s-24.833 4.66699 -35.5 8c-6 1.33301 -8 4.66602 -6 9.99902l3 12c1.33301 5.33301 5 7.33301 11 6c10 -1.33301 20.167 -2.5 30.5 -3.5s19.166 -1.5 26.499 -1.5
c14.667 0 27.334 2.66699 38.001 8s16 15.666 16 30.999c0 13.333 -4.33301 23.166 -13 29.499s-25.667 9.5 -51 9.5c-10.667 0 -14 5.66699 -10 17l20 53c-44 4 -80 15.5 -108 34.5s-49.833 43.333 -65.5 73s-26.5 63.667 -32.5 102s-9 78.5 -9 120.5
c0 45.333 3.16699 88.833 9.5 130.5s18.5 78.5 36.5 110.5s43 57.5 75 76.5s74 28.5 126 28.5c10 0 22.5 -0.5 37.5 -1.5s30.833 -2.5 47.5 -4.5s33 -4.66699 49 -8s30 -7.33301 42 -12c3.33301 -1.33301 5.33301 -3.33301 6 -6s0.666992 -5.66699 0 -9l-4 -16
c-0.666992 -2.66699 -1.66699 -5.16699 -3 -7.5s-4.66602 -3.16602 -9.99902 -2.49902l-78.5 10c-27 3.33301 -56.5 5 -88.5 5c-42.667 0 -76.5 -8.33301 -101.5 -25s-43.833 -38.667 -56.5 -66s-20.667 -58.666 -24 -93.999s-5 -71.666 -5 -108.999z" />
    <glyph glyph-name="Egrave" unicode="&#xc8;" horiz-adv-x="476" 
d="M126 319v-267.002h300c6 0 10 -1.16699 12 -3.5s3 -6.16602 3 -11.499v-24c0 -5.33301 -1 -8.83301 -3 -10.5s-6 -2.5 -12 -2.5h-342c-6 0 -10 0.833008 -12 2.5s-3 5.16699 -3 10.5v636c0 4.66699 1 8.16699 3 10.5s6 3.5 12 3.5h335c6 0 10 -1 12 -3s3 -5.33301 3 -10
v-25c0 -5.33301 -1 -9 -3 -11s-6 -3 -12 -3h-293v-241h263c6 0 10 -0.833008 12 -2.5s3 -5.16699 3 -10.5v-23c0 -5.33301 -1 -9.16602 -3 -11.499s-6 -3.5 -12 -3.5h-263zM145 822.998c2.66699 3.33301 4.49805 5.16699 5.49805 5.5s3.16699 -0.166992 6.5 -1.5l124 -89
c4.66699 -3.33301 5.33398 -7 2.00098 -11l-15 -17c-3.33301 -3.33301 -6.66602 -4 -9.99902 -2l-136 72c-2 1.33301 -3.5 3 -4.5 5s-0.5 4.33301 1.5 7z" />
    <glyph glyph-name="Eacute" unicode="&#xc9;" horiz-adv-x="476" 
d="M126 319v-267.002h300c6 0 10 -1.16699 12 -3.5s3 -6.16602 3 -11.499v-24c0 -5.33301 -1 -8.83301 -3 -10.5s-6 -2.5 -12 -2.5h-342c-6 0 -10 0.833008 -12 2.5s-3 5.16699 -3 10.5v636c0 4.66699 1 8.16699 3 10.5s6 3.5 12 3.5h335c6 0 10 -1 12 -3s3 -5.33301 3 -10
v-25c0 -5.33301 -1 -9 -3 -11s-6 -3 -12 -3h-293v-241h263c6 0 10 -0.833008 12 -2.5s3 -5.16699 3 -10.5v-23c0 -5.33301 -1 -9.16602 -3 -11.499s-6 -3.5 -12 -3.5h-263zM387 790.998c3.33301 -5.33301 2.33398 -9.33301 -2.99902 -12l-136 -72
c-4 -2 -7.66699 -1.33301 -11 2l-15 18c-3.33301 3.33301 -2.33301 6.66602 3 9.99902l124 89c3.33301 2 5.66602 2.83301 6.99902 2.5s3.33301 -2.16602 6 -5.49902z" />
    <glyph glyph-name="Ecircumflex" unicode="&#xca;" horiz-adv-x="476" 
d="M126 319v-267.002h300c6 0 10 -1.16699 12 -3.5s3 -6.16602 3 -11.499v-24c0 -5.33301 -1 -8.83301 -3 -10.5s-6 -2.5 -12 -2.5h-342c-6 0 -10 0.833008 -12 2.5s-3 5.16699 -3 10.5v636c0 4.66699 1 8.16699 3 10.5s6 3.5 12 3.5h335c6 0 10 -1 12 -3s3 -5.33301 3 -10
v-25c0 -5.33301 -1 -9 -3 -11s-6 -3 -12 -3h-293v-241h263c6 0 10 -0.833008 12 -2.5s3 -5.16699 3 -10.5v-23c0 -5.33301 -1 -9.16602 -3 -11.499s-6 -3.5 -12 -3.5h-263zM385 705.998c-4.66699 -2.66699 -8.66895 -2.66602 -12.002 0.000976562l-115 79l-113 -79
c-3.33301 -2 -5.66602 -3.16699 -6.99902 -3.5s-3.66602 0.5 -6.99902 2.5l-15 15c-2.66699 3.33301 -2.66699 6.66602 0 9.99902l99 90c4 3.33301 7.5 5.66602 10.5 6.99902s6.5 2 10.5 2h45c5.33301 0 9.5 -0.666992 12.5 -2s6.16699 -3.66602 9.5 -6.99902l96 -88
c4.66699 -4 5 -8 1 -12z" />
    <glyph glyph-name="Edieresis" unicode="&#xcb;" horiz-adv-x="476" 
d="M126 319v-267.002h300c6 0 10 -1.16699 12 -3.5s3 -6.16602 3 -11.499v-24c0 -5.33301 -1 -8.83301 -3 -10.5s-6 -2.5 -12 -2.5h-342c-6 0 -10 0.833008 -12 2.5s-3 5.16699 -3 10.5v636c0 4.66699 1 8.16699 3 10.5s6 3.5 12 3.5h335c6 0 10 -1 12 -3s3 -5.33301 3 -10
v-25c0 -5.33301 -1 -9 -3 -11s-6 -3 -12 -3h-293v-241h263c6 0 10 -0.833008 12 -2.5s3 -5.16699 3 -10.5v-23c0 -5.33301 -1 -9.16602 -3 -11.499s-6 -3.5 -12 -3.5h-263zM367 755.998c0 -10 -1.99805 -18.332 -5.99805 -24.999s-12.667 -10 -26 -10
c-14.667 0 -23.834 3.5 -27.501 10.5s-5.5 15.167 -5.5 24.5s2.16699 17.166 6.5 23.499s13.166 9.5 26.499 9.5s22 -3 26 -9s6 -14 6 -24zM200.002 755.999c0 -10 -1.83301 -18.332 -5.5 -24.999s-12.5 -10 -26.5 -10c-14.667 0 -23.667 3.5 -27 10.5s-5 15.167 -5 24.5
s2 17.166 6 23.499s12.667 9.5 26 9.5c14 0 22.833 -3 26.5 -9s5.5 -14 5.5 -24z" />
    <glyph glyph-name="Igrave" unicode="&#xcc;" horiz-adv-x="234" 
d="M89 647c0 6.66699 1.16699 11 3.5 13s6.16602 3 11.499 3h28c8.66699 0 13 -5.33301 13 -16v-632c0 -6 -0.833008 -10 -2.5 -12s-5.16699 -3 -10.5 -3h-28c-5.33301 0 -9.16602 1 -11.499 3s-3.5 6 -3.5 12v632zM0 823c2.66699 3.33301 4.49805 5.16699 5.49805 5.5
s3.16699 -0.166992 6.5 -1.5l124 -89c4.66699 -3.33301 5.33398 -7 2.00098 -11l-15 -17c-3.33301 -3.33301 -6.66602 -4 -9.99902 -2l-136 72c-2 1.33301 -3.5 3 -4.5 5s-0.5 4.33301 1.5 7z" />
    <glyph glyph-name="Iacute" unicode="&#xcd;" horiz-adv-x="234" 
d="M89 647c0 6.66699 1.16699 11 3.5 13s6.16602 3 11.499 3h28c8.66699 0 13 -5.33301 13 -16v-632c0 -6 -0.833008 -10 -2.5 -12s-5.16699 -3 -10.5 -3h-28c-5.33301 0 -9.16602 1 -11.499 3s-3.5 6 -3.5 12v632zM261 791c3.33301 -5.33301 2.33398 -9.33301 -2.99902 -12
l-136 -72c-4 -2 -7.66699 -1.33301 -11 2l-15 18c-3.33301 3.33301 -2.33301 6.66602 3 9.99902l124 89c3.33301 2 5.66602 2.83301 6.99902 2.5s3.33301 -2.16602 6 -5.49902z" />
    <glyph glyph-name="Icircumflex" unicode="&#xce;" horiz-adv-x="234" 
d="M89 647c0 6.66699 1.16699 11 3.5 13s6.16602 3 11.499 3h28c8.66699 0 13 -5.33301 13 -16v-632c0 -6 -0.833008 -10 -2.5 -12s-5.16699 -3 -10.5 -3h-28c-5.33301 0 -9.16602 1 -11.499 3s-3.5 6 -3.5 12v632zM246 706
c-4.66699 -2.66699 -8.66895 -2.66602 -12.002 0.000976562l-115 79l-113 -79c-3.33301 -2 -5.66602 -3.16699 -6.99902 -3.5s-3.66602 0.5 -6.99902 2.5l-15 15c-2.66699 3.33301 -2.66699 6.66602 0 9.99902l99 90c4 3.33301 7.5 5.66602 10.5 6.99902s6.5 2 10.5 2h45
c5.33301 0 9.5 -0.666992 12.5 -2s6.16699 -3.66602 9.5 -6.99902l96 -88c4.66699 -4 5 -8 1 -12z" />
    <glyph glyph-name="Idieresis" unicode="&#xcf;" horiz-adv-x="234" 
d="M89 647c0 6.66699 1.16699 11 3.5 13s6.16602 3 11.499 3h28c8.66699 0 13 -5.33301 13 -16v-632c0 -6 -0.833008 -10 -2.5 -12s-5.16699 -3 -10.5 -3h-28c-5.33301 0 -9.16602 1 -11.499 3s-3.5 6 -3.5 12v632zM233 756c0 -10 -1.99805 -18.332 -5.99805 -24.999
s-12.667 -10 -26 -10c-14.667 0 -23.834 3.5 -27.501 10.5s-5.5 15.167 -5.5 24.5s2.16699 17.166 6.5 23.499s13.166 9.5 26.499 9.5s22 -3 26 -9s6 -14 6 -24zM66.002 756.001c0 -10 -1.83301 -18.332 -5.5 -24.999s-12.5 -10 -26.5 -10c-14.667 0 -23.667 3.5 -27 10.5
s-5 15.167 -5 24.5s2 17.166 6 23.499s12.667 9.5 26 9.5c14 0 22.833 -3 26.5 -9s5.5 -14 5.5 -24z" />
    <glyph glyph-name="Eth" unicode="&#xd0;" horiz-adv-x="596" 
d="M534 333c0 -47.333 -3.66699 -91.332 -11 -131.999s-20.833 -75.834 -40.5 -105.501s-46.334 -53 -80.001 -70s-76.834 -25.5 -129.501 -25.5h-181c-8.66699 0 -14.167 1.16699 -16.5 3.5s-3.5 6.16602 -3.5 11.499v301h-65c-6.66699 0 -10 2.66699 -10 8v31
c0 6 3.33301 9 10 9h65v283c0 4.66699 1 8.5 3 11.5s6.33301 4.5 13 4.5h185c52 0 94.833 -8.5 128.5 -25.5s60.334 -40.167 80.001 -69.5s33.334 -64.166 41.001 -104.499s11.5 -83.833 11.5 -130.5zM255 324.001c0 -5.33301 -3.33398 -8.00195 -10.001 -8.00195h-115v-264
h135c9.33301 0 21 0.166992 35 0.5s28.667 2.83301 44 7.5s30.833 12.334 46.5 23.001s29.667 26.167 42 46.5s22.333 46.333 30 78s11.5 70.834 11.5 117.501c0 48 -3.5 88.333 -10.5 121s-16.167 59.5 -27.5 80.5s-24.166 37.333 -38.499 49s-29 20 -44 25
s-29.5 8 -43.5 9s-26.333 1.5 -37 1.5h-143v-247h115c6.66699 0 10 -3 10 -9v-31z" />
    <glyph glyph-name="Ntilde" unicode="&#xd1;" horiz-adv-x="613" 
d="M542 14c0 -9.33301 -4.00293 -13.999 -12.0029 -13.999h-25c-7.33301 0 -12.666 1 -15.999 3s-6.66602 5.66699 -9.99902 11l-289 451l-64 104h-3l1 -554c0 -6 -0.833008 -10 -2.5 -12s-5.16699 -3 -10.5 -3h-25c-5.33301 0 -9.16602 1 -11.499 3s-3.5 6 -3.5 12v636
c0 3.33301 1 6.16602 3 8.49902s5 3.5 9 3.5h29c6 0 10.667 -1.33301 14 -4s6.33301 -5.66699 9 -9l297 -465l55 -86h2l1 548c0 6.66699 1 11 3 13s5.66699 3 11 3h24c8.66699 0 13 -5.33301 13 -16zM383.997 702.001c-12 0 -24.499 2.83496 -37.499 8.50195
s-25.833 11.667 -38.5 18l-37 18c-12 5.66699 -23 8.5 -33 8.5c-7.33301 0 -15.5 -2.83301 -24.5 -8.5s-18.167 -15.5 -27.5 -29.5c-2.66699 -4 -5 -6.5 -7 -7.5s-5.33301 -0.5 -10 1.5l-14 6c-4 1.33301 -5.83301 3.66602 -5.5 6.99902s1.16602 6.66602 2.49902 9.99902
c11.333 25.333 24.833 43.166 40.5 53.499s31.5 15.5 47.5 15.5c12 0 24.5 -2.83301 37.5 -8.5s25.833 -11.667 38.5 -18l36.5 -18c11.667 -5.66699 22.167 -8.5 31.5 -8.5c12 0 21.667 3.5 29 10.5s14.333 16.167 21 27.5c2 3.33301 3.83301 5.66602 5.5 6.99902
s4.83398 1 9.50098 -1l16 -6c4 -1.33301 5.66699 -3.66602 5 -6.99902s-1.33398 -5.66602 -2.00098 -6.99902c-17.333 -48 -45.333 -72 -84 -72z" />
    <glyph glyph-name="Ograve" unicode="&#xd2;" horiz-adv-x="626" 
d="M562 341c0 -40.667 -2.32812 -81.665 -6.99512 -122.998s-15.667 -78.833 -33 -112.5s-42.833 -61.167 -76.5 -82.5s-79.167 -32 -136.5 -32c-56.667 0 -101.334 10.667 -134.001 32s-57.334 48.833 -74.001 82.5s-27.334 71.167 -32.001 112.5s-7 82.333 -7 123
c0 21.333 1 44.166 3 68.499s6 48.833 12 73.5s14.5 48.334 25.5 71.001s25.667 42.667 44 60s40.666 31.166 66.999 41.499s58.166 15.5 95.499 15.5c55.333 0 99.666 -9.5 132.999 -28.5s58.833 -44 76.5 -75s29.334 -66.333 35.001 -106s8.5 -79.834 8.5 -120.501z
M506.005 331.002c0 44.667 -2.99707 85 -8.99707 121s-16.333 66.667 -31 92s-34.834 45 -60.501 59s-57.834 21 -96.501 21c-36.667 0 -67.167 -7.33301 -91.5 -22s-43.666 -35 -57.999 -61s-24.5 -56.833 -30.5 -92.5s-9 -74.834 -9 -117.501
c0 -41.333 2.83301 -79.666 8.5 -114.999s15.667 -66 30 -92s33.666 -46.5 57.999 -61.5s55.166 -22.5 92.499 -22.5s68.5 7 93.5 21s45.167 33.667 60.5 59s26.333 56 33 92s10 75.667 10 119zM240.008 823.002c2.66699 3.33301 4.49805 5.16699 5.49805 5.5
s3.16699 -0.166992 6.5 -1.5l124 -89c4.66699 -3.33301 5.33398 -7 2.00098 -11l-15 -17c-3.33301 -3.33301 -6.66602 -4 -9.99902 -2l-136 72c-2 1.33301 -3.5 3 -4.5 5s-0.5 4.33301 1.5 7z" />
    <glyph glyph-name="Oacute" unicode="&#xd3;" horiz-adv-x="626" 
d="M562 341c0 -40.667 -2.32812 -81.665 -6.99512 -122.998s-15.667 -78.833 -33 -112.5s-42.833 -61.167 -76.5 -82.5s-79.167 -32 -136.5 -32c-56.667 0 -101.334 10.667 -134.001 32s-57.334 48.833 -74.001 82.5s-27.334 71.167 -32.001 112.5s-7 82.333 -7 123
c0 21.333 1 44.166 3 68.499s6 48.833 12 73.5s14.5 48.334 25.5 71.001s25.667 42.667 44 60s40.666 31.166 66.999 41.499s58.166 15.5 95.499 15.5c55.333 0 99.666 -9.5 132.999 -28.5s58.833 -44 76.5 -75s29.334 -66.333 35.001 -106s8.5 -79.834 8.5 -120.501z
M506.005 331.002c0 44.667 -2.99707 85 -8.99707 121s-16.333 66.667 -31 92s-34.834 45 -60.501 59s-57.834 21 -96.501 21c-36.667 0 -67.167 -7.33301 -91.5 -22s-43.666 -35 -57.999 -61s-24.5 -56.833 -30.5 -92.5s-9 -74.834 -9 -117.501
c0 -41.333 2.83301 -79.666 8.5 -114.999s15.667 -66 30 -92s33.666 -46.5 57.999 -61.5s55.166 -22.5 92.499 -22.5s68.5 7 93.5 21s45.167 33.667 60.5 59s26.333 56 33 92s10 75.667 10 119zM423.008 791.002c3.33301 -5.33301 2.33398 -9.33301 -2.99902 -12l-136 -72
c-4 -2 -7.66699 -1.33301 -11 2l-15 18c-3.33301 3.33301 -2.33301 6.66602 3 9.99902l124 89c3.33301 2 5.66602 2.83301 6.99902 2.5s3.33301 -2.16602 6 -5.49902z" />
    <glyph glyph-name="Ocircumflex" unicode="&#xd4;" horiz-adv-x="626" 
d="M562 341c0 -40.667 -2.32812 -81.665 -6.99512 -122.998s-15.667 -78.833 -33 -112.5s-42.833 -61.167 -76.5 -82.5s-79.167 -32 -136.5 -32c-56.667 0 -101.334 10.667 -134.001 32s-57.334 48.833 -74.001 82.5s-27.334 71.167 -32.001 112.5s-7 82.333 -7 123
c0 21.333 1 44.166 3 68.499s6 48.833 12 73.5s14.5 48.334 25.5 71.001s25.667 42.667 44 60s40.666 31.166 66.999 41.499s58.166 15.5 95.499 15.5c55.333 0 99.666 -9.5 132.999 -28.5s58.833 -44 76.5 -75s29.334 -66.333 35.001 -106s8.5 -79.834 8.5 -120.501z
M506.005 331.002c0 44.667 -2.99707 85 -8.99707 121s-16.333 66.667 -31 92s-34.834 45 -60.501 59s-57.834 21 -96.501 21c-36.667 0 -67.167 -7.33301 -91.5 -22s-43.666 -35 -57.999 -61s-24.5 -56.833 -30.5 -92.5s-9 -74.834 -9 -117.501
c0 -41.333 2.83301 -79.666 8.5 -114.999s15.667 -66 30 -92s33.666 -46.5 57.999 -61.5s55.166 -22.5 92.499 -22.5s68.5 7 93.5 21s45.167 33.667 60.5 59s26.333 56 33 92s10 75.667 10 119zM442.008 706.002c-4.66699 -2.66699 -8.66895 -2.66602 -12.002 0.000976562
l-115 79l-113 -79c-3.33301 -2 -5.66602 -3.16699 -6.99902 -3.5s-3.66602 0.5 -6.99902 2.5l-15 15c-2.66699 3.33301 -2.66699 6.66602 0 9.99902l99 90c4 3.33301 7.5 5.66602 10.5 6.99902s6.5 2 10.5 2h45c5.33301 0 9.5 -0.666992 12.5 -2
s6.16699 -3.66602 9.5 -6.99902l96 -88c4.66699 -4 5 -8 1 -12z" />
    <glyph glyph-name="Otilde" unicode="&#xd5;" horiz-adv-x="626" 
d="M562 341c0 -40.667 -2.32812 -81.665 -6.99512 -122.998s-15.667 -78.833 -33 -112.5s-42.833 -61.167 -76.5 -82.5s-79.167 -32 -136.5 -32c-56.667 0 -101.334 10.667 -134.001 32s-57.334 48.833 -74.001 82.5s-27.334 71.167 -32.001 112.5s-7 82.333 -7 123
c0 21.333 1 44.166 3 68.499s6 48.833 12 73.5s14.5 48.334 25.5 71.001s25.667 42.667 44 60s40.666 31.166 66.999 41.499s58.166 15.5 95.499 15.5c55.333 0 99.666 -9.5 132.999 -28.5s58.833 -44 76.5 -75s29.334 -66.333 35.001 -106s8.5 -79.834 8.5 -120.501z
M506.005 331.002c0 44.667 -2.99707 85 -8.99707 121s-16.333 66.667 -31 92s-34.834 45 -60.501 59s-57.834 21 -96.501 21c-36.667 0 -67.167 -7.33301 -91.5 -22s-43.666 -35 -57.999 -61s-24.5 -56.833 -30.5 -92.5s-9 -74.834 -9 -117.501
c0 -41.333 2.83301 -79.666 8.5 -114.999s15.667 -66 30 -92s33.666 -46.5 57.999 -61.5s55.166 -22.5 92.499 -22.5s68.5 7 93.5 21s45.167 33.667 60.5 59s26.333 56 33 92s10 75.667 10 119zM388.008 712.002c-12 0 -24.499 2.83496 -37.499 8.50195
s-25.833 11.667 -38.5 18l-37 18c-12 5.66699 -23 8.5 -33 8.5c-7.33301 0 -15.5 -2.83301 -24.5 -8.5s-18.167 -15.5 -27.5 -29.5c-2.66699 -4 -5 -6.5 -7 -7.5s-5.33301 -0.5 -10 1.5l-14 6c-4 1.33301 -5.83301 3.66602 -5.5 6.99902s1.16602 6.66602 2.49902 9.99902
c11.333 25.333 24.833 43.166 40.5 53.499s31.5 15.5 47.5 15.5c12 0 24.5 -2.83301 37.5 -8.5s25.833 -11.667 38.5 -18l36.5 -18c11.667 -5.66699 22.167 -8.5 31.5 -8.5c12 0 21.667 3.5 29 10.5s14.333 16.167 21 27.5c2 3.33301 3.83301 5.66602 5.5 6.99902
s4.83398 1 9.50098 -1l16 -6c4 -1.33301 5.66699 -3.66602 5 -6.99902s-1.33398 -5.66602 -2.00098 -6.99902c-17.333 -48 -45.333 -72 -84 -72z" />
    <glyph glyph-name="Odieresis" unicode="&#xd6;" horiz-adv-x="626" 
d="M562 341c0 -40.667 -2.32812 -81.665 -6.99512 -122.998s-15.667 -78.833 -33 -112.5s-42.833 -61.167 -76.5 -82.5s-79.167 -32 -136.5 -32c-56.667 0 -101.334 10.667 -134.001 32s-57.334 48.833 -74.001 82.5s-27.334 71.167 -32.001 112.5s-7 82.333 -7 123
c0 21.333 1 44.166 3 68.499s6 48.833 12 73.5s14.5 48.334 25.5 71.001s25.667 42.667 44 60s40.666 31.166 66.999 41.499s58.166 15.5 95.499 15.5c55.333 0 99.666 -9.5 132.999 -28.5s58.833 -44 76.5 -75s29.334 -66.333 35.001 -106s8.5 -79.834 8.5 -120.501z
M506.005 331.002c0 44.667 -2.99707 85 -8.99707 121s-16.333 66.667 -31 92s-34.834 45 -60.501 59s-57.834 21 -96.501 21c-36.667 0 -67.167 -7.33301 -91.5 -22s-43.666 -35 -57.999 -61s-24.5 -56.833 -30.5 -92.5s-9 -74.834 -9 -117.501
c0 -41.333 2.83301 -79.666 8.5 -114.999s15.667 -66 30 -92s33.666 -46.5 57.999 -61.5s55.166 -22.5 92.499 -22.5s68.5 7 93.5 21s45.167 33.667 60.5 59s26.333 56 33 92s10 75.667 10 119zM433.008 756.002c0 -10 -1.99805 -18.332 -5.99805 -24.999
s-12.667 -10 -26 -10c-14.667 0 -23.834 3.5 -27.501 10.5s-5.5 15.167 -5.5 24.5s2.16699 17.166 6.5 23.499s13.166 9.5 26.499 9.5s22 -3 26 -9s6 -14 6 -24zM266.01 756.003c0 -10 -1.83301 -18.332 -5.5 -24.999s-12.5 -10 -26.5 -10c-14.667 0 -23.667 3.5 -27 10.5
s-5 15.167 -5 24.5s2 17.166 6 23.499s12.667 9.5 26 9.5c14 0 22.833 -3 26.5 -9s5.5 -14 5.5 -24z" />
    <glyph glyph-name="multiply" unicode="&#xd7;" horiz-adv-x="543" 
d="M417 161c-4 -4 -8.33203 -3.33301 -12.999 2l-130 130l-135 -135c-2 -2 -4.16699 -3.33301 -6.5 -4s-4.5 0.333008 -6.5 3l-22 22c-3.33301 3.33301 -4.83301 5.83301 -4.5 7.5s2.16602 3.83398 5.49902 6.50098l134 135l-131 131c-4.66699 4 -5 8.33301 -1 13l21 20
c4 4 8.33301 4 13 0l131 -131l130 130c5.33301 4.66699 10.333 5 15 1l22 -23c4 -4 3.66699 -8.33301 -1 -13l-131 -131l130 -129c2.66699 -2.66699 4.16699 -4.83398 4.5 -6.50098s-1.16699 -4.16699 -4.5 -7.5l-20 -21v0z" />
    <glyph glyph-name="Oslash" unicode="&#xd8;" horiz-adv-x="627" 
d="M562 341c0 -40.667 -2.33008 -81.665 -6.99707 -122.998s-15.667 -78.833 -33 -112.5s-42.833 -61.167 -76.5 -82.5s-79.167 -32 -136.5 -32c-41.333 0 -75.833 5.66699 -103.5 17s-50.834 26.666 -69.501 45.999l-37 -50c-2 -2.66699 -4 -4.66699 -6 -6
s-4.33301 -1 -7 1l-18 14c-5.33301 3.33301 -6.33301 7.66602 -3 12.999l45 62c-10.667 17.333 -19.167 36.166 -25.5 56.499s-11.166 41.333 -14.499 63s-5.5 43.834 -6.5 66.501s-1.5 45 -1.5 67c0 21.333 1 44.166 3 68.499s6 48.833 12 73.5s14.5 48.334 25.5 71.001
s25.667 42.667 44 60s40.666 31.166 66.999 41.499s58.166 15.5 95.499 15.5c42 0 77.5 -5.66699 106.5 -17s53.167 -27 72.5 -47l41 56c2 2.66699 3.83301 4.66699 5.5 6s4.16699 1 7.5 -1l18 -14c5.33301 -3.33301 6.33301 -7.66602 3 -12.999l-49 -67
c19.333 -32 32.166 -68.167 38.499 -108.5s9.5 -81.833 9.5 -124.5zM120.003 331.002c0 -36.667 2.16699 -70.999 6.5 -102.999s11.833 -60.667 22.5 -86l306 419c-15.333 20 -34.833 35.5 -58.5 46.5s-52.834 16.5 -87.501 16.5c-36.667 0 -67.167 -7.33301 -91.5 -22
s-43.666 -35 -57.999 -61s-24.5 -56.833 -30.5 -92.5s-9 -74.834 -9 -117.501zM506.003 331.003c0 38.667 -2.16699 74 -6.5 106s-11.833 60.333 -22.5 85l-306 -419c14.667 -20 33.167 -35.5 55.5 -46.5s49.833 -16.5 82.5 -16.5c37.333 0 68.5 7 93.5 21
s45.167 33.667 60.5 59s26.333 56 33 92s10 75.667 10 119z" />
    <glyph glyph-name="Ugrave" unicode="&#xd9;" horiz-adv-x="595" 
d="M474 647c0 6.66699 1.16895 10.999 3.50195 12.999s6.16602 3 11.499 3h28c8.66699 0 13 -5.33301 13 -16l-1 -410c0 -21.333 -1 -41.666 -3 -60.999s-6.66699 -38 -14 -56c-18 -45.333 -46 -77.833 -84 -97.5s-82 -29.5 -132 -29.5c-52 0 -96.667 10 -134 30
s-64 52 -80 96c-6.66699 18 -11.167 36.833 -13.5 56.5s-3.5 40.167 -3.5 61.5v410c0 6.66699 1.16699 11 3.5 13s6.16602 3 11.499 3h28c8.66699 0 13 -5.33301 13 -16v-413c0 -60 14.167 -106.833 42.5 -140.5s72.5 -50.5 132.5 -50.5c58 0 102.167 15.667 132.5 47
s45.5 79.333 45.5 144v413zM198.002 822.999c2.66699 3.33301 4.49805 5.16699 5.49805 5.5s3.16699 -0.166992 6.5 -1.5l124 -89c4.66699 -3.33301 5.33398 -7 2.00098 -11l-15 -17c-3.33301 -3.33301 -6.66602 -4 -9.99902 -2l-136 72c-2 1.33301 -3.5 3 -4.5 5
s-0.5 4.33301 1.5 7z" />
    <glyph glyph-name="Uacute" unicode="&#xda;" horiz-adv-x="595" 
d="M474 647c0 6.66699 1.16895 10.999 3.50195 12.999s6.16602 3 11.499 3h28c8.66699 0 13 -5.33301 13 -16l-1 -410c0 -21.333 -1 -41.666 -3 -60.999s-6.66699 -38 -14 -56c-18 -45.333 -46 -77.833 -84 -97.5s-82 -29.5 -132 -29.5c-52 0 -96.667 10 -134 30
s-64 52 -80 96c-6.66699 18 -11.167 36.833 -13.5 56.5s-3.5 40.167 -3.5 61.5v410c0 6.66699 1.16699 11 3.5 13s6.16602 3 11.499 3h28c8.66699 0 13 -5.33301 13 -16v-413c0 -60 14.167 -106.833 42.5 -140.5s72.5 -50.5 132.5 -50.5c58 0 102.167 15.667 132.5 47
s45.5 79.333 45.5 144v413zM426.002 790.999c3.33301 -5.33301 2.33398 -9.33301 -2.99902 -12l-136 -72c-4 -2 -7.66699 -1.33301 -11 2l-15 18c-3.33301 3.33301 -2.33301 6.66602 3 9.99902l124 89c3.33301 2 5.66602 2.83301 6.99902 2.5s3.33301 -2.16602 6 -5.49902z
" />
    <glyph glyph-name="Ucircumflex" unicode="&#xdb;" horiz-adv-x="595" 
d="M474 647c0 6.66699 1.16895 10.999 3.50195 12.999s6.16602 3 11.499 3h28c8.66699 0 13 -5.33301 13 -16l-1 -410c0 -21.333 -1 -41.666 -3 -60.999s-6.66699 -38 -14 -56c-18 -45.333 -46 -77.833 -84 -97.5s-82 -29.5 -132 -29.5c-52 0 -96.667 10 -134 30
s-64 52 -80 96c-6.66699 18 -11.167 36.833 -13.5 56.5s-3.5 40.167 -3.5 61.5v410c0 6.66699 1.16699 11 3.5 13s6.16602 3 11.499 3h28c8.66699 0 13 -5.33301 13 -16v-413c0 -60 14.167 -106.833 42.5 -140.5s72.5 -50.5 132.5 -50.5c58 0 102.167 15.667 132.5 47
s45.5 79.333 45.5 144v413zM425.002 705.999c-4.66699 -2.66699 -8.66895 -2.66602 -12.002 0.000976562l-115 79l-113 -79c-3.33301 -2 -5.66602 -3.16699 -6.99902 -3.5s-3.66602 0.5 -6.99902 2.5l-15 15c-2.66699 3.33301 -2.66699 6.66602 0 9.99902l99 90
c4 3.33301 7.5 5.66602 10.5 6.99902s6.5 2 10.5 2h45c5.33301 0 9.5 -0.666992 12.5 -2s6.16699 -3.66602 9.5 -6.99902l96 -88c4.66699 -4 5 -8 1 -12z" />
    <glyph glyph-name="Udieresis" unicode="&#xdc;" horiz-adv-x="595" 
d="M474 647c0 6.66699 1.16895 10.999 3.50195 12.999s6.16602 3 11.499 3h28c8.66699 0 13 -5.33301 13 -16l-1 -410c0 -21.333 -1 -41.666 -3 -60.999s-6.66699 -38 -14 -56c-18 -45.333 -46 -77.833 -84 -97.5s-82 -29.5 -132 -29.5c-52 0 -96.667 10 -134 30
s-64 52 -80 96c-6.66699 18 -11.167 36.833 -13.5 56.5s-3.5 40.167 -3.5 61.5v410c0 6.66699 1.16699 11 3.5 13s6.16602 3 11.499 3h28c8.66699 0 13 -5.33301 13 -16v-413c0 -60 14.167 -106.833 42.5 -140.5s72.5 -50.5 132.5 -50.5c58 0 102.167 15.667 132.5 47
s45.5 79.333 45.5 144v413zM415.002 755.999c0 -10 -1.99805 -18.332 -5.99805 -24.999s-12.667 -10 -26 -10c-14.667 0 -23.834 3.5 -27.501 10.5s-5.5 15.167 -5.5 24.5s2.16699 17.166 6.5 23.499s13.166 9.5 26.499 9.5s22 -3 26 -9s6 -14 6 -24zM248.004 756
c0 -10 -1.83301 -18.332 -5.5 -24.999s-12.5 -10 -26.5 -10c-14.667 0 -23.667 3.5 -27 10.5s-5 15.167 -5 24.5s2 17.166 6 23.499s12.667 9.5 26 9.5c14 0 22.833 -3 26.5 -9s5.5 -14 5.5 -24z" />
    <glyph glyph-name="Yacute" unicode="&#xdd;" horiz-adv-x="483" 
d="M16 653c-1.33301 2 -1.66602 4.16797 -0.999023 6.50098s2.66699 3.5 6 3.5h40c5.33301 0 9.16602 -0.833008 11.499 -2.5s4.16602 -4.16699 5.49902 -7.5l163 -300l168 301c1.33301 3.33301 3.16602 5.66602 5.49902 6.99902s6.5 2 12.5 2h31
c8.66699 0 11.334 -3.66699 8.00098 -11l-197 -354v-283c0 -6 -0.833008 -10 -2.5 -12s-5.16699 -3 -10.5 -3h-28c-5.33301 0 -9.16602 1 -11.499 3s-3.5 6 -3.5 12v283zM373 791.001c3.33301 -5.33301 2.33398 -9.33301 -2.99902 -12l-136 -72
c-4 -2 -7.66699 -1.33301 -11 2l-15 18c-3.33301 3.33301 -2.33301 6.66602 3 9.99902l124 89c3.33301 2 5.66602 2.83301 6.99902 2.5s3.33301 -2.16602 6 -5.49902z" />
    <glyph glyph-name="Thorn" unicode="&#xde;" horiz-adv-x="495" 
d="M466 339c0 -23.333 -3.5 -46.665 -10.5 -69.998s-18.167 -44.333 -33.5 -63s-35.5 -34 -60.5 -46s-55.5 -18 -91.5 -18h-148v-130c0 -8 -3.66699 -12 -11 -12h-34c-8 0 -12 4 -12 12v639c0 8 3.66699 12 11 12h34c8 0 12 -4 12 -12v-124h146c28 0 54 -3.83301 78 -11.5
s44.833 -19.334 62.5 -35.001s31.667 -35.334 42 -59.001s15.5 -51.167 15.5 -82.5zM408 338.001c0 47.333 -13.832 82.001 -41.499 104.001s-63.5 33 -107.5 33h-137v-282h148c17.333 0 34.166 2.66699 50.499 8s31 13.666 44 24.999s23.5 26.333 31.5 45s12 41 12 67z" />
    <glyph glyph-name="germandbls" unicode="&#xdf;" horiz-adv-x="487" 
d="M441 203c0 -30.667 -3.33301 -58.833 -10 -84.5s-17.334 -47.834 -32.001 -66.501s-33.5 -33.167 -56.5 -43.5s-50.833 -15.5 -83.5 -15.5c-7.33301 0 -16.333 0.166992 -27 0.5s-21.667 2.16602 -33 5.49902c-8.66699 2.66699 -12.334 7.33398 -11.001 14.001l4 20
c1.33301 4 2.83301 6.83301 4.5 8.5s6.5 1.83398 14.5 0.500977c6 -0.666992 12.333 -1.16699 19 -1.5s12.667 -0.5 18 -0.5c49.333 0 84 14.333 104 43s30 69.667 30 123c0 29.333 -2.16699 54.5 -6.5 75.5s-12 38.333 -23 52s-25.5 23.667 -43.5 30s-41 9.5 -69 9.5
c-7.33301 0 -11 3 -11 9v23c0 6.66699 4 11 12 13c16.667 3.33301 31.334 9.33301 44.001 18s23.334 18.834 32.001 30.501s15.334 24.5 20.001 38.5s7 28 7 42c0 38.667 -10.833 67.167 -32.5 85.5s-50.167 27.5 -85.5 27.5c-36 0 -65.333 -12 -88 -36
s-34 -58.333 -34 -103v-516c0 -8 -3.66699 -12 -11 -12h-33c-7.33301 0 -11 4 -11 12v509c0 35.333 5.5 65.5 16.5 90.5s25.167 45.333 42.5 61s36.333 27 57 34s40.667 10.5 60 10.5c25.333 0 48.833 -3.33301 70.5 -10s40.334 -16.667 56.001 -30s28 -30.333 37 -51
s13.5 -45 13.5 -73c0 -8.66699 -1.33301 -19.167 -4 -31.5s-6.83398 -24.833 -12.501 -37.5s-13.334 -24.834 -23.001 -36.501s-21.5 -21.5 -35.5 -29.5c25.333 -6 45.5 -15.5 60.5 -28.5s26.5 -28.5 34.5 -46.5s13.167 -38.333 15.5 -61s3.5 -46.667 3.5 -72z" />
    <glyph glyph-name="agrave" unicode="&#xe0;" horiz-adv-x="505" 
d="M377 57c-14.667 -8.66699 -29.3311 -16.834 -43.998 -24.501s-30.334 -14.5 -47.001 -20.5s-34.334 -10.833 -53.001 -14.5s-39 -5.5 -61 -5.5c-45.333 0 -78 11.167 -98 33.5s-30 55.5 -30 99.5c0 56.667 14.167 98.334 42.5 125.001s73.833 40 136.5 40h155v45
c0 20 -1.83301 37 -5.5 51s-10.334 25.5 -20.001 34.5s-22.834 15.667 -39.501 20s-37.667 6.5 -63 6.5c-21.333 0 -45 -1 -71 -3s-50.667 -4.33301 -74 -7c-9.33301 -0.666992 -14.333 1.66602 -15 6.99902l-4 18c0 6.66699 3.66699 11.667 11 15
c10.667 4 23 7.33301 37 10s28.333 4.83398 43 6.50098s28.834 2.83398 42.501 3.50098s25.834 1 36.501 1c37.333 0 67.5 -3.5 90.5 -10.5s41 -17.667 54 -32s21.833 -32.333 26.5 -54s7 -46.834 7 -75.501v-246c0 -9.33301 0.666992 -16.5 2 -21.5s3.5 -8.83301 6.5 -11.5
s7.16699 -4.5 12.5 -5.5s12.333 -1.83301 21 -2.5c7.33301 0 11 -3 11 -9v-20c0 -3.33301 -1 -6 -3 -8s-6 -3.66699 -12 -5c-32.667 -3.33301 -56 -1 -70 7s-22 25.667 -24 53h-1zM378.003 242l-162 0.000976562c-17.333 0 -33 -1.66699 -47 -5s-26 -9.33301 -36 -18
s-17.667 -20.334 -23 -35.001s-8 -33.334 -8 -56.001c0 -33.333 6.5 -56 19.5 -68s36.5 -18 70.5 -18c14.667 0 31 2.33301 49 7s35.667 10.334 53 17.001s33.333 13.5 48 20.5s26.667 13.167 36 18.5v137zM267.003 543.001
c-4 -1.33301 -6.66602 -2.16797 -7.99902 -2.50098s-3 0.833984 -5 3.50098l-86 125c-1.33301 2 -2.33301 4.33301 -3 7s1.33301 5 6 7l33 15c7.33301 4 12.333 3.33301 15 -2l70 -135c3.33301 -6 2.66602 -10 -2.00098 -12z" />
    <glyph glyph-name="aacute" unicode="&#xe1;" horiz-adv-x="505" 
d="M377 57c-14.667 -8.66699 -29.3311 -16.834 -43.998 -24.501s-30.334 -14.5 -47.001 -20.5s-34.334 -10.833 -53.001 -14.5s-39 -5.5 -61 -5.5c-45.333 0 -78 11.167 -98 33.5s-30 55.5 -30 99.5c0 56.667 14.167 98.334 42.5 125.001s73.833 40 136.5 40h155v45
c0 20 -1.83301 37 -5.5 51s-10.334 25.5 -20.001 34.5s-22.834 15.667 -39.501 20s-37.667 6.5 -63 6.5c-21.333 0 -45 -1 -71 -3s-50.667 -4.33301 -74 -7c-9.33301 -0.666992 -14.333 1.66602 -15 6.99902l-4 18c0 6.66699 3.66699 11.667 11 15
c10.667 4 23 7.33301 37 10s28.333 4.83398 43 6.50098s28.834 2.83398 42.501 3.50098s25.834 1 36.501 1c37.333 0 67.5 -3.5 90.5 -10.5s41 -17.667 54 -32s21.833 -32.333 26.5 -54s7 -46.834 7 -75.501v-246c0 -9.33301 0.666992 -16.5 2 -21.5s3.5 -8.83301 6.5 -11.5
s7.16699 -4.5 12.5 -5.5s12.333 -1.83301 21 -2.5c7.33301 0 11 -3 11 -9v-20c0 -3.33301 -1 -6 -3 -8s-6 -3.66699 -12 -5c-32.667 -3.33301 -56 -1 -70 7s-22 25.667 -24 53h-1zM378.003 242l-162 0.000976562c-17.333 0 -33 -1.66699 -47 -5s-26 -9.33301 -36 -18
s-17.667 -20.334 -23 -35.001s-8 -33.334 -8 -56.001c0 -33.333 6.5 -56 19.5 -68s36.5 -18 70.5 -18c14.667 0 31 2.33301 49 7s35.667 10.334 53 17.001s33.333 13.5 48 20.5s26.667 13.167 36 18.5v137zM274.003 551.001c-3.33301 -3.33301 -7 -4 -11 -2l-21 8
c-4 2 -5 5.66699 -3 11l69 136c2.66699 4.66699 7 5.66699 13 3l37 -16c5.33301 -2.66699 6 -6.66699 2 -12z" />
    <glyph glyph-name="acircumflex" unicode="&#xe2;" horiz-adv-x="505" 
d="M377 57c-14.667 -8.66699 -29.3311 -16.834 -43.998 -24.501s-30.334 -14.5 -47.001 -20.5s-34.334 -10.833 -53.001 -14.5s-39 -5.5 -61 -5.5c-45.333 0 -78 11.167 -98 33.5s-30 55.5 -30 99.5c0 56.667 14.167 98.334 42.5 125.001s73.833 40 136.5 40h155v45
c0 20 -1.83301 37 -5.5 51s-10.334 25.5 -20.001 34.5s-22.834 15.667 -39.501 20s-37.667 6.5 -63 6.5c-21.333 0 -45 -1 -71 -3s-50.667 -4.33301 -74 -7c-9.33301 -0.666992 -14.333 1.66602 -15 6.99902l-4 18c0 6.66699 3.66699 11.667 11 15
c10.667 4 23 7.33301 37 10s28.333 4.83398 43 6.50098s28.834 2.83398 42.501 3.50098s25.834 1 36.501 1c37.333 0 67.5 -3.5 90.5 -10.5s41 -17.667 54 -32s21.833 -32.333 26.5 -54s7 -46.834 7 -75.501v-246c0 -9.33301 0.666992 -16.5 2 -21.5s3.5 -8.83301 6.5 -11.5
s7.16699 -4.5 12.5 -5.5s12.333 -1.83301 21 -2.5c7.33301 0 11 -3 11 -9v-20c0 -3.33301 -1 -6 -3 -8s-6 -3.66699 -12 -5c-32.667 -3.33301 -56 -1 -70 7s-22 25.667 -24 53h-1zM378.003 242l-162 0.000976562c-17.333 0 -33 -1.66699 -47 -5s-26 -9.33301 -36 -18
s-17.667 -20.334 -23 -35.001s-8 -33.334 -8 -56.001c0 -33.333 6.5 -56 19.5 -68s36.5 -18 70.5 -18c14.667 0 31 2.33301 49 7s35.667 10.334 53 17.001s33.333 13.5 48 20.5s26.667 13.167 36 18.5v137zM381.003 547.001c-4.66699 -3.33301 -8.66895 -3.33301 -12.002 0
l-110 104l-108 -103c-4 -4 -8.33301 -4.33301 -13 -1l-16 14c-4 2.66699 -4 6 0 10l96 115c4 6 11 9 21 9h42c6.66699 0 11.334 -0.5 14.001 -1.5s5.33398 -3.16699 8.00098 -6.5l93 -115c4.66699 -5.33301 5 -9.33301 1 -12z" />
    <glyph glyph-name="atilde" unicode="&#xe3;" horiz-adv-x="505" 
d="M377 57c-14.667 -8.66699 -29.3311 -16.834 -43.998 -24.501s-30.334 -14.5 -47.001 -20.5s-34.334 -10.833 -53.001 -14.5s-39 -5.5 -61 -5.5c-45.333 0 -78 11.167 -98 33.5s-30 55.5 -30 99.5c0 56.667 14.167 98.334 42.5 125.001s73.833 40 136.5 40h155v45
c0 20 -1.83301 37 -5.5 51s-10.334 25.5 -20.001 34.5s-22.834 15.667 -39.501 20s-37.667 6.5 -63 6.5c-21.333 0 -45 -1 -71 -3s-50.667 -4.33301 -74 -7c-9.33301 -0.666992 -14.333 1.66602 -15 6.99902l-4 18c0 6.66699 3.66699 11.667 11 15
c10.667 4 23 7.33301 37 10s28.333 4.83398 43 6.50098s28.834 2.83398 42.501 3.50098s25.834 1 36.501 1c37.333 0 67.5 -3.5 90.5 -10.5s41 -17.667 54 -32s21.833 -32.333 26.5 -54s7 -46.834 7 -75.501v-246c0 -9.33301 0.666992 -16.5 2 -21.5s3.5 -8.83301 6.5 -11.5
s7.16699 -4.5 12.5 -5.5s12.333 -1.83301 21 -2.5c7.33301 0 11 -3 11 -9v-20c0 -3.33301 -1 -6 -3 -8s-6 -3.66699 -12 -5c-32.667 -3.33301 -56 -1 -70 7s-22 25.667 -24 53h-1zM378.003 242l-162 0.000976562c-17.333 0 -33 -1.66699 -47 -5s-26 -9.33301 -36 -18
s-17.667 -20.334 -23 -35.001s-8 -33.334 -8 -56.001c0 -33.333 6.5 -56 19.5 -68s36.5 -18 70.5 -18c14.667 0 31 2.33301 49 7s35.667 10.334 53 17.001s33.333 13.5 48 20.5s26.667 13.167 36 18.5v137zM333.003 562.001c-12 0 -24.499 2.83496 -37.499 8.50195
s-25.833 11.667 -38.5 18l-37 18c-12 5.66699 -23 8.5 -33 8.5c-7.33301 0 -15.5 -2.83301 -24.5 -8.5s-18.167 -15.5 -27.5 -29.5c-2.66699 -4 -5 -6.5 -7 -7.5s-5.33301 -0.5 -10 1.5l-14 6c-4 1.33301 -5.83301 3.66602 -5.5 6.99902s1.16602 6.66602 2.49902 9.99902
c11.333 25.333 24.833 43.166 40.5 53.499s31.5 15.5 47.5 15.5c12 0 24.5 -2.83301 37.5 -8.5s25.833 -11.667 38.5 -18l36.5 -18c11.667 -5.66699 22.167 -8.5 31.5 -8.5c12 0 21.667 3.5 29 10.5s14.333 16.167 21 27.5c2 3.33301 3.83301 5.66602 5.5 6.99902
s4.83398 1 9.50098 -1l16 -6c4 -1.33301 5.66699 -3.66602 5 -6.99902s-1.33398 -5.66602 -2.00098 -6.99902c-17.333 -48 -45.333 -72 -84 -72z" />
    <glyph glyph-name="adieresis" unicode="&#xe4;" horiz-adv-x="505" 
d="M377 57c-14.667 -8.66699 -29.3311 -16.834 -43.998 -24.501s-30.334 -14.5 -47.001 -20.5s-34.334 -10.833 -53.001 -14.5s-39 -5.5 -61 -5.5c-45.333 0 -78 11.167 -98 33.5s-30 55.5 -30 99.5c0 56.667 14.167 98.334 42.5 125.001s73.833 40 136.5 40h155v45
c0 20 -1.83301 37 -5.5 51s-10.334 25.5 -20.001 34.5s-22.834 15.667 -39.501 20s-37.667 6.5 -63 6.5c-21.333 0 -45 -1 -71 -3s-50.667 -4.33301 -74 -7c-9.33301 -0.666992 -14.333 1.66602 -15 6.99902l-4 18c0 6.66699 3.66699 11.667 11 15
c10.667 4 23 7.33301 37 10s28.333 4.83398 43 6.50098s28.834 2.83398 42.501 3.50098s25.834 1 36.501 1c37.333 0 67.5 -3.5 90.5 -10.5s41 -17.667 54 -32s21.833 -32.333 26.5 -54s7 -46.834 7 -75.501v-246c0 -9.33301 0.666992 -16.5 2 -21.5s3.5 -8.83301 6.5 -11.5
s7.16699 -4.5 12.5 -5.5s12.333 -1.83301 21 -2.5c7.33301 0 11 -3 11 -9v-20c0 -3.33301 -1 -6 -3 -8s-6 -3.66699 -12 -5c-32.667 -3.33301 -56 -1 -70 7s-22 25.667 -24 53h-1zM378.003 242l-162 0.000976562c-17.333 0 -33 -1.66699 -47 -5s-26 -9.33301 -36 -18
s-17.667 -20.334 -23 -35.001s-8 -33.334 -8 -56.001c0 -33.333 6.5 -56 19.5 -68s36.5 -18 70.5 -18c14.667 0 31 2.33301 49 7s35.667 10.334 53 17.001s33.333 13.5 48 20.5s26.667 13.167 36 18.5v137zM200.003 605.001c0 -9.33301 -1.83301 -17.499 -5.5 -24.499
s-12.5 -10.5 -26.5 -10.5s-22.833 3.5 -26.5 10.5s-5.5 15.167 -5.5 24.5s2 17.166 6 23.499s12.667 9.5 26 9.5s22 -3 26 -9s6 -14 6 -24zM375.003 605.002c0 -9.33301 -2 -17.499 -6 -24.499s-12.667 -10.5 -26 -10.5c-14.667 0 -23.667 3.5 -27 10.5s-5 15.167 -5 24.5
s2 17.166 6 23.499s12.667 9.5 26 9.5s22 -3 26 -9s6 -14 6 -24z" />
    <glyph glyph-name="aring" unicode="&#xe5;" horiz-adv-x="505" 
d="M377 57c-14.667 -8.66699 -29.3311 -16.834 -43.998 -24.501s-30.334 -14.5 -47.001 -20.5s-34.334 -10.833 -53.001 -14.5s-39 -5.5 -61 -5.5c-45.333 0 -78 11.167 -98 33.5s-30 55.5 -30 99.5c0 56.667 14.167 98.334 42.5 125.001s73.833 40 136.5 40h155v45
c0 20 -1.83301 37 -5.5 51s-10.334 25.5 -20.001 34.5s-22.834 15.667 -39.501 20s-37.667 6.5 -63 6.5c-21.333 0 -45 -1 -71 -3s-50.667 -4.33301 -74 -7c-9.33301 -0.666992 -14.333 1.66602 -15 6.99902l-4 18c0 6.66699 3.66699 11.667 11 15
c10.667 4 23 7.33301 37 10s28.333 4.83398 43 6.50098s28.834 2.83398 42.501 3.50098s25.834 1 36.501 1c37.333 0 67.5 -3.5 90.5 -10.5s41 -17.667 54 -32s21.833 -32.333 26.5 -54s7 -46.834 7 -75.501v-246c0 -9.33301 0.666992 -16.5 2 -21.5s3.5 -8.83301 6.5 -11.5
s7.16699 -4.5 12.5 -5.5s12.333 -1.83301 21 -2.5c7.33301 0 11 -3 11 -9v-20c0 -3.33301 -1 -6 -3 -8s-6 -3.66699 -12 -5c-32.667 -3.33301 -56 -1 -70 7s-22 25.667 -24 53h-1zM378.003 242l-162 0.000976562c-17.333 0 -33 -1.66699 -47 -5s-26 -9.33301 -36 -18
s-17.667 -20.334 -23 -35.001s-8 -33.334 -8 -56.001c0 -33.333 6.5 -56 19.5 -68s36.5 -18 70.5 -18c14.667 0 31 2.33301 49 7s35.667 10.334 53 17.001s33.333 13.5 48 20.5s26.667 13.167 36 18.5v137zM264.003 713.001c13.333 0 25.666 -2.49902 36.999 -7.49902
s21.333 -11.833 30 -20.5s15.334 -18.667 20.001 -30s7 -23.333 7 -36s-2.33301 -24.667 -7 -36s-11.334 -21.166 -20.001 -29.499s-18.667 -15 -30 -20s-23.666 -7.5 -36.999 -7.5c-12.667 0 -24.667 2.33301 -36 7s-21.5 11.167 -30.5 19.5s-16.167 18.166 -21.5 29.499
s-8 23.666 -8 36.999s2.66699 25.833 8 37.5s12.5 21.667 21.5 30s19.167 14.833 30.5 19.5s23.333 7 36 7zM319.003 619.002c0 15.333 -5.33301 28.833 -16 40.5s-23.667 17.5 -39 17.5s-28.333 -5.83301 -39 -17.5s-16 -25.167 -16 -40.5c0 -16 5 -29.5 15 -40.5
s23.333 -16.5 40 -16.5c15.333 0 28.333 5.5 39 16.5s16 24.5 16 40.5z" />
    <glyph glyph-name="ae" unicode="&#xe6;" horiz-adv-x="802" 
d="M255 498c48 0 84.4922 -6.00488 109.492 -18.0049s42.167 -30.667 51.5 -56c14.667 21.333 34.5 38.833 59.5 52.5s58.167 20.5 99.5 20.5s75 -6 101 -18s46.333 -28 61 -48s24.667 -43 30 -69s8.33301 -53 9 -81c0 -15.333 -2.33301 -27.666 -7 -36.999s-15 -14 -31 -14
h-302c0 -29.333 1.83301 -55.5 5.5 -78.5s10.5 -42.5 20.5 -58.5s24 -28.333 42 -37s41.667 -13 71 -13c23.333 0 49.333 1.33301 78 4l76 7c4.66699 0 8.16699 -0.166992 10.5 -0.5s4.16602 -3.16602 5.49902 -8.49902l3 -15c1.33301 -7.33301 -1.33398 -12 -8.00098 -14
c-10 -4 -22.167 -7.5 -36.5 -10.5s-29.166 -5.5 -44.499 -7.5s-30.666 -3.5 -45.999 -4.5s-29 -1.5 -41 -1.5c-44.667 0 -80 7 -106 21s-45.667 33 -59 57l-35 -21c-14 -8 -28.167 -15.333 -42.5 -22s-29.666 -12.667 -45.999 -18s-34.166 -9.5 -53.499 -12.5
s-40.666 -4.5 -63.999 -4.5c-43.333 0 -74.666 11.333 -93.999 34s-29 55.334 -29 98.001c0 54.667 14 94 42 118s73.333 36 136 36h156v57c0 20 -1.83301 37 -5.5 51s-10.334 25.5 -20.001 34.5s-22.834 15.667 -39.501 20s-37.667 6.5 -63 6.5
c-21.333 0 -45.166 -1 -71.499 -3s-51.166 -4.33301 -74.499 -7c-3.33301 0 -6.16602 0.166992 -8.49902 0.5s-4.16602 2.5 -5.49902 6.5l-4 18c-2 6 1.66699 11 11 15c10.667 4 23 7.33301 37 10s28.333 4.83398 43 6.50098s28.834 2.83398 42.501 3.50098
s25.834 1 36.501 1zM214.992 229.995c-17.333 0 -33 -1.33203 -47 -3.99902s-26 -7.83398 -36 -15.501s-17.833 -18.167 -23.5 -31.5s-8.5 -30.333 -8.5 -51c0 -33.333 6.5 -56 19.5 -68s36.5 -18 70.5 -18c14.667 0 31.5 2.66699 50.5 8s38 11.833 57 19.5
s36.667 15.5 53 23.5s29.5 14.667 39.5 20c-5.33301 19.333 -8.83301 37.833 -10.5 55.5s-2.5 38.167 -2.5 61.5h-162zM574.992 446.996c-28.667 0 -51.833 -4.16602 -69.5 -12.499s-31.5 -20 -41.5 -35s-17 -33 -21 -54s-6.33301 -43.833 -7 -68.5h280
c-0.666992 21.333 -2.66699 42.166 -6 62.499s-9.83301 38.5 -19.5 54.5s-23.667 28.833 -42 38.5s-42.833 14.5 -73.5 14.5z" />
    <glyph glyph-name="ccedilla" unicode="&#xe7;" horiz-adv-x="409" 
d="M235 497c8.66699 0 19.333 -0.332031 32 -0.999023s25.667 -1.83398 39 -3.50098s26.333 -3.83398 39 -6.50098s24 -6 34 -10c5.33301 -2 8.16602 -4.66699 8.49902 -8s0.5 -6.33301 0.5 -9l-4 -17c-0.666992 -3.33301 -2.66699 -5.33301 -6 -6s-7.33301 -0.666992 -12 0
c-8.66699 0.666992 -18.5 1.66699 -29.5 3s-22.5 2.5 -34.5 3.5s-23.833 1.83301 -35.5 2.5s-22.5 1 -32.5 1c-26 0 -47.5 -3.16699 -64.5 -9.5s-30.333 -17.166 -40 -32.499s-16.334 -35.666 -20.001 -60.999s-5.5 -57 -5.5 -95c0 -39.333 2 -72.166 6 -98.499
s10.833 -47.333 20.5 -63s22.834 -26.834 39.501 -33.501s38 -10 64 -10c6.66699 0 15.667 0.333008 27 1s23.5 1.5 36.5 2.5l39 3c13 1 24.833 2.16699 35.5 3.5c8 0 12.333 -3 13 -9l3 -13c0.666992 -3.33301 0.333984 -6.5 -0.999023 -9.5
s-4.66602 -5.83301 -9.99902 -8.5c-15.333 -6 -35 -10.667 -59 -14s-47.667 -5.33301 -71 -6l-15 -41c34 -1.33301 56.833 -8.16602 68.5 -20.499s17.5 -27.166 17.5 -44.499c0 -25.333 -9 -44.166 -27 -56.499s-41.667 -18.5 -71 -18.5c-8 0 -18.5 1 -31.5 3
s-24.833 4.66699 -35.5 8c-6 1.33301 -8 4.66602 -6 9.99902l3 12c1.33301 5.33301 5 7.33301 11 6c10 -1.33301 20.167 -2.5 30.5 -3.5s19.166 -1.5 26.499 -1.5c14.667 0 27.334 2.66699 38.001 8s16 15.666 16 30.999c0 13.333 -4.33301 23.166 -13 29.499
s-25.667 9.5 -51 9.5c-10.667 0 -14 5.66699 -10 17l20 53c-37.333 1.33301 -67.333 8.66602 -90 21.999s-40.167 31.333 -52.5 54s-20.5 49 -24.5 79s-6 62.667 -6 98c0 32.667 2.16699 64.167 6.5 94.5s13.166 57 26.499 80s32.5 41.333 57.5 55s58.167 20.5 99.5 20.5z
" />
    <glyph glyph-name="egrave" unicode="&#xe8;" horiz-adv-x="482" 
d="M243 497c42 0 75.8291 -6.33496 101.496 -19.002s45.834 -29.167 60.501 -49.5s24.5 -43.666 29.5 -69.999s7.5 -53.166 7.5 -80.499c0 -15.333 -2.83301 -27.333 -8.5 -36s-16.5 -13 -32.5 -13h-297c1.33301 -33.333 3.83301 -61.833 7.5 -85.5
s10.334 -42.834 20.001 -57.501s23.334 -25.334 41.001 -32.001s41.167 -10 70.5 -10c10 0 22 0.5 36 1.5s28.333 2.33301 43 4s28.834 3.16699 42.501 4.5s24.834 2.33301 33.501 3c6.66699 0.666992 11 -2 13 -8l3 -16c2 -7.33301 -1.66699 -13 -11 -17
c-8 -2.66699 -18.667 -5.5 -32 -8.5s-27.666 -5.66699 -42.999 -8s-30.833 -4.16602 -46.5 -5.49902s-29.834 -2 -42.501 -2c-44.667 0 -79.834 7 -105.501 21s-45 32.667 -58 56s-21.167 50.5 -24.5 81.5s-5 63.167 -5 96.5c0 28.667 1.66699 57.834 5 87.501
s11.5 56.5 24.5 80.5s32.667 43.667 59 59s62.5 23 108.5 23zM242.996 446.998c-30.667 0 -54.8301 -3.83398 -72.4971 -11.501s-31.334 -18.834 -41.001 -33.501s-16 -32.667 -19 -54s-5.16699 -45.666 -6.5 -72.999h280c-0.666992 20.667 -2.33398 41.334 -5.00098 62.001
s-8.83398 39.167 -18.501 55.5s-23.667 29.5 -42 39.5s-43.5 15 -75.5 15zM244 542.997c-4 -1.33301 -6.66602 -2.16797 -7.99902 -2.50098s-3 0.833984 -5 3.50098l-86 125c-1.33301 2 -2.33301 4.33301 -3 7s1.33301 5 6 7l33 15c7.33301 4 12.333 3.33301 15 -2l70 -135
c3.33301 -6 2.66602 -10 -2.00098 -12z" />
    <glyph glyph-name="eacute" unicode="&#xe9;" horiz-adv-x="482" 
d="M243 497c42 0 75.8291 -6.33496 101.496 -19.002s45.834 -29.167 60.501 -49.5s24.5 -43.666 29.5 -69.999s7.5 -53.166 7.5 -80.499c0 -15.333 -2.83301 -27.333 -8.5 -36s-16.5 -13 -32.5 -13h-297c1.33301 -33.333 3.83301 -61.833 7.5 -85.5
s10.334 -42.834 20.001 -57.501s23.334 -25.334 41.001 -32.001s41.167 -10 70.5 -10c10 0 22 0.5 36 1.5s28.333 2.33301 43 4s28.834 3.16699 42.501 4.5s24.834 2.33301 33.501 3c6.66699 0.666992 11 -2 13 -8l3 -16c2 -7.33301 -1.66699 -13 -11 -17
c-8 -2.66699 -18.667 -5.5 -32 -8.5s-27.666 -5.66699 -42.999 -8s-30.833 -4.16602 -46.5 -5.49902s-29.834 -2 -42.501 -2c-44.667 0 -79.834 7 -105.501 21s-45 32.667 -58 56s-21.167 50.5 -24.5 81.5s-5 63.167 -5 96.5c0 28.667 1.66699 57.834 5 87.501
s11.5 56.5 24.5 80.5s32.667 43.667 59 59s62.5 23 108.5 23zM242.996 446.998c-30.667 0 -54.8301 -3.83398 -72.4971 -11.501s-31.334 -18.834 -41.001 -33.501s-16 -32.667 -19 -54s-5.16699 -45.666 -6.5 -72.999h280c-0.666992 20.667 -2.33398 41.334 -5.00098 62.001
s-8.83398 39.167 -18.501 55.5s-23.667 29.5 -42 39.5s-43.5 15 -75.5 15zM255 550.997c-3.33301 -3.33301 -7 -4 -11 -2l-21 8c-4 2 -5 5.66699 -3 11l69 136c2.66699 4.66699 7 5.66699 13 3l37 -16c5.33301 -2.66699 6 -6.66699 2 -12z" />
    <glyph glyph-name="ecircumflex" unicode="&#xea;" horiz-adv-x="482" 
d="M243 497c42 0 75.8291 -6.33496 101.496 -19.002s45.834 -29.167 60.501 -49.5s24.5 -43.666 29.5 -69.999s7.5 -53.166 7.5 -80.499c0 -15.333 -2.83301 -27.333 -8.5 -36s-16.5 -13 -32.5 -13h-297c1.33301 -33.333 3.83301 -61.833 7.5 -85.5
s10.334 -42.834 20.001 -57.501s23.334 -25.334 41.001 -32.001s41.167 -10 70.5 -10c10 0 22 0.5 36 1.5s28.333 2.33301 43 4s28.834 3.16699 42.501 4.5s24.834 2.33301 33.501 3c6.66699 0.666992 11 -2 13 -8l3 -16c2 -7.33301 -1.66699 -13 -11 -17
c-8 -2.66699 -18.667 -5.5 -32 -8.5s-27.666 -5.66699 -42.999 -8s-30.833 -4.16602 -46.5 -5.49902s-29.834 -2 -42.501 -2c-44.667 0 -79.834 7 -105.501 21s-45 32.667 -58 56s-21.167 50.5 -24.5 81.5s-5 63.167 -5 96.5c0 28.667 1.66699 57.834 5 87.501
s11.5 56.5 24.5 80.5s32.667 43.667 59 59s62.5 23 108.5 23zM242.996 446.998c-30.667 0 -54.8301 -3.83398 -72.4971 -11.501s-31.334 -18.834 -41.001 -33.501s-16 -32.667 -19 -54s-5.16699 -45.666 -6.5 -72.999h280c-0.666992 20.667 -2.33398 41.334 -5.00098 62.001
s-8.83398 39.167 -18.501 55.5s-23.667 29.5 -42 39.5s-43.5 15 -75.5 15zM368 546.997c-4.66699 -3.33301 -8.66895 -3.33301 -12.002 0l-110 104l-108 -103c-4 -4 -8.33301 -4.33301 -13 -1l-16 14c-4 2.66699 -4 6 0 10l96 115c4 6 11 9 21 9h42
c6.66699 0 11.334 -0.5 14.001 -1.5s5.33398 -3.16699 8.00098 -6.5l93 -115c4.66699 -5.33301 5 -9.33301 1 -12z" />
    <glyph glyph-name="edieresis" unicode="&#xeb;" horiz-adv-x="482" 
d="M243 497c42 0 75.8291 -6.33496 101.496 -19.002s45.834 -29.167 60.501 -49.5s24.5 -43.666 29.5 -69.999s7.5 -53.166 7.5 -80.499c0 -15.333 -2.83301 -27.333 -8.5 -36s-16.5 -13 -32.5 -13h-297c1.33301 -33.333 3.83301 -61.833 7.5 -85.5
s10.334 -42.834 20.001 -57.501s23.334 -25.334 41.001 -32.001s41.167 -10 70.5 -10c10 0 22 0.5 36 1.5s28.333 2.33301 43 4s28.834 3.16699 42.501 4.5s24.834 2.33301 33.501 3c6.66699 0.666992 11 -2 13 -8l3 -16c2 -7.33301 -1.66699 -13 -11 -17
c-8 -2.66699 -18.667 -5.5 -32 -8.5s-27.666 -5.66699 -42.999 -8s-30.833 -4.16602 -46.5 -5.49902s-29.834 -2 -42.501 -2c-44.667 0 -79.834 7 -105.501 21s-45 32.667 -58 56s-21.167 50.5 -24.5 81.5s-5 63.167 -5 96.5c0 28.667 1.66699 57.834 5 87.501
s11.5 56.5 24.5 80.5s32.667 43.667 59 59s62.5 23 108.5 23zM242.996 446.998c-30.667 0 -54.8301 -3.83398 -72.4971 -11.501s-31.334 -18.834 -41.001 -33.501s-16 -32.667 -19 -54s-5.16699 -45.666 -6.5 -72.999h280c-0.666992 20.667 -2.33398 41.334 -5.00098 62.001
s-8.83398 39.167 -18.501 55.5s-23.667 29.5 -42 39.5s-43.5 15 -75.5 15zM181 604.997c0 -9.33301 -1.83301 -17.499 -5.5 -24.499s-12.5 -10.5 -26.5 -10.5s-22.833 3.5 -26.5 10.5s-5.5 15.167 -5.5 24.5s2 17.166 6 23.499s12.667 9.5 26 9.5s22 -3 26 -9s6 -14 6 -24z
M356 604.998c0 -9.33301 -2 -17.499 -6 -24.499s-12.667 -10.5 -26 -10.5c-14.667 0 -23.667 3.5 -27 10.5s-5 15.167 -5 24.5s2 17.166 6 23.499s12.667 9.5 26 9.5s22 -3 26 -9s6 -14 6 -24z" />
    <glyph glyph-name="igrave" unicode="&#xec;" horiz-adv-x="210" 
d="M132 12c0 -8 -3.33301 -11.999 -10 -11.999h-32c-8.66699 0 -13 4 -13 12v463c0 5.33301 1 8.66602 3 9.99902s5.33301 2 10 2h32c6.66699 0 10 -4 10 -12v-463zM89 543.001c-4 -1.33301 -6.66602 -2.16797 -7.99902 -2.50098s-3 0.833984 -5 3.50098l-86 125
c-1.33301 2 -2.33301 4.33301 -3 7s1.33301 5 6 7l33 15c7.33301 4 12.333 3.33301 15 -2l70 -135c3.33301 -6 2.66602 -10 -2.00098 -12z" />
    <glyph glyph-name="iacute" unicode="&#xed;" horiz-adv-x="210" 
d="M132 12c0 -8 -3.33301 -11.999 -10 -11.999h-32c-8.66699 0 -13 4 -13 12v463c0 5.33301 1 8.66602 3 9.99902s5.33301 2 10 2h32c6.66699 0 10 -4 10 -12v-463zM121 551.001c-3.33301 -3.33301 -7 -4 -11 -2l-21 8c-4 2 -5 5.66699 -3 11l69 136
c2.66699 4.66699 7 5.66699 13 3l37 -16c5.33301 -2.66699 6 -6.66699 2 -12z" />
    <glyph glyph-name="icircumflex" unicode="&#xee;" horiz-adv-x="262" 
d="M158 12c0 -8 -3.33301 -11.999 -10 -11.999h-32c-8.66699 0 -13 4 -13 12v463c0 5.33301 1 8.66602 3 9.99902s5.33301 2 10 2h32c6.66699 0 10 -4 10 -12v-463zM253 547.001c-4.66699 -3.33301 -8.66895 -3.33301 -12.002 0l-110 104l-108 -103
c-4 -4 -8.33301 -4.33301 -13 -1l-16 14c-4 2.66699 -4 6 0 10l96 115c4 6 11 9 21 9h42c6.66699 0 11.334 -0.5 14.001 -1.5s5.33398 -3.16699 8.00098 -6.5l93 -115c4.66699 -5.33301 5 -9.33301 1 -12z" />
    <glyph glyph-name="idieresis" unicode="&#xef;" horiz-adv-x="219" 
d="M141 12c0 -8 -3.33301 -11.999 -10 -11.999h-32c-8.66699 0 -13 4 -13 12v463c0 5.33301 1 8.66602 3 9.99902s5.33301 2 10 2h32c6.66699 0 10 -4 10 -12v-463zM54 605.001c0 -9.33301 -1.83301 -17.499 -5.5 -24.499s-12.5 -10.5 -26.5 -10.5s-22.833 3.5 -26.5 10.5
s-5.5 15.167 -5.5 24.5s2 17.166 6 23.499s12.667 9.5 26 9.5s22 -3 26 -9s6 -14 6 -24zM229 605.002c0 -9.33301 -2 -17.499 -6 -24.499s-12.667 -10.5 -26 -10.5c-14.667 0 -23.667 3.5 -27 10.5s-5 15.167 -5 24.5s2 17.166 6 23.499s12.667 9.5 26 9.5s22 -3 26 -9
s6 -14 6 -24z" />
    <glyph glyph-name="eth" unicode="&#xf0;" horiz-adv-x="490" 
d="M445 705c2 -2.66699 3.16992 -5.16504 3.50293 -7.49805s-1.16699 -5.16602 -4.5 -8.49902l-51 -51c12.667 -16.667 22.667 -36.667 30 -60s13 -48.5 17 -75.5s6.66699 -55 8 -84s2 -57.5 2 -85.5c0 -49.333 -2.33301 -94.833 -7 -136.5s-14.334 -77.667 -29.001 -108
s-36 -54 -64 -71s-65 -25.5 -111 -25.5c-43.333 0 -77.833 7.5 -103.5 22.5s-45.334 34.167 -59.001 57.5s-22.5 49.166 -26.5 77.499s-6 56.166 -6 83.499c0 23.333 2.5 48.666 7.5 75.999s14.833 52.666 29.5 75.999s34.834 42.833 60.501 58.5s59.5 23.5 101.5 23.5
c36 0 66.5 -6.5 91.5 -19.5s43.833 -30.167 56.5 -51.5l2 2c-0.666992 16.667 -1.66699 34.334 -3 53.001s-3.5 36.834 -6.5 54.501s-7 34.5 -12 50.5s-11.5 30 -19.5 42l-56 -55c-4.66699 -6 -9.66699 -6 -15 0l-17 15c-3.33301 3.33301 -4.83301 6 -4.5 8
s2.16602 4.66699 5.49902 8l55 56c-9.33301 8.66699 -22.666 15.167 -39.999 19.5s-36.333 6.5 -57 6.5c-14 0 -27.333 -0.666992 -40 -2s-26 -3 -40 -5c-5.33301 -0.666992 -8.83301 -0.333984 -10.5 0.999023s-2.83398 3.33301 -3.50098 6l-3 21
c-0.666992 5.33301 2 9.33301 8 12c9.33301 4 19.166 7.16699 29.499 9.5s20.333 4 30 5s18.667 1.66699 27 2s15.5 0.5 21.5 0.5c24.667 0 47 -3.33301 67 -10s37.333 -15 52 -25l51 50c3.33301 2.66699 6 4.16699 8 4.5s4.66699 -1.16699 8 -4.5zM386.003 227.002
c0 27.333 -1.99902 52.668 -5.99902 76.001s-11.333 43.333 -22 60s-25.334 29.667 -44.001 39s-42.334 14 -71.001 14c-27.333 0 -50.166 -4.5 -68.499 -13.5s-32.833 -21.833 -43.5 -38.5s-18.167 -36.667 -22.5 -60s-6.5 -49.333 -6.5 -78c0 -25.333 1.83301 -49 5.5 -71
s10.667 -41.333 21 -58s24.5 -29.834 42.5 -39.501s41.667 -14.5 71 -14.5c31.333 0 56.5 5.33301 75.5 16s33.5 24.667 43.5 42s16.667 37 20 59s5 44.333 5 67z" />
    <glyph glyph-name="ntilde" unicode="&#xf1;" horiz-adv-x="479" 
d="M374 307c0 28 -1.16895 51 -3.50195 69s-6.66602 32.333 -12.999 43s-15.5 18.167 -27.5 22.5s-27.667 6.5 -47 6.5c-13.333 0 -28.833 -2.5 -46.5 -7.5s-35.167 -11 -52.5 -18s-33.166 -14 -47.499 -21s-25.166 -12.5 -32.499 -16.5v-370c0 -10 -4.66699 -15 -14 -15
h-26c-5.33301 0 -8.83301 1 -10.5 3s-2.5 6 -2.5 12v457c0 6 0.833008 10 2.5 12s5.16699 3 10.5 3h26c5.33301 0 9 -0.833008 11 -2.5s3 -5.83398 3 -12.501v-44c6.66699 4.66699 16.5 10.834 29.5 18.501s28 15.167 45 22.5s35.167 13.833 54.5 19.5
s38.666 8.5 57.999 8.5c30.667 0 55 -4.16699 73 -12.5s31.833 -20.333 41.5 -36s16 -34.5 19 -56.5s4.5 -46.667 4.5 -74v-303c0 -10 -5 -15 -15 -15h-27c-5.33301 0 -8.83301 1 -10.5 3s-2.5 6 -2.5 12v292zM319.998 562c-12 0 -24.499 2.83496 -37.499 8.50195
s-25.833 11.667 -38.5 18l-37 18c-12 5.66699 -23 8.5 -33 8.5c-7.33301 0 -15.5 -2.83301 -24.5 -8.5s-18.167 -15.5 -27.5 -29.5c-2.66699 -4 -5 -6.5 -7 -7.5s-5.33301 -0.5 -10 1.5l-14 6c-4 1.33301 -5.83301 3.66602 -5.5 6.99902s1.16602 6.66602 2.49902 9.99902
c11.333 25.333 24.833 43.166 40.5 53.499s31.5 15.5 47.5 15.5c12 0 24.5 -2.83301 37.5 -8.5s25.833 -11.667 38.5 -18l36.5 -18c11.667 -5.66699 22.167 -8.5 31.5 -8.5c12 0 21.667 3.5 29 10.5s14.333 16.167 21 27.5c2 3.33301 3.83301 5.66602 5.5 6.99902
s4.83398 1 9.50098 -1l16 -6c4 -1.33301 5.66699 -3.66602 5 -6.99902s-1.33398 -5.66602 -2.00098 -6.99902c-17.333 -48 -45.333 -72 -84 -72z" />
    <glyph glyph-name="ograve" unicode="&#xf2;" horiz-adv-x="487" 
d="M240 -8c-46 0 -82.0039 7.66699 -108.004 23s-45.5 35.5 -58.5 60.5s-21 52.833 -24 83.5s-4.5 61.667 -4.5 93c0 25.333 1.83301 52.333 5.5 81s12.334 55.167 26.001 79.5s33.334 44.5 59.001 60.5s60.5 24 104.5 24c44.667 0 80.334 -6.83301 107.001 -20.5
s47 -32 61 -55s23.167 -49.167 27.5 -78.5s6.5 -59.666 6.5 -90.999c0 -30.667 -1.66699 -61.5 -5 -92.5s-11.666 -58.833 -24.999 -83.5s-33.5 -44.834 -60.5 -60.501s-64.167 -23.5 -111.5 -23.5zM239.996 448c-29.333 0 -52.999 -4.5 -70.999 -13.5s-32 -22.333 -42 -40
s-16.833 -39 -20.5 -64s-5.5 -53.5 -5.5 -85.5s1.83301 -60.5 5.5 -85.5s10.5 -46.333 20.5 -64s24 -31 42 -40s41.667 -13.5 71 -13.5c30 0 54.5 4.33301 73.5 13s33.833 21.667 44.5 39s18 38.5 22 63.5s6 54.167 6 87.5c0 32.667 -1.83301 61.5 -5.5 86.5
s-10.834 46.167 -21.501 63.5s-25.5 30.5 -44.5 39.5s-43.833 13.5 -74.5 13.5zM248.997 543c-4 -1.33301 -6.66602 -2.16797 -7.99902 -2.50098s-3 0.833984 -5 3.50098l-86 125c-1.33301 2 -2.33301 4.33301 -3 7s1.33301 5 6 7l33 15c7.33301 4 12.333 3.33301 15 -2
l70 -135c3.33301 -6 2.66602 -10 -2.00098 -12z" />
    <glyph glyph-name="oacute" unicode="&#xf3;" horiz-adv-x="487" 
d="M240 -8c-46 0 -82.0039 7.66699 -108.004 23s-45.5 35.5 -58.5 60.5s-21 52.833 -24 83.5s-4.5 61.667 -4.5 93c0 25.333 1.83301 52.333 5.5 81s12.334 55.167 26.001 79.5s33.334 44.5 59.001 60.5s60.5 24 104.5 24c44.667 0 80.334 -6.83301 107.001 -20.5
s47 -32 61 -55s23.167 -49.167 27.5 -78.5s6.5 -59.666 6.5 -90.999c0 -30.667 -1.66699 -61.5 -5 -92.5s-11.666 -58.833 -24.999 -83.5s-33.5 -44.834 -60.5 -60.501s-64.167 -23.5 -111.5 -23.5zM239.996 448c-29.333 0 -52.999 -4.5 -70.999 -13.5s-32 -22.333 -42 -40
s-16.833 -39 -20.5 -64s-5.5 -53.5 -5.5 -85.5s1.83301 -60.5 5.5 -85.5s10.5 -46.333 20.5 -64s24 -31 42 -40s41.667 -13.5 71 -13.5c30 0 54.5 4.33301 73.5 13s33.833 21.667 44.5 39s18 38.5 22 63.5s6 54.167 6 87.5c0 32.667 -1.83301 61.5 -5.5 86.5
s-10.834 46.167 -21.501 63.5s-25.5 30.5 -44.5 39.5s-43.833 13.5 -74.5 13.5zM255.997 551c-3.33301 -3.33301 -7 -4 -11 -2l-21 8c-4 2 -5 5.66699 -3 11l69 136c2.66699 4.66699 7 5.66699 13 3l37 -16c5.33301 -2.66699 6 -6.66699 2 -12z" />
    <glyph glyph-name="ocircumflex" unicode="&#xf4;" horiz-adv-x="487" 
d="M240 -8c-46 0 -82.0039 7.66699 -108.004 23s-45.5 35.5 -58.5 60.5s-21 52.833 -24 83.5s-4.5 61.667 -4.5 93c0 25.333 1.83301 52.333 5.5 81s12.334 55.167 26.001 79.5s33.334 44.5 59.001 60.5s60.5 24 104.5 24c44.667 0 80.334 -6.83301 107.001 -20.5
s47 -32 61 -55s23.167 -49.167 27.5 -78.5s6.5 -59.666 6.5 -90.999c0 -30.667 -1.66699 -61.5 -5 -92.5s-11.666 -58.833 -24.999 -83.5s-33.5 -44.834 -60.5 -60.501s-64.167 -23.5 -111.5 -23.5zM239.996 448c-29.333 0 -52.999 -4.5 -70.999 -13.5s-32 -22.333 -42 -40
s-16.833 -39 -20.5 -64s-5.5 -53.5 -5.5 -85.5s1.83301 -60.5 5.5 -85.5s10.5 -46.333 20.5 -64s24 -31 42 -40s41.667 -13.5 71 -13.5c30 0 54.5 4.33301 73.5 13s33.833 21.667 44.5 39s18 38.5 22 63.5s6 54.167 6 87.5c0 32.667 -1.83301 61.5 -5.5 86.5
s-10.834 46.167 -21.501 63.5s-25.5 30.5 -44.5 39.5s-43.833 13.5 -74.5 13.5zM366.997 547c-4.66699 -3.33301 -8.66895 -3.33301 -12.002 0l-110 104l-108 -103c-4 -4 -8.33301 -4.33301 -13 -1l-16 14c-4 2.66699 -4 6 0 10l96 115c4 6 11 9 21 9h42
c6.66699 0 11.334 -0.5 14.001 -1.5s5.33398 -3.16699 8.00098 -6.5l93 -115c4.66699 -5.33301 5 -9.33301 1 -12z" />
    <glyph glyph-name="otilde" unicode="&#xf5;" horiz-adv-x="487" 
d="M240 -8c-46 0 -82.0039 7.66699 -108.004 23s-45.5 35.5 -58.5 60.5s-21 52.833 -24 83.5s-4.5 61.667 -4.5 93c0 25.333 1.83301 52.333 5.5 81s12.334 55.167 26.001 79.5s33.334 44.5 59.001 60.5s60.5 24 104.5 24c44.667 0 80.334 -6.83301 107.001 -20.5
s47 -32 61 -55s23.167 -49.167 27.5 -78.5s6.5 -59.666 6.5 -90.999c0 -30.667 -1.66699 -61.5 -5 -92.5s-11.666 -58.833 -24.999 -83.5s-33.5 -44.834 -60.5 -60.501s-64.167 -23.5 -111.5 -23.5zM239.996 448c-29.333 0 -52.999 -4.5 -70.999 -13.5s-32 -22.333 -42 -40
s-16.833 -39 -20.5 -64s-5.5 -53.5 -5.5 -85.5s1.83301 -60.5 5.5 -85.5s10.5 -46.333 20.5 -64s24 -31 42 -40s41.667 -13.5 71 -13.5c30 0 54.5 4.33301 73.5 13s33.833 21.667 44.5 39s18 38.5 22 63.5s6 54.167 6 87.5c0 32.667 -1.83301 61.5 -5.5 86.5
s-10.834 46.167 -21.501 63.5s-25.5 30.5 -44.5 39.5s-43.833 13.5 -74.5 13.5zM319.997 562c-12 0 -24.499 2.83496 -37.499 8.50195s-25.833 11.667 -38.5 18l-37 18c-12 5.66699 -23 8.5 -33 8.5c-7.33301 0 -15.5 -2.83301 -24.5 -8.5s-18.167 -15.5 -27.5 -29.5
c-2.66699 -4 -5 -6.5 -7 -7.5s-5.33301 -0.5 -10 1.5l-14 6c-4 1.33301 -5.83301 3.66602 -5.5 6.99902s1.16602 6.66602 2.49902 9.99902c11.333 25.333 24.833 43.166 40.5 53.499s31.5 15.5 47.5 15.5c12 0 24.5 -2.83301 37.5 -8.5s25.833 -11.667 38.5 -18l36.5 -18
c11.667 -5.66699 22.167 -8.5 31.5 -8.5c12 0 21.667 3.5 29 10.5s14.333 16.167 21 27.5c2 3.33301 3.83301 5.66602 5.5 6.99902s4.83398 1 9.50098 -1l16 -6c4 -1.33301 5.66699 -3.66602 5 -6.99902s-1.33398 -5.66602 -2.00098 -6.99902
c-17.333 -48 -45.333 -72 -84 -72z" />
    <glyph glyph-name="odieresis" unicode="&#xf6;" horiz-adv-x="487" 
d="M240 -8c-46 0 -82.0039 7.66699 -108.004 23s-45.5 35.5 -58.5 60.5s-21 52.833 -24 83.5s-4.5 61.667 -4.5 93c0 25.333 1.83301 52.333 5.5 81s12.334 55.167 26.001 79.5s33.334 44.5 59.001 60.5s60.5 24 104.5 24c44.667 0 80.334 -6.83301 107.001 -20.5
s47 -32 61 -55s23.167 -49.167 27.5 -78.5s6.5 -59.666 6.5 -90.999c0 -30.667 -1.66699 -61.5 -5 -92.5s-11.666 -58.833 -24.999 -83.5s-33.5 -44.834 -60.5 -60.501s-64.167 -23.5 -111.5 -23.5zM239.996 448c-29.333 0 -52.999 -4.5 -70.999 -13.5s-32 -22.333 -42 -40
s-16.833 -39 -20.5 -64s-5.5 -53.5 -5.5 -85.5s1.83301 -60.5 5.5 -85.5s10.5 -46.333 20.5 -64s24 -31 42 -40s41.667 -13.5 71 -13.5c30 0 54.5 4.33301 73.5 13s33.833 21.667 44.5 39s18 38.5 22 63.5s6 54.167 6 87.5c0 32.667 -1.83301 61.5 -5.5 86.5
s-10.834 46.167 -21.501 63.5s-25.5 30.5 -44.5 39.5s-43.833 13.5 -74.5 13.5zM185.997 605c0 -9.33301 -1.83301 -17.499 -5.5 -24.499s-12.5 -10.5 -26.5 -10.5s-22.833 3.5 -26.5 10.5s-5.5 15.167 -5.5 24.5s2 17.166 6 23.499s12.667 9.5 26 9.5s22 -3 26 -9
s6 -14 6 -24zM360.997 605.001c0 -9.33301 -2 -17.499 -6 -24.499s-12.667 -10.5 -26 -10.5c-14.667 0 -23.667 3.5 -27 10.5s-5 15.167 -5 24.5s2 17.166 6 23.499s12.667 9.5 26 9.5s22 -3 26 -9s6 -14 6 -24z" />
    <glyph glyph-name="divide" unicode="&#xf7;" horiz-adv-x="543" 
d="M311 482c0 -11.333 -2.16699 -21 -6.5 -29s-14.833 -12 -31.5 -12s-27 4 -31 12s-6 17.667 -6 29c0 10.667 2.33301 19.5 7 26.5s14.667 10.5 30 10.5c16 0 26.333 -3.33301 31 -10s7 -15.667 7 -27zM311 171c0 -11.333 -2.16699 -21 -6.5 -29s-14.833 -12 -31.5 -12
s-27 4.16699 -31 12.5s-6 17.833 -6 28.5c0 11.333 2.33301 20.5 7 27.5s14.667 10.5 30 10.5c16 0 26.333 -3.5 31 -10.5s7 -16.167 7 -27.5zM461 312c0 -5.33301 -3.33301 -8 -10 -8h-358c-6.66699 0 -10 2.66699 -10 8v29c0 6.66699 3.33301 10 10 10h358
c6.66699 0 10 -3.33301 10 -10v-29z" />
    <glyph glyph-name="oslash" unicode="&#xf8;" horiz-adv-x="490" 
d="M240 -8c-29.333 0 -54.168 3 -74.501 9s-37.833 14.667 -52.5 26l-25 -35c-2 -2.66699 -3.83301 -4.5 -5.5 -5.5s-4.16699 -0.5 -7.5 1.5l-18 14c-4.66699 3.33301 -5.33398 7.66602 -2.00098 12.999l30 41c-9.33301 12.667 -16.666 26.667 -21.999 42
s-9.33301 31.5 -12 48.5s-4.33398 34.333 -5.00098 52s-1 35.5 -1 53.5c0 25.333 1.83301 52.333 5.5 81s12.334 55.167 26.001 79.5s33.334 44.5 59.001 60.5s60.5 24 104.5 24c32 0 59 -3.5 81 -10.5s40.667 -17.167 56 -30.5l31 42
c3.33301 6.66699 7.66602 8.33398 12.999 5.00098l17 -13c5.33301 -3.33301 6.33301 -8 3 -14l-37 -50c15.333 -23.333 25.5 -50.166 30.5 -80.499s7.5 -61.5 7.5 -93.5c0 -30.667 -1.66699 -61.5 -5 -92.5s-11.666 -58.833 -24.999 -83.5s-33.5 -44.834 -60.5 -60.501
s-64.167 -23.5 -111.5 -23.5zM239.998 448c-29.333 0 -53 -4.5 -71 -13.5s-32 -22.333 -42 -40s-16.833 -39 -20.5 -64s-5.5 -53.5 -5.5 -85.5c0 -29.333 1.33301 -55.5 4 -78.5s8 -43.167 16 -60.5l224 307c-11.333 11.333 -25.333 20 -42 26s-37.667 9 -63 9zM385.998 245
c0 27.333 -1.16699 51.832 -3.5 73.499s-7.16602 40.834 -14.499 57.501l-222 -305c21.333 -19.333 52.666 -29 93.999 -29c30 0 54.5 4.33301 73.5 13s33.833 21.667 44.5 39s18 38.5 22 63.5s6 54.167 6 87.5z" />
    <glyph glyph-name="ugrave" unicode="&#xf9;" horiz-adv-x="491" 
d="M110 180c0 -28 1.16895 -50.9951 3.50195 -68.9951s7 -32.333 14 -43s16.667 -18.167 29 -22.5s28.166 -6.5 47.499 -6.5c13.333 0 28.833 2.5 46.5 7.5s35.167 11 52.5 18s33.166 14 47.499 21s25.166 12.5 32.499 16.5v370c0 10 4.66699 15 14 15h26
c5.33301 0 8.83301 -1 10.5 -3s2.5 -6 2.5 -12v-457c0 -6 -0.833008 -10 -2.5 -12s-5.16699 -3 -10.5 -3h-26c-5.33301 0 -9.16602 1 -11.499 3s-3.5 6 -3.5 12v45c-6.66699 -4.66699 -16.334 -10.834 -29.001 -18.501s-27.5 -15.334 -44.5 -23.001
s-35.167 -14.167 -54.5 -19.5s-38.666 -8 -57.999 -8c-30.667 0 -55.167 4.16699 -73.5 12.5s-32.5 20.166 -42.5 35.499s-16.667 34.166 -20 56.499s-5 47.166 -5 74.499v302c0 10 5 15 15 15h27c5.33301 0 8.83301 -1 10.5 -3s2.5 -6 2.5 -12v-292zM255.002 543.005
c-4 -1.33301 -6.66602 -2.16797 -7.99902 -2.50098s-3 0.833984 -5 3.50098l-86 125c-1.33301 2 -2.33301 4.33301 -3 7s1.33301 5 6 7l33 15c7.33301 4 12.333 3.33301 15 -2l70 -135c3.33301 -6 2.66602 -10 -2.00098 -12z" />
    <glyph glyph-name="uacute" unicode="&#xfa;" horiz-adv-x="491" 
d="M110 180c0 -28 1.16895 -50.9951 3.50195 -68.9951s7 -32.333 14 -43s16.667 -18.167 29 -22.5s28.166 -6.5 47.499 -6.5c13.333 0 28.833 2.5 46.5 7.5s35.167 11 52.5 18s33.166 14 47.499 21s25.166 12.5 32.499 16.5v370c0 10 4.66699 15 14 15h26
c5.33301 0 8.83301 -1 10.5 -3s2.5 -6 2.5 -12v-457c0 -6 -0.833008 -10 -2.5 -12s-5.16699 -3 -10.5 -3h-26c-5.33301 0 -9.16602 1 -11.499 3s-3.5 6 -3.5 12v45c-6.66699 -4.66699 -16.334 -10.834 -29.001 -18.501s-27.5 -15.334 -44.5 -23.001
s-35.167 -14.167 -54.5 -19.5s-38.666 -8 -57.999 -8c-30.667 0 -55.167 4.16699 -73.5 12.5s-32.5 20.166 -42.5 35.499s-16.667 34.166 -20 56.499s-5 47.166 -5 74.499v302c0 10 5 15 15 15h27c5.33301 0 8.83301 -1 10.5 -3s2.5 -6 2.5 -12v-292zM267.002 551.005
c-3.33301 -3.33301 -7 -4 -11 -2l-21 8c-4 2 -5 5.66699 -3 11l69 136c2.66699 4.66699 7 5.66699 13 3l37 -16c5.33301 -2.66699 6 -6.66699 2 -12z" />
    <glyph glyph-name="ucircumflex" unicode="&#xfb;" horiz-adv-x="491" 
d="M110 180c0 -28 1.16895 -50.9951 3.50195 -68.9951s7 -32.333 14 -43s16.667 -18.167 29 -22.5s28.166 -6.5 47.499 -6.5c13.333 0 28.833 2.5 46.5 7.5s35.167 11 52.5 18s33.166 14 47.499 21s25.166 12.5 32.499 16.5v370c0 10 4.66699 15 14 15h26
c5.33301 0 8.83301 -1 10.5 -3s2.5 -6 2.5 -12v-457c0 -6 -0.833008 -10 -2.5 -12s-5.16699 -3 -10.5 -3h-26c-5.33301 0 -9.16602 1 -11.499 3s-3.5 6 -3.5 12v45c-6.66699 -4.66699 -16.334 -10.834 -29.001 -18.501s-27.5 -15.334 -44.5 -23.001
s-35.167 -14.167 -54.5 -19.5s-38.666 -8 -57.999 -8c-30.667 0 -55.167 4.16699 -73.5 12.5s-32.5 20.166 -42.5 35.499s-16.667 34.166 -20 56.499s-5 47.166 -5 74.499v302c0 10 5 15 15 15h27c5.33301 0 8.83301 -1 10.5 -3s2.5 -6 2.5 -12v-292zM372.002 547.005
c-4.66699 -3.33301 -8.66895 -3.33301 -12.002 0l-110 104l-108 -103c-4 -4 -8.33301 -4.33301 -13 -1l-16 14c-4 2.66699 -4 6 0 10l96 115c4 6 11 9 21 9h42c6.66699 0 11.334 -0.5 14.001 -1.5s5.33398 -3.16699 8.00098 -6.5l93 -115c4.66699 -5.33301 5 -9.33301 1 -12
z" />
    <glyph glyph-name="udieresis" unicode="&#xfc;" horiz-adv-x="491" 
d="M110 180c0 -28 1.16895 -50.9951 3.50195 -68.9951s7 -32.333 14 -43s16.667 -18.167 29 -22.5s28.166 -6.5 47.499 -6.5c13.333 0 28.833 2.5 46.5 7.5s35.167 11 52.5 18s33.166 14 47.499 21s25.166 12.5 32.499 16.5v370c0 10 4.66699 15 14 15h26
c5.33301 0 8.83301 -1 10.5 -3s2.5 -6 2.5 -12v-457c0 -6 -0.833008 -10 -2.5 -12s-5.16699 -3 -10.5 -3h-26c-5.33301 0 -9.16602 1 -11.499 3s-3.5 6 -3.5 12v45c-6.66699 -4.66699 -16.334 -10.834 -29.001 -18.501s-27.5 -15.334 -44.5 -23.001
s-35.167 -14.167 -54.5 -19.5s-38.666 -8 -57.999 -8c-30.667 0 -55.167 4.16699 -73.5 12.5s-32.5 20.166 -42.5 35.499s-16.667 34.166 -20 56.499s-5 47.166 -5 74.499v302c0 10 5 15 15 15h27c5.33301 0 8.83301 -1 10.5 -3s2.5 -6 2.5 -12v-292zM195.002 605.005
c0 -9.33301 -1.83301 -17.499 -5.5 -24.499s-12.5 -10.5 -26.5 -10.5s-22.833 3.5 -26.5 10.5s-5.5 15.167 -5.5 24.5s2 17.166 6 23.499s12.667 9.5 26 9.5s22 -3 26 -9s6 -14 6 -24zM370.002 605.006c0 -9.33301 -2 -17.499 -6 -24.499s-12.667 -10.5 -26 -10.5
c-14.667 0 -23.667 3.5 -27 10.5s-5 15.167 -5 24.5s2 17.166 6 23.499s12.667 9.5 26 9.5s22 -3 26 -9s6 -14 6 -24z" />
    <glyph glyph-name="yacute" unicode="&#xfd;" horiz-adv-x="438" 
d="M196 -164c-1.33301 -4 -3.33398 -6.99805 -6.00098 -8.99805s-6.66699 -3 -12 -3h-29c-7.33301 0 -10 4 -8 12l54 156l-176 482c-1.33301 3.33301 -1.66602 6.16602 -0.999023 8.49902s3 3.5 7 3.5h36c5.33301 0 9 -3.66699 11 -11l133 -365l18 -55l17 58l122 365
c1.33301 3.33301 2.5 5.66602 3.5 6.99902s3.16699 2 6.5 2h39c4 0 6.16699 -1 6.5 -3s-0.166992 -4.66699 -1.5 -8zM225.999 551.002c-3.33301 -3.33301 -7 -4 -11 -2l-21 8c-4 2 -5 5.66699 -3 11l69 136c2.66699 4.66699 7 5.66699 13 3l37 -16
c5.33301 -2.66699 6 -6.66699 2 -12z" />
    <glyph glyph-name="thorn" unicode="&#xfe;" horiz-adv-x="492" 
d="M62 651c0 8 3.33008 11.999 9.99707 11.999h33c7.33301 0 11 -4 11 -12v-220c0.666992 0 1.33398 -0.333008 2.00098 -1c9.33301 6 20.833 12.667 34.5 20s28.5 14.5 44.5 21.5s33.167 12.833 51.5 17.5s36.5 7 54.5 7c29.333 0 53.833 -5.16699 73.5 -15.5
s35.334 -25.666 47.001 -45.999s20 -46 25 -77s7.5 -66.833 7.5 -107.5c0 -42.667 -2.83301 -80.167 -8.5 -112.5s-15.5 -59.333 -29.5 -81s-33.167 -38 -57.5 -49s-55.166 -16.5 -92.499 -16.5c-19.333 0 -41.833 2 -67.5 6s-53.167 11.667 -82.5 23l-2 -1v-182
c0 -8.66699 -3.66699 -13 -11 -13h-27c-10.667 0 -16 5.33301 -16 16v811zM116.997 65.999c30 -9.33301 57.833 -15.833 83.5 -19.5s50.167 -5.5 73.5 -5.5s43 3.83301 59 11.5s28.833 20 38.5 37s16.667 38.833 21 65.5s6.5 59.334 6.5 98.001s-2.16699 70.5 -6.5 95.5
s-10.666 44.833 -18.999 59.5s-19 24.667 -32 30s-28.5 8 -46.5 8c-13.333 0 -28.5 -2.33301 -45.5 -7s-33.833 -10.334 -50.5 -17.001s-32.334 -13.667 -47.001 -21l-35 -18v-317z" />
    <glyph glyph-name="ydieresis" unicode="&#xff;" horiz-adv-x="438" 
d="M196 -164c-1.33301 -4 -3.33398 -6.99805 -6.00098 -8.99805s-6.66699 -3 -12 -3h-29c-7.33301 0 -10 4 -8 12l54 156l-176 482c-1.33301 3.33301 -1.66602 6.16602 -0.999023 8.49902s3 3.5 7 3.5h36c5.33301 0 9 -3.66699 11 -11l133 -365l18 -55l17 58l122 365
c1.33301 3.33301 2.5 5.66602 3.5 6.99902s3.16699 2 6.5 2h39c4 0 6.16699 -1 6.5 -3s-0.166992 -4.66699 -1.5 -8zM161.999 605.002c0 -9.33301 -1.83301 -17.499 -5.5 -24.499s-12.5 -10.5 -26.5 -10.5s-22.833 3.5 -26.5 10.5s-5.5 15.167 -5.5 24.5s2 17.166 6 23.499
s12.667 9.5 26 9.5s22 -3 26 -9s6 -14 6 -24zM336.999 605.003c0 -9.33301 -2 -17.499 -6 -24.499s-12.667 -10.5 -26 -10.5c-14.667 0 -23.667 3.5 -27 10.5s-5 15.167 -5 24.5s2 17.166 6 23.499s12.667 9.5 26 9.5s22 -3 26 -9s6 -14 6 -24z" />
    <glyph glyph-name="Amacron" unicode="&#x100;" horiz-adv-x="532" 
d="M464 0c-7.33301 0 -11.999 3.33398 -13.999 10.001l-53 173h-267l-54 -169c-2 -6 -4.5 -9.83301 -7.5 -11.5s-7.16699 -2.5 -12.5 -2.5h-28c-7.33301 0 -9.66602 4 -6.99902 12l206 636c1.33301 5.33301 3 9.16602 5 11.499s5.66699 3.5 11 3.5h42
c5.33301 0 9.16602 -1.5 11.499 -4.5s4.16602 -6.5 5.49902 -10.5l208 -638c2.66699 -6.66699 1 -10 -5 -10h-41zM293.001 513.001l-13.5 44.5c-3 9.66699 -5.16699 17 -6.5 22l-3.5 13c-1 3.66699 -2.5 9.83398 -4.5 18.501h-2c-2 -8.66699 -3.5 -14.834 -4.5 -18.501
s-2.33301 -8 -4 -13l-7 -21.5l-13.5 -44l-88 -281h235zM396.001 738.001c0 -5.33301 -3 -8 -9 -8h-239c-6.66699 0 -10 3 -10 9v30c0 6.66699 3.33301 10 10 10h239c6 0 9 -3.33301 9 -10v-31z" />
    <glyph glyph-name="amacron" unicode="&#x101;" horiz-adv-x="505" 
d="M377 57c-14.667 -8.66699 -29.3311 -16.834 -43.998 -24.501s-30.334 -14.5 -47.001 -20.5s-34.334 -10.833 -53.001 -14.5s-39 -5.5 -61 -5.5c-45.333 0 -78 11.167 -98 33.5s-30 55.5 -30 99.5c0 56.667 14.167 98.334 42.5 125.001s73.833 40 136.5 40h155v45
c0 20 -1.83301 37 -5.5 51s-10.334 25.5 -20.001 34.5s-22.834 15.667 -39.501 20s-37.667 6.5 -63 6.5c-21.333 0 -45 -1 -71 -3s-50.667 -4.33301 -74 -7c-9.33301 -0.666992 -14.333 1.66602 -15 6.99902l-4 18c0 6.66699 3.66699 11.667 11 15
c10.667 4 23 7.33301 37 10s28.333 4.83398 43 6.50098s28.834 2.83398 42.501 3.50098s25.834 1 36.501 1c37.333 0 67.5 -3.5 90.5 -10.5s41 -17.667 54 -32s21.833 -32.333 26.5 -54s7 -46.834 7 -75.501v-246c0 -9.33301 0.666992 -16.5 2 -21.5s3.5 -8.83301 6.5 -11.5
s7.16699 -4.5 12.5 -5.5s12.333 -1.83301 21 -2.5c7.33301 0 11 -3 11 -9v-20c0 -3.33301 -1 -6 -3 -8s-6 -3.66699 -12 -5c-32.667 -3.33301 -56 -1 -70 7s-22 25.667 -24 53h-1zM378.003 242l-162 0.000976562c-17.333 0 -33 -1.66699 -47 -5s-26 -9.33301 -36 -18
s-17.667 -20.334 -23 -35.001s-8 -33.334 -8 -56.001c0 -33.333 6.5 -56 19.5 -68s36.5 -18 70.5 -18c14.667 0 31 2.33301 49 7s35.667 10.334 53 17.001s33.333 13.5 48 20.5s26.667 13.167 36 18.5v137zM392.003 592.001c0 -5.33301 -3.33301 -8 -10 -8h-238
c-6.66699 0 -10 2.66699 -10 8v31c0 6 3.33301 9 10 9h238c6.66699 0 10 -3 10 -9v-31z" />
    <glyph glyph-name="Abreve" unicode="&#x102;" horiz-adv-x="532" 
d="M464 0c-7.33301 0 -11.999 3.33398 -13.999 10.001l-53 173h-267l-54 -169c-2 -6 -4.5 -9.83301 -7.5 -11.5s-7.16699 -2.5 -12.5 -2.5h-28c-7.33301 0 -9.66602 4 -6.99902 12l206 636c1.33301 5.33301 3 9.16602 5 11.499s5.66699 3.5 11 3.5h42
c5.33301 0 9.16602 -1.5 11.499 -4.5s4.16602 -6.5 5.49902 -10.5l208 -638c2.66699 -6.66699 1 -10 -5 -10h-41zM293.001 513.001l-13.5 44.5c-3 9.66699 -5.16699 17 -6.5 22l-3.5 13c-1 3.66699 -2.5 9.83398 -4.5 18.501h-2c-2 -8.66699 -3.5 -14.834 -4.5 -18.501
s-2.33301 -8 -4 -13l-7 -21.5l-13.5 -44l-88 -281h235zM261.001 708.001c-26 0 -51.167 6.49902 -75.5 19.499s-43.5 33.833 -57.5 62.5l-5 12c-2 4.66699 -1.33301 8.66699 2 12l16 11c5.33301 4 10.333 3 15 -3c8.66699 -12 17 -22 25 -30s16.167 -14.667 24.5 -20
s17.166 -9.16602 26.499 -11.499s19.666 -3.5 30.999 -3.5c20 0 37.5 5.16699 52.5 15.5s31.5 27.166 49.5 50.499c4 4.66699 9 5.66699 15 3l15 -10c3.33301 -3.33301 4 -7.33301 2 -12l-5 -12c-15.333 -29.333 -34.666 -50.666 -57.999 -63.999s-47.666 -20 -72.999 -20z
" />
    <glyph glyph-name="abreve" unicode="&#x103;" horiz-adv-x="505" 
d="M377 57c-14.667 -8.66699 -29.3311 -16.834 -43.998 -24.501s-30.334 -14.5 -47.001 -20.5s-34.334 -10.833 -53.001 -14.5s-39 -5.5 -61 -5.5c-45.333 0 -78 11.167 -98 33.5s-30 55.5 -30 99.5c0 56.667 14.167 98.334 42.5 125.001s73.833 40 136.5 40h155v45
c0 20 -1.83301 37 -5.5 51s-10.334 25.5 -20.001 34.5s-22.834 15.667 -39.501 20s-37.667 6.5 -63 6.5c-21.333 0 -45 -1 -71 -3s-50.667 -4.33301 -74 -7c-9.33301 -0.666992 -14.333 1.66602 -15 6.99902l-4 18c0 6.66699 3.66699 11.667 11 15
c10.667 4 23 7.33301 37 10s28.333 4.83398 43 6.50098s28.834 2.83398 42.501 3.50098s25.834 1 36.501 1c37.333 0 67.5 -3.5 90.5 -10.5s41 -17.667 54 -32s21.833 -32.333 26.5 -54s7 -46.834 7 -75.501v-246c0 -9.33301 0.666992 -16.5 2 -21.5s3.5 -8.83301 6.5 -11.5
s7.16699 -4.5 12.5 -5.5s12.333 -1.83301 21 -2.5c7.33301 0 11 -3 11 -9v-20c0 -3.33301 -1 -6 -3 -8s-6 -3.66699 -12 -5c-32.667 -3.33301 -56 -1 -70 7s-22 25.667 -24 53h-1zM378.003 242l-162 0.000976562c-17.333 0 -33 -1.66699 -47 -5s-26 -9.33301 -36 -18
s-17.667 -20.334 -23 -35.001s-8 -33.334 -8 -56.001c0 -33.333 6.5 -56 19.5 -68s36.5 -18 70.5 -18c14.667 0 31 2.33301 49 7s35.667 10.334 53 17.001s33.333 13.5 48 20.5s26.667 13.167 36 18.5v137zM270.003 552.001c-26 0 -51.167 6.49902 -75.5 19.499
s-43.5 33.833 -57.5 62.5c-1.33301 2.66699 -2.83301 6.33398 -4.5 11.001s-0.833984 8.66699 2.49902 12l15 12c5.33301 4 10.333 3 15 -3c8.66699 -12 17 -22 25 -30s16.167 -14.667 24.5 -20s17.166 -9.16602 26.499 -11.499s19.666 -3.5 30.999 -3.5
c20 0 37.333 5.16699 52 15.5s31.334 27.166 50.001 50.499c4.66699 4.66699 9.66699 5.66699 15 3l15 -11c3.33301 -2.66699 4 -6.33398 2 -11.001l-5 -12c-15.333 -29.333 -34.666 -50.666 -57.999 -63.999s-47.666 -20 -72.999 -20z" />
    <glyph glyph-name="Aogonek" unicode="&#x104;" horiz-adv-x="532" 
d="M459 -101c0.666992 -23.333 11.168 -37.3301 31.501 -41.9971s46.166 -3.33398 77.499 3.99902c3.33301 1.33301 5.5 1.5 6.5 0.5s1.83301 -2.16699 2.5 -3.5l7 -20c1.33301 -4 -1 -7.33301 -7 -10c-9.33301 -4.66699 -20.166 -8.16699 -32.499 -10.5
s-23.5 -3.83301 -33.5 -4.5c-33.333 -1.33301 -58 5.66699 -74 21s-24 34.666 -24 57.999c0 16.667 4.16699 34.5 12.5 53.5s21.5 37.167 39.5 54.5h-1c-7.33301 0 -12 3.33301 -14 10l-53 173h-267l-54 -169c-2 -6 -4.5 -9.83301 -7.5 -11.5s-7.16699 -2.5 -12.5 -2.5h-28
c-7.33301 0 -9.66602 4 -6.99902 12l206 636c1.33301 5.33301 3 9.16602 5 11.499s5.66699 3.5 11 3.5h42c5.33301 0 9.16602 -1.5 11.499 -4.5s4.16602 -6.5 5.49902 -10.5l208 -638c0 -0.666992 0.166992 -1.16699 0.5 -1.5s0.5 -0.833008 0.5 -1.5v-2
c0 -3.33301 -1.66699 -5 -5 -5c-17.333 -20 -29.5 -38.5 -36.5 -55.5s-10.5 -32.167 -10.5 -45.5zM293.001 513.003l-13.5 44.5c-3 9.66699 -5.16699 17 -6.5 22l-3.5 13c-1 3.66699 -2.5 9.83398 -4.5 18.501h-2c-2 -8.66699 -3.5 -14.834 -4.5 -18.501s-2.33301 -8 -4 -13
l-7 -21.5l-13.5 -44l-88 -281h235z" />
    <glyph glyph-name="aogonek" unicode="&#x105;" horiz-adv-x="505" 
d="M377 57c-14.667 -8.66699 -29.3311 -16.832 -43.998 -24.499s-30.334 -14.5 -47.001 -20.5s-34.334 -10.833 -53.001 -14.5s-39 -5.5 -61 -5.5c-45.333 0 -78 11.167 -98 33.5s-30 55.5 -30 99.5c0 56.667 14.167 98.334 42.5 125.001s73.833 40 136.5 40h155v45
c0 20 -1.83301 37 -5.5 51s-10.334 25.5 -20.001 34.5s-22.834 15.667 -39.501 20s-37.667 6.5 -63 6.5c-21.333 0 -45 -1 -71 -3s-50.667 -4.33301 -74 -7c-9.33301 -0.666992 -14.333 1.66602 -15 6.99902l-4 18c0 6.66699 3.66699 11.667 11 15
c10.667 4 23 7.33301 37 10s28.333 4.83398 43 6.50098s28.834 2.83398 42.501 3.50098s25.834 1 36.501 1c37.333 0 67.5 -3.5 90.5 -10.5s41 -17.667 54 -32s21.833 -32.333 26.5 -54s7 -46.834 7 -75.501v-246c0 -9.33301 0.666992 -16.5 2 -21.5s3.5 -8.83301 6.5 -11.5
s7.16699 -4.5 12.5 -5.5s12.333 -1.83301 21 -2.5c7.33301 0 11 -3 11 -9v-20c0 -5.33301 -3 -9 -9 -11c-17.333 -20 -29.333 -38.333 -36 -55s-10 -31.667 -10 -45c0.666992 -23.333 11.167 -37.333 31.5 -42s46.166 -3.33398 77.499 3.99902
c3.33301 1.33301 5.5 1.5 6.5 0.5s1.83301 -2.16699 2.5 -3.5l7 -20c1.33301 -4 -1 -7.33301 -7 -10c-9.33301 -4.66699 -20.166 -8.16699 -32.499 -10.5s-23.5 -3.83301 -33.5 -4.5c-33.333 -1.33301 -58 5.66699 -74 21s-24 34.666 -24 57.999
c0 16 3.83301 33.167 11.5 51.5s19.834 35.833 36.501 52.5c-18.667 1.33301 -32.334 6.5 -41.001 15.5s-13.667 24.167 -15 45.5h-1zM378.003 242.002l-162 0.000976562c-17.333 0 -33 -1.66699 -47 -5s-26 -9.33301 -36 -18s-17.667 -20.334 -23 -35.001
s-8 -33.334 -8 -56.001c0 -33.333 6.5 -56 19.5 -68s36.5 -18 70.5 -18c14.667 0 31 2.33301 49 7s35.667 10.334 53 17.001s33.333 13.5 48 20.5s26.667 13.167 36 18.5v137z" />
    <glyph glyph-name="Cacute" unicode="&#x106;" horiz-adv-x="512" 
d="M120 324c0 -34 2.16895 -67.8379 6.50195 -101.505s13.166 -63.667 26.499 -90s32.166 -47.666 56.499 -63.999s56.833 -24.5 97.5 -24.5c32 0 61.5 1.66699 88.5 5l78.5 10c5.33301 0.666992 8.66602 -0.166016 9.99902 -2.49902s2.33301 -4.5 3 -6.5l4 -17
c0.666992 -3.33301 0.666992 -6.33301 0 -9s-2.66699 -4.66699 -6 -6c-12 -4.66699 -26 -8.66699 -42 -12s-32.333 -6 -49 -8s-32.5 -3.5 -47.5 -4.5s-27.5 -1.5 -37.5 -1.5c-50.667 0 -92 9 -124 27s-57.167 42.167 -75.5 72.5s-30.833 65.5 -37.5 105.5
s-10 82.333 -10 127c0 45.333 3.16699 88.833 9.5 130.5s18.5 78.5 36.5 110.5s43 57.5 75 76.5s74 28.5 126 28.5c10 0 22.5 -0.5 37.5 -1.5s30.833 -2.5 47.5 -4.5s33 -4.66699 49 -8s30 -7.33301 42 -12c3.33301 -1.33301 5.33301 -3.33301 6 -6s0.666992 -5.66699 0 -9
l-4 -16c-0.666992 -2.66699 -1.66699 -5.16699 -3 -7.5s-4.66602 -3.16602 -9.99902 -2.49902l-78.5 10c-27 3.33301 -56.5 5 -88.5 5c-42.667 0 -76.5 -8.33301 -101.5 -25s-43.833 -38.667 -56.5 -66s-20.667 -58.666 -24 -93.999s-5 -71.666 -5 -108.999z
M433.002 790.995c3.33301 -5.33301 2.33398 -9.33301 -2.99902 -12l-136 -72c-4 -2 -7.66699 -1.33301 -11 2l-15 18c-3.33301 3.33301 -2.33301 6.66602 3 9.99902l124 89c3.33301 2 5.66602 2.83301 6.99902 2.5s3.33301 -2.16602 6 -5.49902z" />
    <glyph glyph-name="cacute" unicode="&#x107;" horiz-adv-x="409" 
d="M235 497c8.66699 0 19.332 -0.333984 31.999 -1.00098s25.667 -1.83398 39 -3.50098s26.333 -3.83398 39 -6.50098s24 -6 34 -10c5.33301 -2 8.16602 -4.66699 8.49902 -8s0.5 -6.33301 0.5 -9l-4 -17c-0.666992 -3.33301 -2.66699 -5.33301 -6 -6
s-7.33301 -0.666992 -12 0c-8.66699 0.666992 -18.5 1.66699 -29.5 3s-22.5 2.5 -34.5 3.5s-23.833 1.83301 -35.5 2.5s-22.5 1 -32.5 1c-26 0 -47.5 -3.16699 -64.5 -9.5s-30.333 -17.166 -40 -32.499s-16.334 -35.666 -20.001 -60.999s-5.5 -57 -5.5 -95
c0 -39.333 2 -72.166 6 -98.499s10.833 -47.333 20.5 -63s22.834 -26.834 39.501 -33.501s38 -10 64 -10c6.66699 0 15.667 0.333008 27 1s23.5 1.5 36.5 2.5l39 3c13 1 24.833 2.16699 35.5 3.5c8 0 12.333 -3 13 -9l3 -13c0.666992 -3.33301 0.333984 -6.5 -0.999023 -9.5
s-4.66602 -5.83301 -9.99902 -8.5c-16 -6.66699 -37.333 -11.667 -64 -15s-52.667 -5 -78 -5c-41.333 0 -74.5 6.33301 -99.5 19s-44.167 30.334 -57.5 53.001s-22.166 49.5 -26.499 80.5s-6.5 64.833 -6.5 101.5c0 32.667 2.16699 64.167 6.5 94.5s13.166 57 26.499 80
s32.5 41.333 57.5 55s58.167 20.5 99.5 20.5zM246.998 550.999c-3.33301 -3.33301 -7 -4 -11 -2l-21 8c-4 2 -5 5.66699 -3 11l69 136c2.66699 4.66699 7 5.66699 13 3l37 -16c5.33301 -2.66699 6 -6.66699 2 -12z" />
    <glyph glyph-name="Ccircumflex" unicode="&#x108;" horiz-adv-x="512" 
d="M120 324c0 -34 2.16895 -67.8379 6.50195 -101.505s13.166 -63.667 26.499 -90s32.166 -47.666 56.499 -63.999s56.833 -24.5 97.5 -24.5c32 0 61.5 1.66699 88.5 5l78.5 10c5.33301 0.666992 8.66602 -0.166016 9.99902 -2.49902s2.33301 -4.5 3 -6.5l4 -17
c0.666992 -3.33301 0.666992 -6.33301 0 -9s-2.66699 -4.66699 -6 -6c-12 -4.66699 -26 -8.66699 -42 -12s-32.333 -6 -49 -8s-32.5 -3.5 -47.5 -4.5s-27.5 -1.5 -37.5 -1.5c-50.667 0 -92 9 -124 27s-57.167 42.167 -75.5 72.5s-30.833 65.5 -37.5 105.5
s-10 82.333 -10 127c0 45.333 3.16699 88.833 9.5 130.5s18.5 78.5 36.5 110.5s43 57.5 75 76.5s74 28.5 126 28.5c10 0 22.5 -0.5 37.5 -1.5s30.833 -2.5 47.5 -4.5s33 -4.66699 49 -8s30 -7.33301 42 -12c3.33301 -1.33301 5.33301 -3.33301 6 -6s0.666992 -5.66699 0 -9
l-4 -16c-0.666992 -2.66699 -1.66699 -5.16699 -3 -7.5s-4.66602 -3.16602 -9.99902 -2.49902l-78.5 10c-27 3.33301 -56.5 5 -88.5 5c-42.667 0 -76.5 -8.33301 -101.5 -25s-43.833 -38.667 -56.5 -66s-20.667 -58.666 -24 -93.999s-5 -71.666 -5 -108.999z
M427.002 705.995c-4.66699 -2.66699 -8.66895 -2.66602 -12.002 0.000976562l-115 79l-113 -79c-3.33301 -2 -5.66602 -3.16699 -6.99902 -3.5s-3.66602 0.5 -6.99902 2.5l-15 15c-2.66699 3.33301 -2.66699 6.66602 0 9.99902l99 90c4 3.33301 7.5 5.66602 10.5 6.99902
s6.5 2 10.5 2h45c5.33301 0 9.5 -0.666992 12.5 -2s6.16699 -3.66602 9.5 -6.99902l96 -88c4.66699 -4 5 -8 1 -12z" />
    <glyph glyph-name="ccircumflex" unicode="&#x109;" horiz-adv-x="409" 
d="M235 497c8.66699 0 19.332 -0.333984 31.999 -1.00098s25.667 -1.83398 39 -3.50098s26.333 -3.83398 39 -6.50098s24 -6 34 -10c5.33301 -2 8.16602 -4.66699 8.49902 -8s0.5 -6.33301 0.5 -9l-4 -17c-0.666992 -3.33301 -2.66699 -5.33301 -6 -6
s-7.33301 -0.666992 -12 0c-8.66699 0.666992 -18.5 1.66699 -29.5 3s-22.5 2.5 -34.5 3.5s-23.833 1.83301 -35.5 2.5s-22.5 1 -32.5 1c-26 0 -47.5 -3.16699 -64.5 -9.5s-30.333 -17.166 -40 -32.499s-16.334 -35.666 -20.001 -60.999s-5.5 -57 -5.5 -95
c0 -39.333 2 -72.166 6 -98.499s10.833 -47.333 20.5 -63s22.834 -26.834 39.501 -33.501s38 -10 64 -10c6.66699 0 15.667 0.333008 27 1s23.5 1.5 36.5 2.5l39 3c13 1 24.833 2.16699 35.5 3.5c8 0 12.333 -3 13 -9l3 -13c0.666992 -3.33301 0.333984 -6.5 -0.999023 -9.5
s-4.66602 -5.83301 -9.99902 -8.5c-16 -6.66699 -37.333 -11.667 -64 -15s-52.667 -5 -78 -5c-41.333 0 -74.5 6.33301 -99.5 19s-44.167 30.334 -57.5 53.001s-22.166 49.5 -26.499 80.5s-6.5 64.833 -6.5 101.5c0 32.667 2.16699 64.167 6.5 94.5s13.166 57 26.499 80
s32.5 41.333 57.5 55s58.167 20.5 99.5 20.5zM352.998 546.999c-4.66699 -3.33301 -8.66895 -3.33301 -12.002 0l-110 104l-108 -103c-4 -4 -8.33301 -4.33301 -13 -1l-16 14c-4 2.66699 -4 6 0 10l96 115c4 6 11 9 21 9h42c6.66699 0 11.334 -0.5 14.001 -1.5
s5.33398 -3.16699 8.00098 -6.5l93 -115c4.66699 -5.33301 5 -9.33301 1 -12z" />
    <glyph glyph-name="Cdotaccent" unicode="&#x10a;" horiz-adv-x="512" 
d="M120 324c0 -34 2.16895 -67.8379 6.50195 -101.505s13.166 -63.667 26.499 -90s32.166 -47.666 56.499 -63.999s56.833 -24.5 97.5 -24.5c32 0 61.5 1.66699 88.5 5l78.5 10c5.33301 0.666992 8.66602 -0.166016 9.99902 -2.49902s2.33301 -4.5 3 -6.5l4 -17
c0.666992 -3.33301 0.666992 -6.33301 0 -9s-2.66699 -4.66699 -6 -6c-12 -4.66699 -26 -8.66699 -42 -12s-32.333 -6 -49 -8s-32.5 -3.5 -47.5 -4.5s-27.5 -1.5 -37.5 -1.5c-50.667 0 -92 9 -124 27s-57.167 42.167 -75.5 72.5s-30.833 65.5 -37.5 105.5
s-10 82.333 -10 127c0 45.333 3.16699 88.833 9.5 130.5s18.5 78.5 36.5 110.5s43 57.5 75 76.5s74 28.5 126 28.5c10 0 22.5 -0.5 37.5 -1.5s30.833 -2.5 47.5 -4.5s33 -4.66699 49 -8s30 -7.33301 42 -12c3.33301 -1.33301 5.33301 -3.33301 6 -6s0.666992 -5.66699 0 -9
l-4 -16c-0.666992 -2.66699 -1.66699 -5.16699 -3 -7.5s-4.66602 -3.16602 -9.99902 -2.49902l-78.5 10c-27 3.33301 -56.5 5 -88.5 5c-42.667 0 -76.5 -8.33301 -101.5 -25s-43.833 -38.667 -56.5 -66s-20.667 -58.666 -24 -93.999s-5 -71.666 -5 -108.999z
M348.002 766.995c0 -9.33301 -1.99805 -17.499 -5.99805 -24.499s-12.667 -10.5 -26 -10.5c-14.667 0 -23.834 3.5 -27.501 10.5s-5.5 15.167 -5.5 24.5s2.16699 17.166 6.5 23.499s13.166 9.5 26.499 9.5s22 -3 26 -9s6 -14 6 -24z" />
    <glyph glyph-name="cdotaccent" unicode="&#x10b;" horiz-adv-x="409" 
d="M235 497c8.66699 0 19.332 -0.333984 31.999 -1.00098s25.667 -1.83398 39 -3.50098s26.333 -3.83398 39 -6.50098s24 -6 34 -10c5.33301 -2 8.16602 -4.66699 8.49902 -8s0.5 -6.33301 0.5 -9l-4 -17c-0.666992 -3.33301 -2.66699 -5.33301 -6 -6
s-7.33301 -0.666992 -12 0c-8.66699 0.666992 -18.5 1.66699 -29.5 3s-22.5 2.5 -34.5 3.5s-23.833 1.83301 -35.5 2.5s-22.5 1 -32.5 1c-26 0 -47.5 -3.16699 -64.5 -9.5s-30.333 -17.166 -40 -32.499s-16.334 -35.666 -20.001 -60.999s-5.5 -57 -5.5 -95
c0 -39.333 2 -72.166 6 -98.499s10.833 -47.333 20.5 -63s22.834 -26.834 39.501 -33.501s38 -10 64 -10c6.66699 0 15.667 0.333008 27 1s23.5 1.5 36.5 2.5l39 3c13 1 24.833 2.16699 35.5 3.5c8 0 12.333 -3 13 -9l3 -13c0.666992 -3.33301 0.333984 -6.5 -0.999023 -9.5
s-4.66602 -5.83301 -9.99902 -8.5c-16 -6.66699 -37.333 -11.667 -64 -15s-52.667 -5 -78 -5c-41.333 0 -74.5 6.33301 -99.5 19s-44.167 30.334 -57.5 53.001s-22.166 49.5 -26.499 80.5s-6.5 64.833 -6.5 101.5c0 32.667 2.16699 64.167 6.5 94.5s13.166 57 26.499 80
s32.5 41.333 57.5 55s58.167 20.5 99.5 20.5zM279.998 611.999c0 -9.33301 -1.99805 -17.499 -5.99805 -24.499s-12.667 -10.5 -26 -10.5c-14.667 0 -23.834 3.5 -27.501 10.5s-5.5 15.167 -5.5 24.5s2.16699 17.166 6.5 23.499s13.166 9.5 26.499 9.5s22 -3 26 -9
s6 -14 6 -24z" />
    <glyph glyph-name="Ccaron" unicode="&#x10c;" horiz-adv-x="512" 
d="M120 324c0 -34 2.16895 -67.8379 6.50195 -101.505s13.166 -63.667 26.499 -90s32.166 -47.666 56.499 -63.999s56.833 -24.5 97.5 -24.5c32 0 61.5 1.66699 88.5 5l78.5 10c5.33301 0.666992 8.66602 -0.166016 9.99902 -2.49902s2.33301 -4.5 3 -6.5l4 -17
c0.666992 -3.33301 0.666992 -6.33301 0 -9s-2.66699 -4.66699 -6 -6c-12 -4.66699 -26 -8.66699 -42 -12s-32.333 -6 -49 -8s-32.5 -3.5 -47.5 -4.5s-27.5 -1.5 -37.5 -1.5c-50.667 0 -92 9 -124 27s-57.167 42.167 -75.5 72.5s-30.833 65.5 -37.5 105.5
s-10 82.333 -10 127c0 45.333 3.16699 88.833 9.5 130.5s18.5 78.5 36.5 110.5s43 57.5 75 76.5s74 28.5 126 28.5c10 0 22.5 -0.5 37.5 -1.5s30.833 -2.5 47.5 -4.5s33 -4.66699 49 -8s30 -7.33301 42 -12c3.33301 -1.33301 5.33301 -3.33301 6 -6s0.666992 -5.66699 0 -9
l-4 -16c-0.666992 -2.66699 -1.66699 -5.16699 -3 -7.5s-4.66602 -3.16602 -9.99902 -2.49902l-78.5 10c-27 3.33301 -56.5 5 -88.5 5c-42.667 0 -76.5 -8.33301 -101.5 -25s-43.833 -38.667 -56.5 -66s-20.667 -58.666 -24 -93.999s-5 -71.666 -5 -108.999z
M285.002 705.995c-5.33301 0 -9.49902 0.832031 -12.499 2.49902s-6.16699 3.83398 -9.5 6.50098l-98 88c-4.66699 4 -5 8 -1 12l16 14c3.33301 2.66699 7.33301 2.66699 12 0l116 -78l113 77c3.33301 2 5.66602 3.16699 6.99902 3.5s3.33301 -0.5 6 -2.5l15 -14
c2.66699 -2.66699 2.66699 -6 0 -10l-99 -90c-6 -6 -12.667 -9 -20 -9h-45z" />
    <glyph glyph-name="ccaron" unicode="&#x10d;" horiz-adv-x="409" 
d="M235 497c8.66699 0 19.332 -0.333984 31.999 -1.00098s25.667 -1.83398 39 -3.50098s26.333 -3.83398 39 -6.50098s24 -6 34 -10c5.33301 -2 8.16602 -4.66699 8.49902 -8s0.5 -6.33301 0.5 -9l-4 -17c-0.666992 -3.33301 -2.66699 -5.33301 -6 -6
s-7.33301 -0.666992 -12 0c-8.66699 0.666992 -18.5 1.66699 -29.5 3s-22.5 2.5 -34.5 3.5s-23.833 1.83301 -35.5 2.5s-22.5 1 -32.5 1c-26 0 -47.5 -3.16699 -64.5 -9.5s-30.333 -17.166 -40 -32.499s-16.334 -35.666 -20.001 -60.999s-5.5 -57 -5.5 -95
c0 -39.333 2 -72.166 6 -98.499s10.833 -47.333 20.5 -63s22.834 -26.834 39.501 -33.501s38 -10 64 -10c6.66699 0 15.667 0.333008 27 1s23.5 1.5 36.5 2.5l39 3c13 1 24.833 2.16699 35.5 3.5c8 0 12.333 -3 13 -9l3 -13c0.666992 -3.33301 0.333984 -6.5 -0.999023 -9.5
s-4.66602 -5.83301 -9.99902 -8.5c-16 -6.66699 -37.333 -11.667 -64 -15s-52.667 -5 -78 -5c-41.333 0 -74.5 6.33301 -99.5 19s-44.167 30.334 -57.5 53.001s-22.166 49.5 -26.499 80.5s-6.5 64.833 -6.5 101.5c0 32.667 2.16699 64.167 6.5 94.5s13.166 57 26.499 80
s32.5 41.333 57.5 55s58.167 20.5 99.5 20.5zM374.998 677.999c4 -2.66699 3.66895 -6.66699 -0.998047 -12l-95 -115c-2.66699 -3.33301 -5.33398 -5.5 -8.00098 -6.5s-7.33398 -1.5 -14.001 -1.5h-39c-10 0 -17 3 -21 9l-97 115c-3.33301 4 -3.33301 7.33301 0 10l16 14
c4.66699 3.33301 9 3 13 -1l108 -103l110 104c3.33301 3.33301 7.33301 3.33301 12 0z" />
    <glyph glyph-name="Dcaron" unicode="&#x10e;" horiz-adv-x="596" 
d="M534 333c0 -47.333 -3.66699 -91.332 -11 -131.999s-20.833 -75.834 -40.5 -105.501s-46.334 -53 -80.001 -70s-76.834 -25.5 -129.501 -25.5h-181c-8.66699 0 -14.167 1.16699 -16.5 3.5s-3.5 6.16602 -3.5 11.499v632c0 4.66699 1 8.5 3 11.5s6.33301 4.5 13 4.5h185
c52 0 94.833 -8.5 128.5 -25.5s60.334 -40.167 80.001 -69.5s33.334 -64.166 41.001 -104.499s11.5 -83.833 11.5 -130.5zM474 325.001c0 48 -3.50098 88.3311 -10.501 120.998s-16.167 59.5 -27.5 80.5s-24.166 37.333 -38.499 49s-29 20 -44 25s-29.5 8 -43.5 9
s-26.333 1.5 -37 1.5h-143v-559h135c9.33301 0 21 0.166992 35 0.5s28.667 2.83301 44 7.5s30.833 12.334 46.5 23.001s29.667 26.167 42 46.5s22.333 46.333 30 78s11.5 70.834 11.5 117.501zM252.999 705.999c-5.33301 0 -9.49902 0.832031 -12.499 2.49902
s-6.16699 3.83398 -9.5 6.50098l-98 88c-4.66699 4 -5 8 -1 12l16 14c3.33301 2.66699 7.33301 2.66699 12 0l116 -78l113 77c3.33301 2 5.66602 3.16699 6.99902 3.5s3.33301 -0.5 6 -2.5l15 -14c2.66699 -2.66699 2.66699 -6 0 -10l-99 -90c-6 -6 -12.667 -9 -20 -9h-45z
" />
    <glyph glyph-name="dcaron" unicode="&#x10f;" horiz-adv-x="559" 
d="M573 673c0 -30 -6.66797 -55.999 -20.001 -77.999s-29 -39 -47 -51c-1.33301 -1.33301 -3.33301 -2.33301 -6 -3s-4.66699 -0.333984 -6 0.999023l-11 10c-2.66699 4 -2 7.33301 2 10c11.333 10 19.166 20.5 23.499 31.5s6.5 22.833 6.5 35.5c0 11.333 -2 21.5 -6 30.5
s-9.33301 17.833 -16 26.5c-5.33301 5.33301 -4.66602 10.333 2.00098 15l36 25c6 4 12 3.66699 18 -1c8.66699 -8 14.834 -16.833 18.501 -26.5s5.5 -18.167 5.5 -25.5zM378.999 421.001c-30 9.33301 -57.499 15.999 -82.499 19.999s-49.167 6 -72.5 6
c-24.667 0 -45 -3.66699 -61 -11s-28.5 -19.333 -37.5 -36s-15.333 -38.667 -19 -66s-5.5 -61 -5.5 -101c0 -39.333 1.66699 -71.333 5 -96s8.83301 -44.167 16.5 -58.5s18 -24.166 31 -29.499s29.167 -8 48.5 -8c13.333 0 28.666 2.5 45.999 7.5s34.5 10.833 51.5 17.5
s32.667 13.667 47 21l32.5 17v317zM380 684c0 6.66699 1.16895 10.998 3.50195 12.998s6.16602 3 11.499 3h26c8.66699 0 13 -5.33301 13 -16v-669c0 -6 -0.833008 -10 -2.5 -12s-5.16699 -3 -10.5 -3h-26c-5.33301 0 -9.16602 1 -11.499 3s-3.5 6 -3.5 12v46l-29.5 -18
c-13 -8 -27.833 -15.667 -44.5 -23s-34.667 -13.833 -54 -19.5s-38.333 -8.5 -57 -8.5c-29.333 0 -53.833 5 -73.5 15s-35.334 25.167 -47.001 45.5s-19.834 45.833 -24.501 76.5s-7 66.334 -7 107.001c0 42.667 2.66699 80.167 8 112.5s15 59.5 29 81.5s33 38.667 57 50
s54.667 17 92 17c20 0 42.333 -2.16699 67 -6.5s52 -13.166 82 -26.499l2 1v219z" />
    <glyph glyph-name="Dcroat" unicode="&#x110;" horiz-adv-x="596" 
d="M534 333c0 -47.333 -3.66699 -91.332 -11 -131.999s-20.833 -75.834 -40.5 -105.501s-46.334 -53 -80.001 -70s-76.834 -25.5 -129.501 -25.5h-181c-8.66699 0 -14.167 1.16699 -16.5 3.5s-3.5 6.16602 -3.5 11.499v301h-65c-6.66699 0 -10 2.66699 -10 8v31
c0 6 3.33301 9 10 9h65v283c0 4.66699 1 8.5 3 11.5s6.33301 4.5 13 4.5h185c52 0 94.833 -8.5 128.5 -25.5s60.334 -40.167 80.001 -69.5s33.334 -64.166 41.001 -104.499s11.5 -83.833 11.5 -130.5zM255 324.001c0 -5.33301 -3.33398 -8.00195 -10.001 -8.00195h-115v-264
h135c9.33301 0 21 0.166992 35 0.5s28.667 2.83301 44 7.5s30.833 12.334 46.5 23.001s29.667 26.167 42 46.5s22.333 46.333 30 78s11.5 70.834 11.5 117.501c0 48 -3.5 88.333 -10.5 121s-16.167 59.5 -27.5 80.5s-24.166 37.333 -38.499 49s-29 20 -44 25
s-29.5 8 -43.5 9s-26.333 1.5 -37 1.5h-143v-247h115c6.66699 0 10 -3 10 -9v-31z" />
    <glyph glyph-name="dcroat" unicode="&#x111;" horiz-adv-x="493" 
d="M219 563c-6 0 -8.99902 2.66895 -8.99902 8.00195v30c0 6.66699 3 10 9 10h166v80c0 8 3.66699 12 11 12h33c4.66699 0 7.5 -0.833008 8.5 -2.5s1.5 -4.83398 1.5 -9.50098v-80h63c6 0 9 -3.33301 9 -10v-30c0 -5.33301 -3 -8 -9 -8h-63v-552
c0 -7.33301 -3.33301 -11 -10 -11h-34c-7.33301 0 -11 3.66699 -11 11v45l-1 1c-9.33301 -6 -20.833 -12.667 -34.5 -20s-28.5 -14.333 -44.5 -21s-33.167 -12.334 -51.5 -17.001s-36.5 -7 -54.5 -7c-29.333 0 -53.833 5.16699 -73.5 15.5s-35.5 25.666 -47.5 45.999
s-20.5 45.833 -25.5 76.5s-7.5 66.334 -7.5 107.001c0 42.667 2.83301 80.167 8.5 112.5s15.667 59.5 30 81.5s33.666 38.5 57.999 49.5s55.166 16.5 92.499 16.5c18.667 0 40.834 -2 66.501 -6s53.167 -12 82.5 -24c0.666992 0 1.16699 0.166992 1.5 0.5
s0.833008 0.5 1.5 0.5v95h-166zM384.001 421.002c-30 9.33301 -57.834 16 -83.501 20s-50.167 6 -73.5 6s-43 -3.83301 -59 -11.5s-29 -20 -39 -37s-17.167 -39 -21.5 -66s-6.5 -59.5 -6.5 -97.5c0 -39.333 2.16699 -71.333 6.5 -96s10.833 -44.334 19.5 -59.001
s19.5 -24.667 32.5 -30s28.167 -8 45.5 -8c13.333 0 28.666 2.33301 45.999 7s34.333 10.334 51 17.001s32.334 13.5 47.001 20.5s26.334 12.833 35.001 17.5v317z" />
    <glyph glyph-name="Emacron" unicode="&#x112;" horiz-adv-x="476" 
d="M126 319v-267.002h300c6 0 10 -1.16699 12 -3.5s3 -6.16602 3 -11.499v-24c0 -5.33301 -1 -8.83301 -3 -10.5s-6 -2.5 -12 -2.5h-342c-6 0 -10 0.833008 -12 2.5s-3 5.16699 -3 10.5v636c0 4.66699 1 8.16699 3 10.5s6 3.5 12 3.5h335c6 0 10 -1 12 -3s3 -5.33301 3 -10
v-25c0 -5.33301 -1 -9 -3 -11s-6 -3 -12 -3h-293v-241h263c6 0 10 -0.833008 12 -2.5s3 -5.16699 3 -10.5v-23c0 -5.33301 -1 -9.16602 -3 -11.499s-6 -3.5 -12 -3.5h-263zM391 737.998c0 -5.33301 -3 -8 -9 -8h-239c-6.66699 0 -10 3 -10 9v30c0 6.66699 3.33301 10 10 10
h239c6 0 9 -3.33301 9 -10v-31z" />
    <glyph glyph-name="emacron" unicode="&#x113;" horiz-adv-x="482" 
d="M243 497c42 0 75.8291 -6.33496 101.496 -19.002s45.834 -29.167 60.501 -49.5s24.5 -43.666 29.5 -69.999s7.5 -53.166 7.5 -80.499c0 -15.333 -2.83301 -27.333 -8.5 -36s-16.5 -13 -32.5 -13h-297c1.33301 -33.333 3.83301 -61.833 7.5 -85.5
s10.334 -42.834 20.001 -57.501s23.334 -25.334 41.001 -32.001s41.167 -10 70.5 -10c10 0 22 0.5 36 1.5s28.333 2.33301 43 4s28.834 3.16699 42.501 4.5s24.834 2.33301 33.501 3c6.66699 0.666992 11 -2 13 -8l3 -16c2 -7.33301 -1.66699 -13 -11 -17
c-8 -2.66699 -18.667 -5.5 -32 -8.5s-27.666 -5.66699 -42.999 -8s-30.833 -4.16602 -46.5 -5.49902s-29.834 -2 -42.501 -2c-44.667 0 -79.834 7 -105.501 21s-45 32.667 -58 56s-21.167 50.5 -24.5 81.5s-5 63.167 -5 96.5c0 28.667 1.66699 57.834 5 87.501
s11.5 56.5 24.5 80.5s32.667 43.667 59 59s62.5 23 108.5 23zM242.996 446.998c-30.667 0 -54.8301 -3.83398 -72.4971 -11.501s-31.334 -18.834 -41.001 -33.501s-16 -32.667 -19 -54s-5.16699 -45.666 -6.5 -72.999h280c-0.666992 20.667 -2.33398 41.334 -5.00098 62.001
s-8.83398 39.167 -18.501 55.5s-23.667 29.5 -42 39.5s-43.5 15 -75.5 15zM374 591.997c0 -5.33301 -3.33301 -8 -10 -8h-238c-6.66699 0 -10 2.66699 -10 8v31c0 6 3.33301 9 10 9h238c6.66699 0 10 -3 10 -9v-31z" />
    <glyph glyph-name="Ebreve" unicode="&#x114;" horiz-adv-x="476" 
d="M126 319v-267.002h300c6 0 10 -1.16699 12 -3.5s3 -6.16602 3 -11.499v-24c0 -5.33301 -1 -8.83301 -3 -10.5s-6 -2.5 -12 -2.5h-342c-6 0 -10 0.833008 -12 2.5s-3 5.16699 -3 10.5v636c0 4.66699 1 8.16699 3 10.5s6 3.5 12 3.5h335c6 0 10 -1 12 -3s3 -5.33301 3 -10
v-25c0 -5.33301 -1 -9 -3 -11s-6 -3 -12 -3h-293v-241h263c6 0 10 -0.833008 12 -2.5s3 -5.16699 3 -10.5v-23c0 -5.33301 -1 -9.16602 -3 -11.499s-6 -3.5 -12 -3.5h-263zM250 707.998c-26 0 -51.167 6.49902 -75.5 19.499s-43.5 33.833 -57.5 62.5l-5 12
c-2 4.66699 -1.33301 8.66699 2 12l16 11c5.33301 4 10.333 3 15 -3c8.66699 -12 17 -22 25 -30s16.167 -14.667 24.5 -20s17.166 -9.16602 26.499 -11.499s19.666 -3.5 30.999 -3.5c20 0 37.5 5.16699 52.5 15.5s31.5 27.166 49.5 50.499c4 4.66699 9 5.66699 15 3l15 -10
c3.33301 -3.33301 4 -7.33301 2 -12l-5 -12c-15.333 -29.333 -34.666 -50.666 -57.999 -63.999s-47.666 -20 -72.999 -20z" />
    <glyph glyph-name="ebreve" unicode="&#x115;" horiz-adv-x="482" 
d="M243 497c42 0 75.8291 -6.33496 101.496 -19.002s45.834 -29.167 60.501 -49.5s24.5 -43.666 29.5 -69.999s7.5 -53.166 7.5 -80.499c0 -15.333 -2.83301 -27.333 -8.5 -36s-16.5 -13 -32.5 -13h-297c1.33301 -33.333 3.83301 -61.833 7.5 -85.5
s10.334 -42.834 20.001 -57.501s23.334 -25.334 41.001 -32.001s41.167 -10 70.5 -10c10 0 22 0.5 36 1.5s28.333 2.33301 43 4s28.834 3.16699 42.501 4.5s24.834 2.33301 33.501 3c6.66699 0.666992 11 -2 13 -8l3 -16c2 -7.33301 -1.66699 -13 -11 -17
c-8 -2.66699 -18.667 -5.5 -32 -8.5s-27.666 -5.66699 -42.999 -8s-30.833 -4.16602 -46.5 -5.49902s-29.834 -2 -42.501 -2c-44.667 0 -79.834 7 -105.501 21s-45 32.667 -58 56s-21.167 50.5 -24.5 81.5s-5 63.167 -5 96.5c0 28.667 1.66699 57.834 5 87.501
s11.5 56.5 24.5 80.5s32.667 43.667 59 59s62.5 23 108.5 23zM242.996 446.998c-30.667 0 -54.8301 -3.83398 -72.4971 -11.501s-31.334 -18.834 -41.001 -33.501s-16 -32.667 -19 -54s-5.16699 -45.666 -6.5 -72.999h280c-0.666992 20.667 -2.33398 41.334 -5.00098 62.001
s-8.83398 39.167 -18.501 55.5s-23.667 29.5 -42 39.5s-43.5 15 -75.5 15zM249 551.997c-26 0 -51.167 6.49902 -75.5 19.499s-43.5 33.833 -57.5 62.5c-1.33301 2.66699 -2.83301 6.33398 -4.5 11.001s-0.833984 8.66699 2.49902 12l15 12c5.33301 4 10.333 3 15 -3
c8.66699 -12 17 -22 25 -30s16.167 -14.667 24.5 -20s17.166 -9.16602 26.499 -11.499s19.666 -3.5 30.999 -3.5c20 0 37.333 5.16699 52 15.5s31.334 27.166 50.001 50.499c4.66699 4.66699 9.66699 5.66699 15 3l15 -11c3.33301 -2.66699 4 -6.33398 2 -11.001l-5 -12
c-15.333 -29.333 -34.666 -50.666 -57.999 -63.999s-47.666 -20 -72.999 -20z" />
    </font>
</defs>
</svg>
